<?xml version="1.0" encoding="utf-8"?>
<!-- Generator: Adobe Illustrator 24.1.3, SVG Export Plug-In . SVG Version: 6.00 Build 0)  -->
<svg version="1.1" id="Layer_1" xmlns="http://www.w3.org/2000/svg" xmlns:xlink="http://www.w3.org/1999/xlink" x="0px" y="0px"
	 viewBox="0 0 16 16" style="enable-background:new 0 0 16 16;" xml:space="preserve">
<style type="text/css">
	.st0{fill:#0D47A1;}
</style>
<path class="st0" d="M14.2,3l-9.2,9.2c-0.3,0.4-0.9,0.4-1.3,0.1C3.4,12,3.4,11.4,3.7,11c0,0,0.1-0.1,0.1-0.1L13,1.8H9.8
	c-0.5,0-0.9-0.4-0.9-0.9S9.3,0,9.8,0h5.3C15.6,0,16,0.4,16,0.9v5.3c0,0.5-0.4,0.9-0.9,0.9c-0.5,0-0.9-0.4-0.9-0.9V3z M12.4,9.8
	c0-0.5,0.4-0.9,0.9-0.9c0.5,0,0.9,0.4,0.9,0.9v4.4c0,1-0.8,1.8-1.8,1.8H1.8c-1,0-1.8-0.8-1.8-1.8V3.6c0-1,0.8-1.8,1.8-1.8h4.4
	c0.5,0,0.9,0.4,0.9,0.9S6.7,3.6,6.2,3.6H2.7C2.2,3.6,1.8,4,1.8,4.4v8.9c0,0.5,0.4,0.9,0.9,0.9h8.9c0.5,0,0.9-0.4,0.9-0.9V9.8z"/>
</svg>
