<?xml version="1.0" encoding="utf-8"?>
<!-- Generator: Adobe Illustrator 24.3.0, SVG Export Plug-In . SVG Version: 6.00 Build 0)  -->
<svg version="1.1" id="Layer_1" xmlns="http://www.w3.org/2000/svg" xmlns:xlink="http://www.w3.org/1999/xlink" x="0px" y="0px"
	 viewBox="0 0 16 16" style="enable-background:new 0 0 16 16;" xml:space="preserve">
<style type="text/css">
	.st0{fill:#121212;}
</style>
<path class="st0" d="M11.2,8c0,1.8-1.4,3.2-3.2,3.2c-1.8,0-3.2-1.4-3.2-3.2c0-1.8,1.4-3.2,3.2-3.2c0.6,0,1.1,0.2,1.6,0.5L8.4,6.5
	C8.3,6.4,8.1,6.4,8,6.4C7.1,6.4,6.4,7.1,6.4,8c0,0.9,0.7,1.6,1.6,1.6c0.9,0,1.6-0.7,1.6-1.6c0-0.1,0-0.3-0.1-0.4l1.2-1.2
	C11,6.9,11.2,7.4,11.2,8 M8,14.4c-3.5,0-6.4-2.9-6.4-6.4c0-3.5,2.9-6.4,6.4-6.4c1.2,0,2.4,0.4,3.4,1l0.2,0.6c0,0,0,0,0,0.1l-0.8,0.8
	C10,3.5,9,3.2,8,3.2C5.4,3.2,3.2,5.4,3.2,8c0,2.6,2.1,4.8,4.8,4.8c2.6,0,4.8-2.2,4.8-4.8c0-1-0.3-2-0.9-2.8l0.8-0.8c0,0,0,0,0.1,0
	l0.6,0.2c0.6,1,1,2.1,1,3.4C14.4,11.5,11.5,14.4,8,14.4 M14.8,3.9l1-1C16,2.8,16,2.5,15.7,2.4l-0.8-0.3c0.3-0.3,0.3-0.8,0-1.1
	c-0.3-0.3-0.8-0.3-1.1,0l-0.3-0.8C13.5,0,13.2-0.1,13,0.1l-1,1C10.8,0.4,9.5,0,8,0C3.6,0,0,3.6,0,8c0,4.4,3.6,8,8,8c4.4,0,8-3.6,8-8
	C16,6.5,15.5,5.1,14.8,3.9"/>
</svg>
