<?xml version="1.0" encoding="utf-8"?>
<!-- Generator: Adobe Illustrator 24.3.0, SVG Export Plug-In . SVG Version: 6.00 Build 0)  -->
<svg version="1.1" id="Layer_1" xmlns="http://www.w3.org/2000/svg" xmlns:xlink="http://www.w3.org/1999/xlink" x="0px" y="0px"
	 viewBox="0 0 16 16" style="enable-background:new 0 0 16 16;" xml:space="preserve">
<style type="text/css">
	.st0{fill:#111111;}
</style>
<path class="st0" d="M12.2,9.3l-2.1,0.8h0.3c0.2,0,0.4,0.1,0.5,0.2l1.9-1C12.7,9.2,12.5,9.2,12.2,9.3 M14.3,9.6
	c-0.2-0.2-0.6-0.2-0.8-0.1l-2.2,1.1c0.1,0.2,0.2,0.5,0.1,0.7C12.2,10.9,13.3,10.2,14.3,9.6L14.3,9.6z M2.1,13.2
	c0-0.3-0.2-0.5-0.5-0.5s-0.5,0.2-0.5,0.5s0.2,0.5,0.5,0.5l0,0C1.8,13.6,2.1,13.4,2.1,13.2 M15.8,10c0.3,0.3,0.3,0.8,0,1l-0.1,0.1
	l-3.8,2.7c-0.6,0.4-1.4,0.7-2.2,0.7H9.5l-6-0.4l0,0c-0.1,0-0.3,0-0.4-0.1c-0.1,0.2-0.4,0.4-0.6,0.4H1c-0.5,0-0.9-0.3-0.9-0.8L0,10.4
	C0,10,0.3,9.6,0.8,9.6l0,0l1.4-0.1c0.3,0,0.5,0.1,0.7,0.4C3.6,9.7,4.8,9.3,6.8,10c0.6,0.2,1.3,0.4,2,0.4l1.6,0.1
	c0.4,0,0.6,0.3,0.6,0.7c0,0.3-0.3,0.6-0.6,0.6H7.7c-0.1,0-0.2,0.1-0.1,0.2c0,0.1,0.1,0.1,0.1,0.1h2.7c0.3,0,0.7-0.1,1-0.3
	c0,0,2.3-1.4,3.5-2.1C15.1,9.6,15.5,9.7,15.8,10L15.8,10z M5.2,3.5h0.7v0.7c0,0.2,0.2,0.4,0.4,0.4c0.2,0,0.4-0.2,0.4-0.4V3.5h0.7
	c0.2,0,0.4-0.2,0.4-0.4S7.6,2.7,7.4,2.7H6.8V2c0-0.2-0.2-0.4-0.4-0.4C6.1,1.6,5.9,1.8,5.9,2v0.7H5.2C5,2.7,4.8,2.9,4.8,3.1
	C4.8,3.3,5,3.5,5.2,3.5z M11,4.8h0.8v0.8C11.8,5.8,12,6,12.3,6s0.5-0.2,0.5-0.5V4.8h0.8c0.3,0,0.5-0.2,0.5-0.5s-0.2-0.5-0.5-0.5
	h-0.8V3c0-0.3-0.2-0.5-0.5-0.5S11.8,2.7,11.8,3v0.8H11c-0.3,0-0.5,0.2-0.5,0.5C10.5,4.5,10.7,4.8,11,4.8L11,4.8z M7.9,5.5
	c0-0.4,0.3-0.7,0.7-0.7c0.4,0,0.6,0.3,0.7,0.7v1h1c0.4,0,0.7,0.3,0.7,0.7c0,0.4-0.3,0.7-0.7,0.7c0,0,0,0-0.1,0h-1v1
	c0,0.4-0.3,0.7-0.7,0.7C8.2,9.6,7.9,9.3,7.9,9V8h-1C6.5,8,6.2,7.7,6.2,7.3c0-0.4,0.3-0.6,0.7-0.7h1V5.5z"/>
</svg>
