<svg xmlns="http://www.w3.org/2000/svg" viewBox="0 0 16 16"><path d="M11.2 8c0 1.8-1.4 3.2-3.2 3.2-1.8 0-3.2-1.4-3.2-3.2 0-1.8 1.4-3.2 3.2-3.2.6 0 1.1.2 1.6.5L8.4 6.5c-.1-.1-.3-.1-.4-.1-.9 0-1.6.7-1.6 1.6 0 .9.7 1.6 1.6 1.6.9 0 1.6-.7 1.6-1.6 0-.1 0-.3-.1-.4l1.2-1.2c.3.5.5 1 .5 1.6M8 14.4c-3.5 0-6.4-2.9-6.4-6.4 0-3.5 2.9-6.4 6.4-6.4 1.2 0 2.4.4 3.4 1l.2.6v.1l-.8.8C10 3.5 9 3.2 8 3.2 5.4 3.2 3.2 5.4 3.2 8c0 2.6 2.1 4.8 4.8 4.8 2.6 0 4.8-2.2 4.8-4.8 0-1-.3-2-.9-2.8l.8-.8h.1l.6.2c.6 1 1 2.1 1 3.4 0 3.5-2.9 6.4-6.4 6.4m6.8-10.5l1-1c.2-.1.2-.4-.1-.5l-.8-.3c.3-.3.3-.8 0-1.1-.3-.3-.8-.3-1.1 0l-.3-.8c0-.2-.3-.3-.5-.1l-1 1C10.8.4 9.5 0 8 0 3.6 0 0 3.6 0 8s3.6 8 8 8 8-3.6 8-8c0-1.5-.5-2.9-1.2-4.1" fill="#121212"/></svg>