<svg version="1.1" id="Layer_1" xmlns="http://www.w3.org/2000/svg" x="0" y="0" viewBox="0 0 16 16" xml:space="preserve"><style>.st0{fill:#111}</style><path class="st0" d="M14.2 4.8v7.5c0 .3-.3.6-.6.6H5.7c-.3 0-.6-.3-.6-.6V1.8c0-.3.3-.6.6-.6h5v2.4c0 .7.5 1.2 1.2 1.2h2.3zM5.7 0c-1 0-1.8.8-1.8 1.8V2H2.4c-1 0-1.8.8-1.8 1.8v10.5c0 1 .8 1.8 1.8 1.8h7.9c1 0 1.8-.8 1.8-1.8V14h1.4c1 0 1.8-.8 1.8-1.8V3.8L11.6 0H5.7z"/><path class="st0" d="M10.6 7.9l-.8.9-1.7-1.1-2.2 2.1.8.9 1.6-1.5 1.8 1.2 1.4-1.6.9.8.6-3.2-3.3.7z"/></svg>