<svg xmlns="http://www.w3.org/2000/svg" viewBox="0 0 16 16"><path d="M12.2 9.3l-2.1.8h.3c.2 0 .4.1.5.2l1.9-1c-.1-.1-.3-.1-.6 0m2.1.3c-.2-.2-.6-.2-.8-.1l-2.2 1.1c.1.2.2.5.1.7.8-.4 1.9-1.1 2.9-1.7zM2.1 13.2c0-.3-.2-.5-.5-.5s-.5.2-.5.5.2.5.5.5c.2-.1.5-.3.5-.5M15.8 10c.3.3.3.8 0 1l-.1.1-3.8 2.7c-.6.4-1.4.7-2.2.7h-.2l-6-.4c-.1 0-.3 0-.4-.1-.1.2-.4.4-.6.4H1c-.5 0-.9-.3-.9-.8L0 10.4c0-.4.3-.8.8-.8l1.4-.1c.3 0 .5.1.7.4.7-.2 1.9-.6 3.9.1.6.2 1.3.4 2 .4l1.6.1c.4 0 .6.3.6.7 0 .3-.3.6-.6.6H7.7c-.1 0-.2.1-.1.2 0 .1.1.1.1.1h2.7c.3 0 .7-.1 1-.3 0 0 2.3-1.4 3.5-2.1.2-.1.6 0 .9.3zM5.2 3.5h.7v.7c0 .2.2.4.4.4s.4-.2.4-.4v-.7h.7c.2 0 .4-.2.4-.4s-.2-.4-.4-.4h-.6V2c0-.2-.2-.4-.4-.4-.3 0-.5.2-.5.4v.7h-.7c-.2 0-.4.2-.4.4s.2.4.4.4zM11 4.8h.8v.8c0 .2.2.4.5.4s.5-.2.5-.5v-.7h.8c.3 0 .5-.2.5-.5s-.2-.5-.5-.5h-.8V3c0-.3-.2-.5-.5-.5s-.5.2-.5.5v.8H11c-.3 0-.5.2-.5.5 0 .2.2.5.5.5zm-3.1.7c0-.4.3-.7.7-.7.4 0 .6.3.7.7v1h1c.4 0 .7.3.7.7 0 .4-.3.7-.7.7H9.2v1c0 .4-.3.7-.7.7-.3 0-.6-.3-.6-.6V8h-1c-.4 0-.7-.3-.7-.7 0-.4.3-.6.7-.7h1V5.5z" fill="#111"/></svg>