<?xml version="1.0" encoding="utf-8"?>
<!-- Generator: Adobe Illustrator 25.2.0, SVG Export Plug-In . SVG Version: 6.00 Build 0)  -->
<svg version="1.1" id="Layer_1" xmlns="http://www.w3.org/2000/svg" xmlns:xlink="http://www.w3.org/1999/xlink" x="0px" y="0px"
	 viewBox="0 0 565 565" style="enable-background:new 0 0 565 565;" xml:space="preserve">
<style type="text/css">
	.st0{fill:#81A4B0;}
	.st1{fill:#819399;}
	.st2{fill:#94B9C8;}
	.st3{fill:#F4F4F4;}
	.st4{fill:#AEAEAE;}
	.st5{fill:#EAEAEA;}
	.st6{fill:#145A6F;}
	.st7{fill:#6D0C1A;}
	.st8{fill:#981C20;}
	.st9{fill:#EC1E35;}
	.st10{fill:#747474;}
	.st11{fill:#193B44;}
	.st12{fill:#3B7F9B;}
	.st13{fill:#E9EAE9;}
	.st14{fill:#6A6C6C;}
	.st15{fill:#DBD9D9;}
	.st16{opacity:0.6;fill:#FFFFFF;enable-background:new    ;}
	.st17{fill:#EDEDED;}
	.st18{fill:#FFFFFF;}
	.st19{fill-rule:evenodd;clip-rule:evenodd;fill:#F15A56;}
	.st20{fill-rule:evenodd;clip-rule:evenodd;fill:#F9A822;}
	.st21{fill-rule:evenodd;clip-rule:evenodd;fill:#B3B4B4;}
	.st22{fill-rule:evenodd;clip-rule:evenodd;fill:#DAD9D9;}
	.st23{fill:#DAD9D9;}
	.st24{fill:#B3B4B4;}
	.st25{fill-rule:evenodd;clip-rule:evenodd;fill:#B3C0C9;fill-opacity:0;}
	.st26{fill:#3AA1D1;}
	.st27{fill:#ABC1D6;}
	.st28{fill:#7ED0F0;}
	.st29{fill:#8D9FAE;}
	.st30{fill:#C7C6C5;}
	.st31{fill:#B3B5B6;}
	.st32{fill:#15B2C4;}
	.st33{fill:#409CC8;}
	.st34{fill:#12B3C4;}
	.st35{opacity:0.5;fill-rule:evenodd;clip-rule:evenodd;fill:#12B3C4;enable-background:new    ;}
	.st36{opacity:0.7;fill-rule:evenodd;clip-rule:evenodd;fill:#12B3C4;enable-background:new    ;}
	.st37{fill-rule:evenodd;clip-rule:evenodd;fill:#ABC1D6;}
	.st38{fill-rule:evenodd;clip-rule:evenodd;fill:#F2F2F2;}
	.st39{fill-rule:evenodd;clip-rule:evenodd;fill:#DAD9D8;}
	.st40{fill-rule:evenodd;clip-rule:evenodd;fill:url(#SVGID_1_);}
	.st41{fill:#8E98AF;}
	.st42{fill:#B4B4B5;}
	.st43{fill:#D8D9D8;}
	.st44{fill:#F2F3F3;}
	.st45{fill-rule:evenodd;clip-rule:evenodd;fill:url(#SVGID_2_);}
	.st46{fill-rule:evenodd;clip-rule:evenodd;fill:#FFFFFF;}
	.st47{fill:#982324;}
	.st48{fill-rule:evenodd;clip-rule:evenodd;fill:#982324;}
	.st49{fill-rule:evenodd;clip-rule:evenodd;fill:url(#SVGID_3_);}
	.st50{fill-rule:evenodd;clip-rule:evenodd;fill:#640A34;}
	.st51{fill-rule:evenodd;clip-rule:evenodd;fill:url(#SVGID_4_);}
	.st52{fill-rule:evenodd;clip-rule:evenodd;fill:#368282;}
	.st53{fill-rule:evenodd;clip-rule:evenodd;fill:url(#SVGID_5_);}
	.st54{fill-rule:evenodd;clip-rule:evenodd;fill:#639640;}
	.st55{fill-rule:evenodd;clip-rule:evenodd;fill:url(#SVGID_6_);}
	.st56{fill-rule:evenodd;clip-rule:evenodd;fill:#25265E;}
	.st57{fill:#25265E;}
	.st58{fill-rule:evenodd;clip-rule:evenodd;fill:url(#SVGID_7_);}
	.st59{fill:#ED6926;}
	.st60{fill-rule:evenodd;clip-rule:evenodd;fill:#ED6926;}

	#digi-mountain-group {
		animation: levitate 4.5s cubic-bezier(0.57, 0.19, 0.25, 0.75) infinite;
		transform-origin: 50% 50%;
	}

	#flame-group {
		animation: flicker .35s linear infinite;
		transform-origin: 50% 50%;
	}

	#yellow-flame {
		animation: flicker 1s linear infinite;
		transform-origin: 50% 65%;
	}

	#smoke-group {
		animation: track-levitate 3s cubic-bezier(0.57, 0.19, 0.25, 0.75) infinite;
		animation-delay: .25s;
	}

	.smoke {
		opacity: 0;
		animation: smoke 3s linear infinite;
		transform-origin: 50% 50%;
	}

	#right-arm {
		animation: wave 4s ease-in-out infinite;
		transform-origin: 55% 55%;
	}

	.background-cloud {
		animation: cloud-hover 16s ease-in infinite;
	}

	.smoke-2 {animation-delay: 1s;}
	.smoke-3 {animation-delay: 2s;}
	#background-cloud-1 {animation-delay: 4s;}
	#background-cloud-2 {animation-delay: 8s;}
	#background-cloud-3 {animation-delay: 12s;}


	@keyframes levitate {
		from {transform: rotate(0deg) translate(-10px) rotate(0deg);}
		to {transform: rotate(360deg) translate(-10px) rotate(-360deg);}
	}

	@keyframes flicker {
		0% {transform: rotate(-1deg);}
		25% {transform: rotate(1deg);}
		50%, 100% {transform: rotate(1deg);}
		75% {transform: rotate(-1deg);}
	}

	@keyframes smoke {
		0% {transform: scale(0.95); opacity: 0;}
		50% {transform: scale(1.05); opacity: 1;}
		100% {transform: scale(1.15); opacity: 0;}
	}

	@keyframes wave {
		0%, 100% {transform: translateY(0) rotate(0);}
		50% {transform: translateY(-10px) rotate(15deg);}
	}

	@keyframes cloud-hover {
		0 {transform: translateX(0);}
		10% {transform: translateX(10px);}
		30% {transform: translateX(-10px);}
		40% {transform: translateX(0);}
	}

	@keyframes flag-flutter {
		0%,100% {transform: skew(0);}
		50% {transform: skew(0,15deg);}
	}
</style>
<g id="cloud-mountain-group">
	<g id="mountain-group">
		<g id="mountain-3">
			<polygon class="st0" points="285.7,127.2 212.9,223.6 352.6,223.6 			"/>
			<polygon class="st1" points="304.1,153.9 352.6,223.8 326.9,223.8 295.9,151.4 			"/>
			<polygon class="st2" points="276.2,151.4 247.3,223.7 212.9,223.8 264.7,155.2 			"/>
			<polygon class="st3" points="264.7,155.2 285.7,127.4 276.2,151.4 			"/>
			<polygon class="st4" points="295.9,151.4 285.7,127.4 304.1,153.9 			"/>
			<polygon class="st5" points="276.2,151.4 285.7,127.4 295.9,151.4 286,163.4 			"/>
			<polygon class="st0" points="295.9,151.4 326.9,223.8 247.3,223.7 276.2,151.4 286,163.4 			"/>
		</g>
		<g id="mountain-2">
			<polygon class="st6" points="314,252.3 194.4,55.5 64.2,252.2 			"/>
			<g id="flag">
				<g>
					<path id="flag-back" class="st7" d="M220.5,15.2l-4.4,13.1l25.5-2.9c0,0-5.6-9.1-5.1-10.2c0.6-1.1,5.8-11.8,5.8-11.8
						s-22.2,2.4-21.7,2.4C221.2,5.7,220.5,15.2,220.5,15.2z"/>
					<path class="st8" d="M224.5,17.4c0.7,0.4,6,5.5,6,5.5l-14.4,5.5v-10L224.5,17.4z"/>
					<polygon id="flag-front" class="st9" points="194.6,26.9 230.5,22.9 229.6,1 194.6,5 					"/>
				</g>
				<path class="st10" d="M194.4,58.5L194.4,58.5c-0.5,0-0.9-0.4-0.9-0.9V5.9c0-0.5,0.4-0.9,0.9-0.9l0,0c0.5,0,0.9,0.4,0.9,0.9v51.7
					C195.3,58.1,194.9,58.5,194.4,58.5z"/>
			</g>
			<polygon class="st11" points="227.3,109.5 314,252.3 268,252.1 212.7,104.4 			"/>
			<polygon class="st12" points="177.4,104.5 125.8,252 64.2,252.2 156.8,112.3 			"/>
			<polygon class="st13" points="156.8,112.3 194.4,55.5 177.4,104.5 			"/>
			<polygon class="st14" points="212.7,104.4 194.4,55.5 227.3,109.5 			"/>
			<polygon class="st15" points="177.4,104.5 194.4,55.5 212.7,104.4 195,129 			"/>
		</g>
		<g id="mountain-1">
			<polygon class="st6" points="88.2,149.4 16.5,246.8 154,246.8 			"/>
			<polygon class="st11" points="106.3,175.4 154,246 128.7,246 98.3,172.8 			"/>
			<polygon class="st12" points="78.8,172.9 50.4,245.9 16.5,246 67.5,176.8 			"/>
			<polygon class="st13" points="67.5,176.8 88.2,148.6 78.8,172.9 			"/>
			<polygon class="st14" points="98.3,172.8 88.2,148.6 106.3,175.4 			"/>
			<polygon class="st15" points="78.8,172.9 88.2,148.6 98.3,172.8 88.5,185 			"/>
		</g>
	</g>
	<g id="background-clouds">
		<ellipse class="st16" cx="150.4" cy="231.5" rx="24" ry="19.6"/>
		<ellipse class="st16" cx="101.1" cy="237.7" rx="14" ry="11.4"/>
		<path id="background-cloud-1" class="st16 background-cloud" d="M135.4,211.5c0,0.3,0,0.5-0.1,0.8h-34.1c-0.1-0.3-0.1-0.5-0.1-0.8
			c0-3.2,3.2-5.9,7.2-5.9c0.1,0,0.2,0,0.3,0v0c0-4.2,4.1-7.5,9.2-7.5c4,0,7.5,2.1,8.7,5.1c1.7,0.5,3.1,1.5,4,2.8
			C133.4,206.7,135.4,208.9,135.4,211.5z"/>
		<path id="background-cloud-2" class="st16 background-cloud" d="M301.7,189.8c0,0.5,0,1-0.1,1.5h-65.8c-0.1-0.5-0.1-1-0.1-1.5
			c0-6.3,6.2-11.4,13.8-11.4c0.2,0,0.4,0,0.6,0v0c0-8.1,7.9-14.7,17.8-14.7c7.8,0,14.4,4.1,16.8,9.9c3.3,1,6,2.9,7.6,5.4
			C297.8,180.5,301.7,184.8,301.7,189.8z"/>
		<path id="background-cloud-3" class="st16 background-cloud" d="M234.5,219.4c-2.2-3.4-5.9-5.9-10.3-7.2c-3.2-7.7-12.2-13.2-22.6-13.2
			c-13.2,0-24,8.8-24,19.6c0,0,0,0,0,0c-0.3,0-0.6,0-0.9,0c-10.3,0-18.6,6.8-18.6,15.2s8.4,15.2,18.6,15.2c3.5,0,6.8-0.8,9.6-2.2
			c3.4,3.9,8.9,6.5,15.3,6.5c6.8,0,12.6-2.9,15.9-7.3c3.1,1.9,6.9,3,11.1,3c10.3,0,18.6-6.8,18.6-15.2
			C247.2,227.2,241.9,221.5,234.5,219.4z"/>
	</g>
	<g id="foreground-clouds">
		<path id="cloud-3" class="st17" d="M205.9,281.5c13.1,0,23.7-10.9,23.7-24.2c0-13.4-10.6-24.2-23.7-24.2c-0.3,0-0.6,0-0.8,0
			c-3.5-2.9-7.8-4.9-12.5-5.6c-5.8-9.5-16.1-15.8-27.8-15.8c-14,0-25.9,9-30.6,21.6c-11.8,1.4-21,11.6-21,24.1
			c0,13.4,10.6,24.2,23.7,24.2L205.9,281.5L205.9,281.5z"/>
		<path id="cloud-4" class="st18" d="M362.5,286.2c11.9,0,21.6-9.9,21.6-22.1s-9.7-22.1-21.6-22.1c-1.4,0-2.7,0.1-4,0.4
			c0.1-0.9,0.2-1.8,0.2-2.8c0-12.9-10.2-23.3-22.8-23.3c-3.6,0-7,0.8-10,2.3c-5.1-11.6-16.5-19.8-29.8-19.8
			c-15.3,0-28.1,10.8-31.6,25.2c-0.3,0-0.6,0-1,0c-9.9,0-18.4,6.5-21.5,15.5c-11.6,1.1-20.7,11-20.7,23.2
			c0,12.9,10.2,23.3,22.8,23.3L362.5,286.2L362.5,286.2z"/>
		<path id="cloud-2" class="st18" d="M104.5,282.4c11.9,0,21.6-9.9,21.6-22.1s-9.7-22.1-21.6-22.1c-1.4,0-2.8,0.1-4.2,0.4
			c-2.5-12.5-13.6-21.9-26.8-21.9c-6.2,0-11.9,2.1-16.5,5.5c-3.9-4-9.3-6.5-15.3-6.5c-11.8,0-21.3,9.5-21.3,21.3
			c0,1.1,0.1,2.2,0.2,3.2c-9.8,1.9-17.1,10.6-17.1,20.9c0,11.8,9.5,21.3,21.3,21.3H104.5z"/>
		<path id="cloud-1" class="st17" d="M163.7,441.2c17.4,0,31.5-14.4,31.5-32.2s-14.1-32.2-31.5-32.2c-2.1,0-4.1,0.2-6,0.6
			c-3.7-18.2-19.8-32-39.1-32c-9,0-17.4,3-24.1,8.1c-5.7-5.8-13.6-9.5-22.3-9.5c-17.2,0-31.1,13.9-31.1,31.1c0,1.6,0.1,3.2,0.3,4.7
			c-14.2,2.8-25,15.4-25,30.5c0,17.2,13.9,31.1,31.1,31.1L163.7,441.2L163.7,441.2z"/>
	</g>
</g>
<g id="digi-mountain-group">
	<g id="rocket-smoke-group">
		<g id="rocket-group_1_">
			<g id="flame-group">
				<path id="red-flame" class="st19" d="M483.2,422.2c0,0,2.1-31.7-3.1-42.3c-3.8-7.8-13.2-11.1-21-7.3c-7.8,3.8-11.1,13.2-7.3,21
					C457,404.3,483.2,422.2,483.2,422.2z"/>
				<path id="yellow-flame" class="st20" d="M474.7,404.9c0,0,1.5-23-2.2-30.8c-2.8-5.7-9.6-8-15.3-5.3c-5.7,2.8-8,9.6-5.3,15.3
					C455.6,391.9,474.7,404.9,474.7,404.9z"/>
			</g>
			<g>
				<g>
					<g>
						<path class="st21" d="M475.3,359.5c1,2.1,1.7,4.3,2.3,6.5c0.5,2.2,0.8,4.5,0.9,6.7l-31.8,14.7c-0.7-0.7-1.5-1.4-2.1-2.1
							c-0.8-0.9-1.6-1.9-2.4-2.9c-1.4-1.8-2.5-3.9-3.5-6c-1.5-3.2-2.4-6.4-2.8-9.6c0-0.2-0.1-0.5-0.1-0.7c-0.3-2.3-0.3-4.6,0-6.8
							c0.8-7,4.4-12.9,10.1-15.5c5.8-2.6,12.5-1.5,18.4,2.4c2,1.4,4,3,5.7,5C472,353.5,473.8,356.3,475.3,359.5z"/>
						<path class="st22" d="M483.1,366.3l1.4,3c0.6,1.3,0,2.9-1.3,3.5L445,390.5c-1.3,0.6-2.9,0-3.5-1.3l-0.7-1.4l-0.7-1.6
							c-0.6-1.3,0-2.9,1.3-3.5l1.6-0.7l34.5-16l2.1-1C480.9,364.4,482.5,365,483.1,366.3z"/>
						<path class="st10" d="M469.9,351.1L436,366.7l-0.2,0.1c0-0.2-0.1-0.5-0.1-0.7c-0.3-2.3-0.3-4.6,0-6.8
							c0.8-7,4.4-12.9,10.1-15.5c5.8-2.6,12.5-1.5,18.4,2.4C466.2,347.5,468.1,349.2,469.9,351.1z"/>
						<path class="st23" d="M473.6,341.8l-9.4,4.4l-28.5,13.1l-2.6,1.2l-8.6,4l-7.2-15.5l-3.9-8.5l-12-26.1l-3.9-8.5l-4.9-10.6
							c-3.5-7.5-3.2-15.8,0.1-22.8c2.6-5.6,7.1-10.3,13.2-13.1c6.8-3.1,14.2-3.2,20.7-0.8c6.5,2.4,12.1,7.3,15.2,14l4.9,10.6
							l3.9,8.5l12,26.1l3.9,8.5L473.6,341.8z"/>
						<polygon class="st24" points="450.5,291.7 410,310.4 401.4,314.4 397.5,305.9 406.1,301.9 446.6,283.2 						"/>
						<polygon class="st24" points="466.4,326.2 426,344.9 417.3,348.9 413.4,340.4 413.4,340.4 422,336.4 462.5,317.8 						"/>
					</g>
				</g>
			</g>
		</g>
		<g id="smoke-group">
			<path class="st25 smoke" d="M488.6,435.7c-3.3-0.9-7.3,0.7-9.3,4.1s-1.6,7.6,0.7,10.2c-2.5,2.5-3.1,6.7-1.3,10.2
				c1.8,3.4,5.7,5.1,9.1,4.3c0.9,3.4,4.1,6,8,6c3.9,0,7.3-2.5,8.4-5.9c3.3,0.9,7.3-0.7,9.3-4.1c2-3.4,1.7-7.6-0.7-10.2
				c2.5-2.5,3.2-6.7,1.3-10.2c-1.8-3.4-5.7-5.1-9.1-4.3c-0.9-3.4-4.1-6-8-6C493.1,429.8,489.7,432.3,488.6,435.7z"/>
			<path class="st25 smoke smoke-2" d="M481.5,448.5c-3.3-0.9-7.3,0.7-9.3,4.1c-2,3.4-1.6,7.6,0.7,10.2c-2.5,2.5-3.1,6.7-1.3,10.2
				c1.8,3.4,5.7,5.1,9.1,4.3c0.9,3.4,4.1,6,8,6c3.9,0,7.3-2.5,8.4-5.9c3.3,0.9,7.3-0.7,9.3-4.1c2-3.4,1.6-7.6-0.7-10.2
				c2.5-2.5,3.1-6.7,1.3-10.2c-1.8-3.4-5.7-5.1-9.1-4.3c-0.9-3.4-4.1-6-8-6S482.5,445.2,481.5,448.5z"/>
			<path class="st25 smoke smoke-3" d="M503.3,435.7c-3.3-0.9-7.3,0.7-9.3,4.1s-1.6,7.6,0.7,10.2c-2.5,2.5-3.1,6.7-1.3,10.2
				c1.8,3.4,5.7,5.1,9.1,4.3c0.9,3.4,4.1,6,8,6c3.9,0,7.3-2.5,8.4-5.9c3.3,0.9,7.3-0.7,9.3-4.1c2-3.4,1.7-7.6-0.7-10.2
				c2.5-2.5,3.2-6.7,1.3-10.2c-1.8-3.4-5.7-5.1-9.1-4.3c-0.9-3.4-4.1-6-8-6C507.8,429.8,504.3,432.3,503.3,435.7z"/>
		</g>
	</g>
	<g id="digi">
		<g id="right-arm">
			<circle class="st26" cx="332.5" cy="336.2" r="7.9"/>
			<circle class="st26" cx="355.9" cy="321.3" r="8"/>
			<g>
				<path class="st27" d="M307.1,344.2c0.7-0.9,1.3-1.9,1.8-2.9c1-2,1.5-4.2,1.8-6.4c0-0.2,0-0.3,0-0.5c0.1-1.3,0.1-2.6-0.1-4
					c-0.1-0.5-0.1-1-0.2-1.5c0.1,0,0.2,0,0.4,0.1l0,0c4.8,1.2,10.1,1.4,15.5,0.5c0.2,0,0.4-0.1,0.6-0.1c0.8-0.1,1.6-0.3,2.6-0.6
					c0.9,1.2,1.7,2.4,2.4,3.8c0.2,0.4,0.4,0.8,0.5,1.2c1.2,3.2,1.6,6.6,1,10c-0.9,0.2-1.7,0.4-2.5,0.6c-0.8,0.2-1.5,0.3-2.2,0.4
					C321.3,346.1,314,345.9,307.1,344.2z"/>
			</g>
			<g>
				<path class="st27" d="M360.4,328.3c-7.4,9.6-17.5,13.6-24.9,15.1c0.4-1.9,0.5-3.8,0.4-5.8c-0.1-1.4-0.4-2.7-0.8-4
					c-0.1-0.5-0.3-1-0.5-1.5c-0.6-1.4-1.3-2.7-2.1-3.9c4.8-1,11.2-3.4,15.7-9.3c2-2.6,5.4-3.6,8.3-2.8c0.9,0.3,1.7,0.7,2.5,1.3
					c0.6,0.5,1.1,1,1.5,1.5c0.6,0.8,1,1.6,1.2,2.5C362.4,323.8,362,326.3,360.4,328.3z"/>
			</g>
			<g>
				<path class="st28" d="M296,333.2c0.1-0.2,0.2-0.5,0.2-0.7c1.5-3.7,5.6-5.6,9.5-4.4c1.7,0.5,3.4,0.9,5.2,1.1
					c0.6,1.7,0.9,3.5,1,5.4c0.1,2.4-0.2,4.8-1,7.1c-0.4,1.1-0.9,2.1-1.5,3.1c-2.9-0.4-5.7-1-8.4-1.8
					C296.9,341.7,294.7,337.3,296,333.2z"/>

					<ellipse transform="matrix(0.3849 -0.923 0.923 0.3849 -116.2044 485.9447)" class="st28" cx="306.5" cy="330.2" rx="4.9" ry="4.8"/>
			</g>
		</g>
		<g>
			<path class="st27" d="M428.1,357.2c-0.1-0.4-0.1-0.7-0.2-1.1c-1.8-8.5-6.8-15.9-12.4-22.5c-5.8-6.9-12.4-13.3-20.5-17
				c-9.9-4.5-21.1-4.3-31.7-2.7c-10.7,1.6-19.1,2-16.8,15.1c2.6,14.5,6.8,28.7,12.6,42.3c2.9,6.9,6.3,13.8,11.9,18.7
				c5.5,4.9,12.9,7.4,20.3,7.6c10.6,0.4,21.3-4,28.4-11.9C426.5,378,429.8,367.3,428.1,357.2z"/>
		</g>

			<ellipse transform="matrix(0.1933 -0.9811 0.9811 0.1933 -72.9902 699.1417)" class="st26" cx="388.7" cy="394" rx="5.2" ry="10.2"/>

			<ellipse transform="matrix(2.509962e-02 -0.9997 0.9997 2.509962e-02 13.0164 783.5888)" class="st26" cx="408.3" cy="385.1" rx="6" ry="11.6"/>
		<circle class="st26" cx="410.8" cy="341" r="8.3"/>
		<g>
			<g>
				<g>
					<path class="st29" d="M349.5,344.3c0.7-0.8,1.2-1.4,1.9-2.2l30.8-3.9c3.2-0.4,6.2,1.8,6.6,4.9l2,15.8c0.4,3.1-1.9,6-5.1,6.4
						l-25.4,3.2c-0.4,0-0.8,0-1.1-0.2c-1.8-0.8-3.5-2-5-3.5c-0.2-0.2-0.4-0.5-0.5-0.8C351.5,357.6,349.6,350.9,349.5,344.3z"/>
					<g>
						<path class="st30" d="M348.8,345.5c0-1.1,0.7-2,1.8-2.2c0,0,0,0,0,0l29.6-3.7c2.9-0.4,5.6,1.6,6,4.5l1.9,14.3
							c0.4,2.8-1.7,5.4-4.6,5.8l-24.3,3.1c-1.4,0.2-2.8-0.2-3.9-1c-0.5-0.4-1.1-0.9-1.6-1.4c-0.2-0.2-0.4-0.5-0.5-0.8
							C350.8,358.1,349,351.7,348.8,345.5z"/>
					</g>
				</g>
			</g>
			<g>
				<path class="st31" d="M349.7,346.8c0-1,0.6-1.9,1.6-2c0,0,0,0,0,0l27.1-3.4c2.7-0.3,5.1,1.5,5.5,4.1l1.7,13.1
					c0.3,2.6-1.6,5-4.2,5.3l-22.2,2.8c-1.3,0.2-2.6-0.2-3.6-1c-0.5-0.4-1-0.8-1.4-1.2c-0.2-0.2-0.4-0.5-0.5-0.7
					C351.6,358.2,350,352.5,349.7,346.8z"/>
			</g>
			<g>
				<path class="st32" d="M360.1,364.2c0,0,4.6-9.4,4.1-13.1c-0.4-3.3-3.2-5.7-6.2-5.4s-5.3,3.3-4.9,6.6
					C353.5,356.1,360.1,364.2,360.1,364.2"/>
				<path class="st18" d="M362.7,350.9c0.3,2.4-1.3,4.6-3.5,4.8s-4.3-1.5-4.5-3.9s1.3-4.6,3.5-4.8
					C360.4,346.8,362.4,348.5,362.7,350.9"/>
				<g>

						<rect x="368.2" y="357" transform="matrix(0.9935 -0.1135 0.1135 0.9935 -38.3016 44.2716)" class="st32" width="2.8" height="3"/>

						<rect x="372" y="356.5" transform="matrix(0.9935 -0.1135 0.1135 0.9935 -38.2179 44.7018)" class="st32" width="2.8" height="3"/>

						<rect x="371.6" y="352.2" transform="matrix(0.9935 -0.1135 0.1135 0.9935 -37.7364 44.6186)" class="st32" width="2.8" height="3"/>

						<rect x="375.5" y="351.7" transform="matrix(0.9935 -0.1135 0.1135 0.9935 -37.6597 45.064)" class="st32" width="2.8" height="3"/>

						<rect x="375" y="347.3" transform="matrix(0.9935 -0.1135 0.1135 0.9935 -37.1635 44.9788)" class="st32" width="2.8" height="3"/>

						<rect x="376" y="356" transform="matrix(0.9935 -0.1135 0.1135 0.9935 -38.1412 45.1472)" class="st32" width="2.8" height="3"/>
				</g>
			</g>
		</g>
		<g>
			<path class="st27" d="M434.2,415.3c0,0.6-0.5,1.3-0.9,1.8c-1.3,1.6-3,2.8-4.8,3.8c-4.5,2.3-10.1,2.6-14.2,0.3
				c-3.6-2-5.8-5.6-7.7-9.1c-1.1-2-2.1-4.1-3.1-6.2h0c0-0.1-0.1-0.2-0.1-0.2l-0.7-1.7l-0.1-0.1c-0.4-1-0.8-2-1.2-3
				c-0.9-2.4-1.8-4.9-2.5-7.4c-0.6-2-1.9-4.1-1-6.3c0.5-1.5,1.7-2.7,3.1-3.6c1.9-1.2,4.1-1.7,6.2-1.7c1.3,0,2.6,0.1,3.9,0.3
				c2.3,0.5,4.4,1.4,6.2,2.8c0.5,0.4,1,0.8,1.3,1.4c0.3,0.5,0.4,1.2,0.5,1.8c0.5,2.4,1.2,4.6,2.2,6.7c0.3,0.7,0.7,1.4,1,2.1
				c3.2,6,7.9,11.3,11.5,17C433.9,414.2,434.2,414.7,434.2,415.3z"/>
			<g>
				<path class="st26" d="M403.4,405.7L403.4,405.7c2.5-2.1,5.3-4,8.2-5.4c1.9-1,4.1-1.8,6.3-2.5c1.4-0.4,2.8-0.8,4.2-1.1
					c-0.4-0.7-0.7-1.4-1-2.1c-1.2,0.3-2.5,0.6-3.7,1c-2.4,0.7-4.6,1.6-6.7,2.6c-2.9,1.5-5.7,3.2-8.2,5.3l0.1,0.1l0.8,1.7
					L403.4,405.7z"/>
			</g>
		</g>
		<g>
			<path class="st33" d="M418.4,430.4l0.3,6.6l2.5,1.9c1.1,0.8,2.8,0.5,3.9-0.7c3.2-3.7,7.9-10.5,9.8-13.9c0,0,2.9-3.6,2.8-11.4
				c0-0.6-0.2-1-0.3-1.3c-0.2-0.7-0.8-1.2-1.5-1.3l-2.4-0.4L418.4,430.4z"/>
			<path class="st28" d="M413.3,426.4c-0.3-3-0.1-6.3,1.5-9.2c1.9-3.3,5.3-5.4,8.7-6c2.3-0.5,4.6-0.2,6.4,0.7c0-1.1,0-2.2-0.1-3.3
				c1,0.4,2.1,0.9,3.1,1.3c0.3,0.1,0.5,0.2,0.7,0.4c0.2,0.2,0.3,0.6,0.4,0.9c0.9,3.9,0.1,8.4-2.1,12.1c-0.6,1.2-1.3,2.4-2.1,3.5
				c-2.3,3.4-5.1,6.5-7.9,9.5c-0.5,0.6-1.1,1.2-1.8,1.2c-0.4,0-0.7-0.2-1-0.4C415.5,435.1,413.8,430.8,413.3,426.4z"/>
		</g>
		<g>
			<path class="st27" d="M406.2,425.4c-0.1,0.6-0.6,1-1.1,1.4c-1.5,1.1-3.2,1.9-5,2.4c-4.5,1.2-9.5,0.4-12.7-2.5
				c-2.8-2.5-4.1-6.1-5.1-9.6c-0.6-2-1.1-4.1-1.5-6.1h0c0-0.1,0-0.2,0-0.2l-0.3-1.7l0-0.1c-0.2-1-0.4-2-0.5-2.9
				c-0.4-2.3-0.6-4.7-0.8-7.1c-0.1-1.9-0.9-4,0.3-5.8c0.8-1.2,2-2.1,3.4-2.6c1.9-0.7,3.9-0.7,5.8-0.4c1.2,0.2,2.4,0.6,3.4,1
				c1.9,0.9,3.6,2.1,5,3.6c0.4,0.5,0.7,0.9,0.9,1.5c0.2,0.5,0.1,1.1,0.1,1.7c0,2.2,0.2,4.3,0.7,6.4c0.1,0.7,0.3,1.4,0.5,2
				c1.7,6,4.8,11.6,7,17.4C406.1,424.4,406.3,424.9,406.2,425.4z"/>
			<g>
				<path class="st26" d="M380.6,411L380.6,411c2.6-1.4,5.5-2.5,8.4-3.3c1.9-0.5,4-0.8,6.1-1c1.3-0.1,2.6-0.2,3.9-0.2
					c-0.2-0.7-0.4-1.4-0.5-2c-1.1,0-2.3,0.1-3.5,0.2c-2.3,0.2-4.5,0.6-6.5,1.1c-2.9,0.7-5.7,1.8-8.4,3.2l0,0.1l0.3,1.7L380.6,411z"
					/>
			</g>
		</g>
		<g>
			<path class="st33" d="M389.2,435.8l-1,5.9l1.9,2.1c0.9,1,2.4,1,3.6,0.1c3.6-2.7,9-7.8,11.4-10.5c0,0,3.2-2.7,4.6-9.6
				c0.1-0.5,0-0.9,0-1.2c-0.1-0.7-0.5-1.2-1.1-1.5l-2-0.8L389.2,435.8z"/>
			<path class="st28" d="M385.4,431.3c0.3-2.8,1.1-5.6,3.1-7.9c2.3-2.5,5.8-3.7,8.9-3.7c2.1,0,4.1,0.7,5.5,1.8c0.2-1,0.4-2,0.5-2.9
				c0.9,0.6,1.7,1.2,2.5,1.8c0.2,0.1,0.4,0.3,0.6,0.5c0.1,0.2,0.2,0.6,0.2,0.9c0.1,3.6-1.5,7.5-4.2,10.4c-0.8,1-1.6,1.9-2.5,2.7
				c-2.7,2.6-5.8,4.8-8.8,6.9c-0.6,0.4-1.2,0.8-1.9,0.7c-0.3-0.1-0.6-0.3-0.8-0.5C385.8,439.5,385,435.3,385.4,431.3z"/>
		</g>
		<path class="st34" d="M411.6,329.9c-2.9,2-5.6,4.9-6.2,8.5c-0.7,4.2,1.7,8.5,5.1,10.9s7.5,3.3,11.6,3.6c4.8,0.4,9.6,0.3,14.3-0.4
			c-0.8-1.7-1.4-3.5-1.8-5.4c-7.4,3-15.9,2.6-23.1-0.9c-1.3-0.7-2.7-1.5-3.4-2.8c-1-1.8-0.7-4.2,0.3-6c1-1.8,2.6-3.2,4.1-4.5
			c3.2-2.7,6.5-5,10-7.2C419.3,324,414.3,328.1,411.6,329.9z"/>
		<g>
			<g>

					<ellipse transform="matrix(0.1113 -0.9938 0.9938 0.1113 20.5761 665.451)" class="st29" cx="382.4" cy="321.2" rx="13.2" ry="32.1"/>
			</g>
			<g>
				<path class="st35" d="M325.3,263.5c1.1-0.9,2.4-1.9,4-2.8c0.2-1.8,0.7-3.3,1.6-3.9c4.2-3,34.8-11.8,34.8-11.8l2.6,1.7
					c0,0-12.4,31.8-22.2,40.4c-8.7,7.6-20.3,8.5-26,2C314.3,282.6,316.6,271.1,325.3,263.5z"/>
				<path class="st36" d="M318.1,278.6c0.4-2.2,0.1-5.6,1.8-7.3c1.7-1.7,0-4.1-1.9-4.1c1.3-1.9,2.9-3.8,4.7-5.4
					c9.8-8.6,43-16.8,43-16.8s-12.4,31.8-22.2,40.4c-8.7,7.6-20.3,8.5-26,2c-0.3-0.4-0.6-0.7-0.9-1.1
					C316.7,283.7,317.6,281.3,318.1,278.6z"/>
				<path class="st36" d="M368.5,246.7c0,0-33.2,8.2-43,16.8c-8.7,7.6-11,19.1-5.3,25.6s17.4,5.6,26-2
					C356.1,278.5,368.5,246.7,368.5,246.7z"/>

					<ellipse transform="matrix(0.2718 -0.9624 0.9624 0.2718 -25.2914 518.1683)" class="st37" cx="329.7" cy="275.8" rx="22.6" ry="14.5"/>

					<ellipse transform="matrix(0.2718 -0.9624 0.9624 0.2718 -23.0889 523.8057)" class="st38" cx="334.6" cy="277.2" rx="18.6" ry="11.9"/>
			</g>
			<path class="st39" d="M317.9,289.9c-1.1,2.9-1,6,0.2,8.5c0.5,1,1,2.1,1.5,3c1,2.1,2.8,3.7,5,4.5l45.6,15.1
				c2.2,0.7,4.6,0.5,6.9-0.5c0.9-0.4,1.9-0.9,2.8-1.3c2.6-1.2,4.8-3.6,5.9-6.5l11.9-31.6c1.8-4.7-0.2-9.6-4.5-11l-52.6-17.4
				c-4.2-1.4-9.1,1.3-10.9,6L317.9,289.9z"/>
			<g>
				<path class="st27" d="M397.8,264.5c0,0,8.5,5,23.6,20c1.3,1.3,3,3.1,3.2,6.9c-3.8,8.5-7.5,17-11.3,25.4
					c-1.2,2.6-2.3,5.3-3.5,7.9c-1,2.3-1.9,5.6-3.8,7.3c-1,0.8-2.1,1.4-3.3,1.9c-5.7,2.2-12.4-0.9-17.8-2.8c-3.5-1.2-14-4.6-17.5-6
					l-0.9-32.1L397.8,264.5z"/>
				<g>
					<path class="st37" d="M403.5,285.3c3.7-9.9-0.5-20.2-9.4-23.2l-48.9-16.2c-8.9-2.9-19.1,2.7-22.9,12.5l-10.6,28.1
						c-3.7,9.9,0.5,20.2,9.6,23.4l48.9,16.2c8.7,2.8,18.9-2.8,22.6-12.7L403.5,285.3z"/>
				</g>
			</g>
			<g>

					<linearGradient id="SVGID_1_" gradientUnits="userSpaceOnUse" x1="365.5717" y1="306.3271" x2="351.5086" y2="259.8575" gradientTransform="matrix(1 0 0 -1 0 566)">
					<stop  offset="0" style="stop-color:#1277A7"/>
					<stop  offset="1" style="stop-color:#055499"/>
				</linearGradient>
				<path class="st40" d="M397.7,281l-11.9,31.6c-1.1,2.9-3.2,5.2-5.9,6.5c-0.9,0.4-1.9,0.9-2.8,1.3c-2.2,1.1-4.7,1.2-6.9,0.5
					l-45.6-15.1c-2.2-0.7-4-2.3-5-4.5c-0.5-1-1-2-1.5-3c-1.2-2.5-1.3-5.6-0.2-8.5l11.8-31.4c1.8-4.7,6.6-7.4,10.9-6l52.6,17.4
					C397.5,271.3,399.5,276.3,397.7,281z"/>
				<circle class="st18" cx="338.6" cy="270.4" r="7.2"/>
				<circle class="st18" cx="373" cy="281.4" r="7.2"/>
			</g>
			<g>

					<ellipse transform="matrix(0.2718 -0.9624 0.9624 0.2718 5.509 621.9629)" class="st41" cx="413.7" cy="307.3" rx="23.7" ry="15.2"/>
				<g>
					<path class="st35" d="M410.8,295.7c1.1-0.9,2.4-1.9,4-2.8c0.2-1.8,0.7-3.3,1.6-3.9c4.2-3,34.8-11.8,34.8-11.8l2.6,1.7
						c0,0-12.4,31.8-22.2,40.4c-8.7,7.6-20.3,8.5-26,2C399.8,314.8,402.2,303.3,410.8,295.7z"/>
					<path class="st36" d="M403.6,310.8c0.4-2.2,0.1-5.6,1.8-7.3c1.7-1.7,0-4.1-1.9-4.1c1.3-1.9,2.9-3.8,4.7-5.4
						c9.8-8.6,43-16.8,43-16.8s-12.4,31.8-22.2,40.4c-8.7,7.6-20.3,8.5-26,2c-0.3-0.4-0.6-0.7-0.9-1.1
						C402.2,315.9,403.1,313.5,403.6,310.8z"/>
					<path class="st36" d="M454.1,278.9c0,0-33.2,8.2-43,16.8c-8.7,7.6-11,19.1-5.3,25.6s17.4,5.6,26-2
						C441.6,310.8,454.1,278.9,454.1,278.9z"/>

						<ellipse transform="matrix(0.2718 -0.9624 0.9624 0.2718 6.0147 623.9143)" class="st37" cx="415.3" cy="308" rx="22.6" ry="14.5"/>

						<ellipse transform="matrix(0.2718 -0.9624 0.9624 0.2718 8.2215 629.563)" class="st38" cx="420.1" cy="309.3" rx="18.6" ry="11.9"/>
				</g>
			</g>
		</g>
		<g id="left-arm">
			<circle class="st26" cx="437.4" cy="332.7" r="7.4"/>
			<g>
				<g>
					<path class="st27" d="M436.3,325.4c-1.4,2.8-2,5.9-1.8,9c0,0.1,0,0.2,0,0.3c0,0.4,0.1,0.8,0.1,1.2c0.2,1.4,0.6,2.8,1.1,4.1
						c-4.6-0.2-11.1,0.6-16.5,5c-2.4,2-5.7,2.1-8.3,0.6c-0.8-0.4-1.4-1-2-1.7c-0.1-0.2-0.2-0.3-0.4-0.5c-0.8-1.2-1.2-2.5-1.2-3.8
						c-0.1-2.2,0.9-4.4,2.8-6C419,326.5,429.1,325.2,436.3,325.4z"/>
				</g>
			</g>
			<g>
				<g>
					<path class="st27" d="M461.5,342.8c-1,0.2-2.1,0.5-3.1,1c-0.7,0.3-1.5,0.7-2.1,1.2c-1.1,0.7-2.1,1.5-3,2.4
						c-0.1,0.1-0.2,0.2-0.3,0.3c-0.9,0.9-1.7,1.9-2.4,2.9c-0.2,0.4-0.5,0.8-0.7,1.2c-0.1-0.1-0.1-0.2-0.2-0.3l0,0
						c-2.7-3.8-6.4-7.1-10.9-9.8c-0.2-0.1-0.3-0.2-0.5-0.3c-0.6-0.4-1.4-0.8-2.2-1.1c0-1.4,0.2-2.8,0.6-4.2c0.1-0.4,0.2-0.8,0.4-1.2
						c0.3-0.9,0.7-1.7,1.1-2.5c1.1-2,2.5-3.8,4.2-5.3c0.8,0.4,1.5,0.7,2.1,1.1s1.3,0.7,1.9,1C452.5,332.8,457.6,337.4,461.5,342.8z"
						/>
				</g>
			</g>
			<g>
				<path class="st28" d="M462.9,357.5c-0.2,0.1-0.4,0.2-0.6,0.3c-3.3,1.7-7.5,0.6-9.5-2.6c-0.9-1.4-1.9-2.7-3-4
					c0.6-1.6,1.5-3.1,2.6-4.5c1.4-1.8,3.1-3.3,5-4.5c0.9-0.5,1.9-1,2.9-1.3c1.9,2,3.5,4.1,4.9,6.4
					C467.3,350.8,466.3,355.3,462.9,357.5z"/>

					<ellipse transform="matrix(0.8896 -0.4567 0.4567 0.8896 -111.3127 246.0934)" class="st28" cx="453.4" cy="353.3" rx="4.6" ry="4.6"/>
			</g>
		</g>
	</g>
</g>
<g id="icons-group">
	<g>
		<g>
			<g>
				<ellipse class="st42" cx="327.5" cy="93.1" rx="14.8" ry="8.6"/>
				<rect x="312.6" y="90" class="st42" width="2.4" height="2.7"/>
				<rect x="339.9" y="90" class="st42" width="2.4" height="2.7"/>
				<ellipse class="st43" cx="327.5" cy="90.3" rx="14.8" ry="8.6"/>
			</g>
			<g>
				<ellipse class="st42" cx="327.5" cy="89.5" rx="11.4" ry="6.6"/>
				<rect x="316.1" y="87.1" class="st42" width="1.9" height="2.1"/>
				<rect x="337" y="87.1" class="st42" width="1.9" height="2.1"/>
				<ellipse class="st44" cx="327.5" cy="87.4" rx="11.4" ry="6.6"/>
			</g>
		</g>
		<g>
			<g>
				<g>
					<g>

							<linearGradient id="SVGID_2_" gradientUnits="userSpaceOnUse" x1="593.988" y1="579.473" x2="621.3641" y2="579.473" gradientTransform="matrix(0.437 -0.8995 -0.8995 -0.437 581.6234 869.979)">
							<stop  offset="0" style="stop-color:#9D2526"/>
							<stop  offset="1" style="stop-color:#E02638"/>
						</linearGradient>
						<path class="st45" d="M326.8,85.8c0,0,10.4-8.9,10.6-18.7c0.1-5.6-4.4-10.3-10-10.4c-5.6-0.1-10.3,4.3-10.4,10
							C316.8,76.5,326.8,85.8,326.8,85.8z"/>
					</g>
					<g>
						<circle class="st46" cx="327.2" cy="67.1" r="8.1"/>
					</g>
				</g>
			</g>
			<g>
				<path class="st47" d="M329.1,70.7c0,0.1-0.1,0.2-0.3,0.2l-3.4-0.1c-0.1,0-0.2-0.1-0.2-0.2c0-0.1,0.1-0.2,0.3-0.2l3.4,0.1
					C329,70.4,329.1,70.6,329.1,70.7"/>
				<path class="st47" d="M329.1,71.5c0,0.1-0.1,0.2-0.3,0.2l-3.4-0.1c-0.1,0-0.2-0.1-0.2-0.2c0-0.1,0.1-0.2,0.3-0.2l3.4,0.1
					C329,71.2,329.1,71.3,329.1,71.5"/>
				<path class="st47" d="M329.1,72.3c0,0.1-0.1,0.2-0.3,0.2l-3.4-0.1c-0.1,0-0.2-0.1-0.2-0.2c0-0.1,0.1-0.2,0.3-0.2l3.4,0.1
					C329,72,329.1,72.1,329.1,72.3"/>
				<path class="st47" d="M326.1,72.7c0.2,0.4,0.6,0.6,1,0.7c0.5,0,0.9-0.2,1.1-0.6L326.1,72.7L326.1,72.7z"/>
				<path class="st48" d="M329.4,62.8c0.2,0,0.4,0.2,0.4,0.4s-0.2,0.4-0.4,0.4s-0.4-0.2-0.4-0.4C329,63,329.2,62.8,329.4,62.8
					L329.4,62.8z"/>
				<path class="st48" d="M328.6,64c0.2,0,0.4,0.2,0.4,0.4s-0.2,0.4-0.4,0.4s-0.4-0.2-0.4-0.4S328.3,64,328.6,64L328.6,64z"/>
				<path class="st48" d="M327.2,63.3c0.2,0,0.4,0.2,0.4,0.4s-0.2,0.4-0.4,0.4s-0.4-0.2-0.4-0.4C326.8,63.5,327,63.3,327.2,63.3
					L327.2,63.3z"/>
				<path class="st48" d="M326.1,64.1c0.2,0,0.4,0.2,0.4,0.4c0,0.2-0.2,0.4-0.4,0.4s-0.4-0.2-0.4-0.4
					C325.7,64.3,325.9,64.1,326.1,64.1L326.1,64.1z"/>
				<path class="st48" d="M325.2,62.8c0.2,0,0.4,0.2,0.4,0.4s-0.2,0.4-0.4,0.4s-0.4-0.2-0.4-0.4C324.8,63,325,62.8,325.2,62.8
					L325.2,62.8z"/>
				<path class="st48" d="M327.2,60c0.7,0,1.4,0.2,2,0.6c1.3,0.8,2.1,2.4,1.7,4c-0.2,1.1-0.8,2.1-1.4,3.1c0,0.4,0,0.7,0,1.1
					c0,0.7-0.6,1.4-1.4,1.4c-0.7,0-1.3,0-2,0c-0.7,0-1.4-0.7-1.4-1.4v-1.1c0,0,0-0.1,0-0.1c-0.6-1-1.2-2.1-1.4-3.3
					c-0.3-1.7,1-3.6,2.7-4.1C326.4,60.1,326.8,60,327.2,60L327.2,60z M327.1,60.4c-0.5,0-1.1,0.1-1.6,0.4c-1.2,0.7-2,2.2-1.8,3.5
					c0,0.1,0,0.1,0,0.2c0.2,1.1,0.8,2,1.3,3c0,0,0,0,0,0.1c0,0.4,0,0.8,0,1.1c0,0.5,0.5,1,1,1c0.7,0,1.3,0,2,0c0.5,0,1-0.4,1-1
					c0-0.4,0-0.8,0-1.1c0,0,0,0,0-0.1c0.6-1,1.2-2,1.4-3.2c0.2-1.3-0.4-2.7-1.6-3.4C328.4,60.6,327.8,60.4,327.1,60.4L327.1,60.4z"
					/>
				<path class="st48" d="M328.7,67.4l-1,2.5l-0.3-0.1l1-2.4v-3h0.4C328.7,65.4,328.7,66.4,328.7,67.4L328.7,67.4z"/>
				<path class="st48" d="M326.2,64.6c0.1,0,0.1,0.1,0.2,0.2v5.1c0,0.1-0.2,0.2-0.3,0.1c0,0,0-0.1-0.1-0.1v-5.1
					C326,64.7,326.1,64.6,326.2,64.6L326.2,64.6z"/>
				<path class="st48" d="M327.2,63.7c0.1,0,0.2,0.1,0.2,0.2v3.3l1.2,0c0,0,0.2,0.1,0.2,0.2c0,0.1-0.1,0.2-0.2,0.2l-1.4-0.1
					c-0.1,0-0.2-0.1-0.2-0.2v-3.4C327,63.8,327.1,63.7,327.2,63.7L327.2,63.7z"/>
				<path class="st48" d="M325.2,63.2c0.1,0,0.1,0.1,0.2,0.2v2l0.9,0.8c0,0,0.1,0.2-0.1,0.3c-0.1,0-0.1,0-0.2,0l-0.9-0.9
					c0-0.1,0-0.1-0.1-0.1v-2.1C325,63.3,325.1,63.2,325.2,63.2C325.2,63.2,325.2,63.2,325.2,63.2L325.2,63.2z"/>
				<path class="st48" d="M329.4,63.2C329.5,63.2,329.5,63.2,329.4,63.2c0.1,0,0.2,0.1,0.2,0.2l0,2.1c0,0.1,0,0.1-0.1,0.1l-0.8,0.6
					c-0.1,0.1-0.1,0-0.1,0c-0.1,0-0.2-0.2-0.1-0.3l0.8-0.6l0-2C329.2,63.4,329.3,63.2,329.4,63.2L329.4,63.2z"/>
				<path class="st48" d="M326.1,67.6C326.2,67.6,326.2,67.6,326.1,67.6l1.8,1.2c0.1,0.1,0,0.4-0.2,0.3l-1.7-1.2
					c-0.1-0.1-0.1-0.1-0.1-0.1C326,67.7,326,67.6,326.1,67.6L326.1,67.6z"/>
			</g>
		</g>
	</g>
	<g>
		<g>
			<g>
				<ellipse class="st42" cx="512.2" cy="275" rx="23.6" ry="13.6"/>
				<rect x="488.6" y="270.1" class="st42" width="3.8" height="4.3"/>
				<rect x="532" y="270.1" class="st42" width="3.8" height="4.3"/>
				<ellipse class="st43" cx="512.2" cy="270.6" rx="23.6" ry="13.6"/>
			</g>
			<g>
				<ellipse class="st42" cx="512.2" cy="269.3" rx="18.1" ry="10.5"/>
				<rect x="494.1" y="265.5" class="st42" width="3" height="3.3"/>
				<rect x="527.4" y="265.5" class="st42" width="3" height="3.3"/>
				<ellipse class="st44" cx="512.2" cy="265.9" rx="18.1" ry="10.5"/>
			</g>
		</g>
		<g>
			<g>
				<g>

						<linearGradient id="SVGID_3_" gradientUnits="userSpaceOnUse" x1="500.58" y1="316.62" x2="522.54" y2="316.62" gradientTransform="matrix(1 0 0 -1 0 566)">
						<stop  offset="0" style="stop-color:#8C1E5B"/>
						<stop  offset="1" style="stop-color:#F494AB"/>
					</linearGradient>
					<path class="st49" d="M511.5,265.1c0,0,11-9.8,11-20.4c0-6.1-4.9-11-11-11c-6.1,0-11,4.9-11,11
						C500.6,255.3,511.5,265.1,511.5,265.1z"/>
				</g>
				<g>
					<circle class="st46" cx="511.5" cy="244.9" r="8.7"/>
				</g>
			</g>
			<path class="st50" d="M511.4,241.7c-0.6-0.1-1.1-0.6-1-1.3c0.1-0.6,0.6-1,1.2-1c0.9,0,1.6,1.3,0.8,2c-0.2,0.2-0.4,0.3-0.6,0.3
				c0,0.6,0,1.3,0,1.9c0,0,0,0.1,0,0.1c0.8,0,1.5,0.4,2.1,0.9l1.2-1.2c-0.3-0.3-0.4-0.7-0.2-1.3c0.2-0.4,0.6-0.7,1.1-0.7
				c0.9,0,1.6,1.3,0.8,2.1c-0.4,0.4-1,0.3-1.4,0.1l-1.2,1.3c0.4,0.4,0.7,1,0.8,1.6c0,0.1,0,0.3,0.1,0.5l1.8-0.5c0-0.2,0-0.5,0.1-0.8
				c0.2-0.4,0.6-0.7,1.1-0.7c0.9,0,1.6,1.3,0.8,2.1c-0.5,0.5-1.5,0.3-1.9-0.3l-2,0.5c-0.1,1.3-0.9,2.5-2.1,3
				c-1.7,0.7-3.9-0.3-4.5-2.1c-0.1-0.3-0.1-0.6-0.1-0.8l-1.9-0.5c-0.1,0.1-0.1,0.2-0.2,0.3c-0.7,0.6-2.2,0-2-1.1
				c0.1-0.5,0.6-0.9,1.2-0.9c0.7,0,1.2,0.8,1.1,1.4l1.8,0.5c0.1-0.7,0.4-1.4,0.9-2l-1.2-1.2c-0.7,0.4-2-0.1-1.8-1.2
				c0.1-0.6,0.6-1,1.2-1c0.9,0,1.5,1.2,0.9,1.9l1.1,1.2c0.5-0.5,1.3-0.8,2.1-0.9c0,0,0-0.1,0-0.1C511.4,243,511.4,242.4,511.4,241.7
				L511.4,241.7z M511.5,244.1c-1.4,0-2.6,1.1-2.9,2.4c-0.3,1.4,0.5,2.9,1.8,3.4c1.5,0.6,3.6-0.3,4-2
				C515,246.2,513.6,244.1,511.5,244.1C511.6,244.1,511.5,244.1,511.5,244.1L511.5,244.1z M511.7,248v-2.8c0-0.1,0-0.2,0.2-0.2
				c0.1,0,0.1,0.1,0.2,0.2v2.8c0.2,0,0.3,0,0.5,0v-2.2c0-0.1,0.1-0.2,0.2-0.2c0.1,0,0.2,0.1,0.2,0.2v2.2c0.2,0,0.4,0,0.7,0
				c0.3,0,0.2,0.3,0,0.3l-4.1,0c-0.3,0-0.2-0.3,0-0.3c0.2,0,0.5,0,0.7,0c0-0.5,0-1,0-1.4c0-0.1,0.1-0.2,0.2-0.2
				c0.1,0,0.1,0.1,0.2,0.2c0,0.5,0,1,0,1.4c0.1,0,0.3,0,0.4,0v-2.3c0-0.1,0.1-0.2,0.2-0.2c0.1,0,0.2,0.1,0.2,0.2v2.3
				C511.4,248,511.6,248,511.7,248L511.7,248z M505.2,245.3c-0.7,0-1.2,1.2-0.3,1.6c0.6,0.2,1.4-0.4,1.1-1.1
				C505.9,245.5,505.6,245.3,505.2,245.3L505.2,245.3z M517.9,245.3c-0.7,0-1.2,1.3-0.3,1.6c0.6,0.2,1.5-0.5,1.1-1.2
				C518.5,245.5,518.2,245.3,517.9,245.3L517.9,245.3z M507.3,241.8c-0.7,0-1.2,1.2-0.3,1.6c0.6,0.2,1.4-0.4,1.1-1.1
				C507.9,242,507.6,241.8,507.3,241.8L507.3,241.8z M515.8,241.8c-0.7,0-1.2,1.2-0.3,1.6c0.6,0.3,1.5-0.5,1.1-1.2
				C516.4,241.9,516.1,241.8,515.8,241.8L515.8,241.8z M511.6,239.8c-0.7,0-1.2,1.3-0.3,1.6c0.6,0.2,1.4-0.4,1.1-1.1
				C512.2,239.9,511.9,239.8,511.6,239.8L511.6,239.8z"/>
		</g>
	</g>
	<g>
		<g>
			<g>
				<ellipse class="st42" cx="345.8" cy="512.9" rx="23.9" ry="13.8"/>
				<rect x="321.9" y="507.9" class="st42" width="3.9" height="4.3"/>
				<rect x="365.8" y="507.9" class="st42" width="3.9" height="4.3"/>
				<ellipse class="st43" cx="345.8" cy="508.4" rx="23.9" ry="13.8"/>
			</g>
			<g>
				<ellipse class="st42" cx="345.8" cy="507.1" rx="18.3" ry="10.6"/>
				<rect x="327.5" y="503.2" class="st42" width="3" height="3.3"/>
				<rect x="361.1" y="503.2" class="st42" width="3" height="3.3"/>
				<ellipse class="st44" cx="345.8" cy="503.7" rx="18.3" ry="10.6"/>
			</g>
		</g>
		<g>
			<g>
				<g>

						<linearGradient id="SVGID_4_" gradientUnits="userSpaceOnUse" x1="333.05" y1="81.11" x2="358.53" y2="81.11" gradientTransform="matrix(1 0 0 -1 0 566)">
						<stop  offset="0" style="stop-color:#348380"/>
						<stop  offset="1" style="stop-color:#81CEC5"/>
					</linearGradient>
					<path class="st51" d="M345.8,503.1c0,0,12.8-11.4,12.8-23.7c0-7-5.7-12.7-12.7-12.7s-12.7,5.7-12.7,12.7
						C333.1,491.7,345.8,503.1,345.8,503.1z"/>
				</g>
				<g>
					<circle class="st46" cx="345.8" cy="479.7" r="10.1"/>
				</g>
			</g>
		</g>
		<g>
			<g>
				<path class="st52" d="M341.5,484.6c-0.1,0-0.1,0-0.2,0c-1.1,0-2.3-0.7-2.7-1.8c-0.4-1.1,0-2.5,1-3.2c0.5-0.3,1-0.5,1.5-0.5
					c0,0,0,0,0,0c1.3,0,2.5,1,2.7,2.4c0.1,0.5,0,0.9-0.1,1.3c0.2,0.2,0.4,0.5,0.5,0.8c0.1,0.8-0.5,1.7-1.4,1.7
					C342.2,485.4,341.7,485.1,341.5,484.6L341.5,484.6z M342.8,482.8c-0.5,0-1,0.4-1.1,0.9c-0.1,0.5,0.2,1.1,0.7,1.3
					c0.5,0.2,1.2,0,1.5-0.5c0.2-0.4,0.1-1-0.2-1.3C343.4,482.9,343.1,482.8,342.8,482.8L342.8,482.8z M343.6,483.5
					c0.1,0,0.2,0.2,0.1,0.3l-1.2,0.8c0,0,0,0,0,0c-0.1,0-0.1,0-0.2-0.1l-0.4-0.6c-0.1-0.1,0-0.1,0-0.2c0.1-0.1,0.2-0.1,0.2,0
					l0.3,0.4L343.6,483.5C343.5,483.5,343.5,483.5,343.6,483.5L343.6,483.5z M340.6,482.5c-0.5,0.2-0.9,0.8-0.9,1.4
					c0.5,0.4,1.1,0.5,1.7,0.5c0,0,0,0,0-0.1c-0.1-0.6,0.2-1.2,0.7-1.6c-0.1-0.1-0.2-0.1-0.3-0.2c0,0-0.1,0.1-0.1,0.1
					C341.3,482.7,340.9,482.6,340.6,482.5L340.6,482.5z M343.5,482.6c0.4-1.1-0.2-2.5-1.4-3c-0.8-0.4-1.8-0.2-2.5,0.3
					c-0.9,0.7-1.2,2-0.6,3c0.1,0.2,0.3,0.4,0.4,0.6c0.1-0.5,0.4-1,0.9-1.3c-0.1-0.1-0.2-0.3-0.3-0.5c-0.2-0.6,0.4-1.4,1.1-1.4
					c0,0,0,0,0,0c0.5,0,1,0.4,1.1,0.9c0.1,0.3-0.1,0.7-0.3,1c0.1,0.1,0.2,0.2,0.3,0.3c0.1,0,0.3-0.1,0.4-0.1c0,0,0,0,0,0
					C343,482.5,343.3,482.5,343.5,482.6L343.5,482.6z M341.1,480.7c-0.5,0-0.9,0.5-0.8,1c0.1,0.5,0.7,0.8,1.1,0.6
					c0.5-0.2,0.7-0.9,0.3-1.3C341.6,480.8,341.4,480.7,341.1,480.7L341.1,480.7z"/>
				<path class="st52" d="M351.2,484.6c-0.1,0-0.1,0-0.2,0c-1.1,0-2.3-0.7-2.7-1.8c-0.4-1.1,0-2.5,1-3.2c0.5-0.3,1-0.5,1.5-0.5
					c0,0,0,0,0,0c1.3,0,2.5,1,2.7,2.4c0.1,0.5,0,0.9-0.1,1.3c0.2,0.2,0.4,0.5,0.5,0.8c0.1,0.8-0.5,1.7-1.4,1.7
					C352,485.4,351.5,485.1,351.2,484.6L351.2,484.6z M352.5,482.8c-0.5,0-1,0.4-1.1,0.9c-0.1,0.5,0.2,1.1,0.7,1.3
					c0.5,0.2,1.2,0,1.5-0.5c0.2-0.4,0.1-1-0.2-1.3C353.2,482.9,352.8,482.8,352.5,482.8L352.5,482.8z M353.3,483.5
					c0.1,0,0.2,0.2,0.1,0.3l-1.2,0.8c0,0,0,0,0,0c-0.1,0-0.1,0-0.2-0.1l-0.4-0.6c-0.1-0.1,0-0.1,0-0.2c0.1-0.1,0.2-0.1,0.2,0
					l0.3,0.4L353.3,483.5C353.3,483.5,353.3,483.5,353.3,483.5L353.3,483.5z M350.3,482.5c-0.5,0.2-0.9,0.8-0.9,1.4
					c0.5,0.4,1.1,0.5,1.7,0.5c0,0,0,0,0-0.1c-0.1-0.6,0.2-1.2,0.7-1.6c-0.1-0.1-0.2-0.1-0.3-0.2c0,0-0.1,0.1-0.1,0.1
					C351,482.7,350.6,482.6,350.3,482.5L350.3,482.5z M353.2,482.6c0.4-1.1-0.2-2.5-1.4-3c-0.8-0.4-1.8-0.2-2.5,0.3
					c-0.9,0.7-1.2,2-0.6,3c0.1,0.2,0.3,0.4,0.4,0.6c0.1-0.5,0.4-1,0.9-1.3c-0.1-0.1-0.2-0.3-0.3-0.5c-0.2-0.6,0.4-1.4,1.1-1.4
					c0,0,0,0,0,0c0.5,0,1,0.4,1.1,0.9c0.1,0.3-0.1,0.7-0.3,1c0.1,0.1,0.2,0.2,0.3,0.3c0.1,0,0.3-0.1,0.4-0.1c0,0,0,0,0,0
					C352.8,482.5,353,482.5,353.2,482.6L353.2,482.6z M350.9,480.7c-0.5,0-0.9,0.5-0.8,1c0.1,0.5,0.7,0.8,1.1,0.6
					c0.5-0.2,0.7-0.9,0.3-1.3C351.4,480.8,351.1,480.7,350.9,480.7L350.9,480.7z"/>
				<path class="st52" d="M346,477.2c-0.1,0-0.1,0-0.2,0c-1.1,0-2.3-0.7-2.7-1.8c-0.4-1.1,0-2.5,1-3.2c0.5-0.3,1-0.5,1.5-0.5
					c0,0,0,0,0,0c1.3,0,2.5,1,2.7,2.4c0.1,0.5,0,0.9-0.1,1.3c0.2,0.2,0.4,0.5,0.5,0.8c0.1,0.8-0.5,1.7-1.4,1.7
					C346.8,478,346.3,477.6,346,477.2L346,477.2z M347.3,475.3c-0.5,0-1,0.4-1.1,0.9s0.2,1.1,0.7,1.3c0.5,0.2,1.2,0,1.5-0.5
					c0.2-0.4,0.1-1-0.2-1.3C348,475.5,347.6,475.3,347.3,475.3L347.3,475.3z M348.1,476.1c0.1,0,0.2,0.2,0.1,0.3l-1.2,0.8
					c0,0,0,0,0,0c-0.1,0-0.1,0-0.2-0.1l-0.4-0.6c-0.1-0.1,0-0.1,0-0.2c0.1-0.1,0.2-0.1,0.2,0l0.3,0.4L348.1,476.1
					C348.1,476,348.1,476,348.1,476.1L348.1,476.1z M345.1,475c-0.5,0.2-0.9,0.8-0.9,1.4c0.5,0.4,1.1,0.5,1.7,0.5c0,0,0,0,0-0.1
					c-0.1-0.6,0.2-1.2,0.7-1.6c-0.1-0.1-0.2-0.1-0.3-0.2c0,0-0.1,0.1-0.1,0.1C345.8,475.3,345.4,475.2,345.1,475L345.1,475z
					 M348,475.2c0.4-1.1-0.2-2.5-1.4-3c-0.8-0.4-1.8-0.2-2.5,0.3c-0.9,0.7-1.2,2-0.6,3c0.1,0.2,0.3,0.4,0.4,0.6
					c0.1-0.5,0.4-1,0.9-1.3c-0.1-0.1-0.2-0.3-0.3-0.5c-0.2-0.6,0.4-1.4,1.1-1.4c0,0,0,0,0,0c0.5,0,1,0.4,1.1,0.9
					c0.1,0.3-0.1,0.7-0.3,1c0.1,0.1,0.2,0.2,0.3,0.2c0.1,0,0.3-0.1,0.4-0.1c0,0,0,0,0,0C347.6,475,347.8,475.1,348,475.2L348,475.2z
					 M345.7,473.2c-0.5,0-0.9,0.5-0.8,1c0.1,0.5,0.7,0.8,1.1,0.6c0.5-0.2,0.7-0.9,0.3-1.3C346.2,473.4,345.9,473.2,345.7,473.2
					L345.7,473.2z"/>
				<path class="st52" d="M349.2,475.8c0.1,0,0.1,0,0.1,0.1c0.8,0.7,1.3,1.6,1.6,2.6c0,0.1,0,0.1,0,0.1c0,0.1-0.2,0.1-0.3,0
					c-0.2-1-0.8-1.9-1.5-2.5c0,0-0.1-0.1,0-0.2C349.1,475.9,349.1,475.8,349.2,475.8C349.2,475.8,349.2,475.8,349.2,475.8
					L349.2,475.8z"/>
				<path class="st52" d="M348.5,483.6c0.1,0,0.1,0,0.1,0.1c0.1,0.2-0.2,0.3-0.5,0.4c-1.1,0.5-2.4,0.6-3.5,0.3c-0.1,0-0.2,0-0.2-0.1
					c0-0.1,0.1-0.2,0.3-0.2c1.2,0.4,2.5,0.2,3.6-0.4L348.5,483.6C348.5,483.6,348.5,483.6,348.5,483.6L348.5,483.6z"/>
				<path class="st52" d="M342.8,476C342.8,476,342.8,476,342.8,476c0.2,0.1,0.2,0.2,0.1,0.3c-0.6,0.6-1.1,1.4-1.3,2.3
					c0,0,0,0,0,0.1c-0.1,0.1-0.3,0-0.3-0.1c0.2-1,0.7-1.8,1.4-2.5C342.6,476.1,342.7,476,342.8,476L342.8,476z"/>
			</g>
		</g>
	</g>
	<g>
		<g>
			<g>
				<ellipse class="st42" cx="64.2" cy="535.1" rx="26" ry="15"/>
				<rect x="38.2" y="529.7" class="st42" width="4.2" height="4.7"/>
				<rect x="86" y="529.7" class="st42" width="4.2" height="4.7"/>
				<ellipse class="st43" cx="64.2" cy="530.3" rx="26" ry="15"/>
			</g>
			<g>
				<ellipse class="st42" cx="64.2" cy="528.8" rx="20" ry="11.5"/>
				<rect x="44.2" y="524.6" class="st42" width="3.2" height="3.6"/>
				<rect x="80.9" y="524.6" class="st42" width="3.2" height="3.6"/>
				<ellipse class="st44" cx="64.2" cy="525.1" rx="20" ry="11.5"/>
			</g>
		</g>
		<g>
			<g>
				<g>

						<linearGradient id="SVGID_5_" gradientUnits="userSpaceOnUse" x1="49.54" y1="59.895" x2="78.84" y2="59.895" gradientTransform="matrix(1 0 0 -1 0 566)">
						<stop  offset="0" style="stop-color:#3F9745"/>
						<stop  offset="1" style="stop-color:#B8D436"/>
					</linearGradient>
					<path class="st53" d="M64.2,527c0,0,14.7-13.1,14.7-27.2c0-8.1-6.6-14.6-14.7-14.6s-14.7,6.6-14.7,14.6
						C49.5,513.9,64.2,527,64.2,527z"/>
				</g>
				<g>
					<circle class="st46" cx="64.2" cy="500.1" r="11.6"/>
				</g>
			</g>
		</g>
		<g>
			<g>
				<g>
					<path class="st54" d="M63.3,492.3c1.3,0,2.6,0.9,3.1,2.2c0,0,0,0,0.1,0c1.1-0.2,2.3,0.3,3,1.2c0.3,0.4,0.5,0.8,0.7,1.3
						c0,0,0.2,0,0.4,0.1c0.8,0.3,1.3,1,1.5,1.9c0.1,0.4,0.1,0.8-0.1,1.2l0,0.1l-0.1,0l-0.1,0h-3.1l-0.1,0c0,0,0,0-0.1,0
						c-0.1,0,0-0.1-0.1-0.1l0-0.1c0,0,0,0,0-0.1c0,0,0.1,0,0.1,0h3c0.2-0.8-0.2-1.8-0.8-2.3c-0.3-0.2-0.6-0.3-0.9-0.4
						c0,0-0.1,0-0.1-0.1c0,0,0-0.1-0.1-0.1c-0.3-1.2-1.5-2.2-2.8-2.2c-0.2,0-0.4,0-0.6,0.1h-0.1c0,0-0.1,0-0.1-0.1
						c-0.1-0.1-0.1-0.1-0.1-0.2c-0.5-1.3-2-2.1-3.4-1.8c-1,0.2-1.9,1-2.2,2l0,0.1c0,0-0.1,0.1-0.1,0.1c0,0-0.1,0-0.1,0
						c-0.6-0.1-1.3,0-1.8,0.3c-1,0.5-1.7,1.6-1.7,2.7c0,0.8,0.3,1.5,0.7,2.1h3c0.1,0,0.1,0,0.2,0.1c0,0,0,0,0,0.1l0,0.1
						c0,0,0,0.1-0.1,0.1c0,0,0,0-0.1,0h-3.1l-0.1,0l-0.1,0c0,0,0-0.1,0,0c0,0-0.1-0.1-0.2-0.3c-0.7-1.2-0.9-2.7,0.1-4
						c0.6-0.8,1.6-1.4,2.7-1.4c0.2,0,0.3,0,0.5,0C60.6,493.2,61.9,492.3,63.3,492.3C63.3,492.3,63.3,492.3,63.3,492.3L63.3,492.3z
						 M57.1,499.9c0,0,0,0.1,0,0.1L57.1,499.9C57.1,500,57.1,499.9,57.1,499.9L57.1,499.9z"/>
					<path class="st54" d="M68.9,504.9h-0.3l-0.1-4.8h0.3C68.9,501.6,68.9,503.2,68.9,504.9L68.9,504.9z"/>
					<path class="st54" d="M60.5,505.4h-0.3l0-5.3h0.3C60.5,501.8,60.5,503.6,60.5,505.4L60.5,505.4z"/>
					<path class="st54" d="M64.2,502.5c0.4,0,0.8,0.4,0.9,0.8c0,0.4-0.2,0.8-0.5,0.9c-0.4,0.2-1,0-1.2-0.4c-0.2-0.3-0.1-0.8,0.2-1
						C63.7,502.6,64,502.5,64.2,502.5L64.2,502.5z M64.2,502.8c-0.4,0-0.8,0.5-0.5,0.9c0.1,0.3,0.5,0.4,0.8,0.3
						c0.3-0.1,0.5-0.5,0.3-0.9C64.6,502.9,64.4,502.8,64.2,502.8C64.2,502.8,64.2,502.8,64.2,502.8L64.2,502.8z"/>
					<path class="st54" d="M68.7,504.7c0.4,0,0.8,0.4,0.9,0.8c0,0.4-0.2,0.8-0.5,0.9c-0.4,0.2-1,0-1.2-0.4c-0.2-0.4,0-1,0.4-1.2
						C68.5,504.7,68.6,504.7,68.7,504.7L68.7,504.7z M68.7,505c-0.4,0-0.7,0.4-0.6,0.8c0.1,0.4,0.5,0.6,0.8,0.4
						c0.3-0.1,0.5-0.6,0.3-0.9C69.2,505.1,69,505,68.7,505C68.7,505,68.7,505,68.7,505L68.7,505z"/>
					<path class="st54" d="M66.5,505.3c0.4,0,0.8,0.3,0.9,0.7c0.1,0.4-0.2,0.8-0.5,1c-0.4,0.2-1,0-1.2-0.4c-0.2-0.4,0-1,0.4-1.2
						C66.2,505.3,66.3,505.3,66.5,505.3L66.5,505.3z M66.4,505.5c-0.3,0-0.7,0.3-0.6,0.7c0,0.3,0.3,0.5,0.6,0.5
						c0.4,0,0.8-0.5,0.6-0.9C66.9,505.7,66.7,505.5,66.4,505.5C66.5,505.5,66.4,505.5,66.4,505.5L66.4,505.5z"/>
					<path class="st54" d="M64,506.1c0.4,0,0.8,0.3,0.9,0.7s-0.2,0.9-0.5,1c-0.5,0.2-1.1-0.1-1.2-0.6C63,506.7,63.4,506.1,64,506.1
						C63.9,506.1,63.9,506.1,64,506.1L64,506.1z M63.9,506.4c-0.3,0-0.7,0.4-0.6,0.7c0,0.3,0.3,0.5,0.6,0.5c0.3,0,0.6-0.3,0.6-0.7
						C64.5,506.6,64.3,506.4,63.9,506.4C64,506.4,64,506.4,63.9,506.4L63.9,506.4z"/>
					<path class="st54" d="M60.4,505.2c0.4,0,0.8,0.3,0.9,0.7c0.1,0.4-0.2,0.9-0.5,1c-0.5,0.2-1.1-0.1-1.2-0.6
						C59.4,505.8,59.8,505.2,60.4,505.2C60.4,505.2,60.4,505.2,60.4,505.2L60.4,505.2z M60.4,505.5c-0.3,0-0.7,0.4-0.6,0.7
						c0,0.3,0.3,0.5,0.6,0.5c0.3,0,0.7-0.3,0.6-0.7C61,505.7,60.7,505.5,60.4,505.5C60.4,505.5,60.4,505.5,60.4,505.5L60.4,505.5z"
						/>
					<path class="st54" d="M64.2,497c0.1,0,0.1,0.1,0.1,0.1v5.4c0,0.1-0.2,0.2-0.2,0.1c0,0,0,0-0.1-0.1v-5.4
						C64.1,497.1,64.2,497,64.2,497L64.2,497z"/>
					<path class="st54" d="M62,498.2C62,498.2,62.1,498.2,62,498.2c0.1,0.1,0.1,0.1,0.1,0.1v5.4c0,0.2-0.1,0.1-0.2,0.1
						c-0.1,0-0.1-0.1-0.1-0.1v-5.4C61.8,498.3,61.9,498.2,62,498.2L62,498.2z"/>
					<path class="st54" d="M66.5,499.8c0.1,0,0.1,0,0.1,0.1c0,0,0,0,0,0v5.4c0,0.1-0.2,0.2-0.2,0.1c0,0,0,0-0.1-0.1v-5.4
						C66.3,499.9,66.4,499.8,66.5,499.8L66.5,499.8z"/>
					<path class="st54" d="M63.7,506.3l-0.2,0.1l-1.6-2.6l0.2-0.1C62.6,504.6,63.2,505.4,63.7,506.3L63.7,506.3z"/>
				</g>
			</g>
		</g>
	</g>
	<g>
		<g>
			<g>
				<ellipse class="st42" cx="256.1" cy="417.1" rx="26" ry="15"/>
				<rect x="230.1" y="411.6" class="st42" width="4.2" height="4.7"/>
				<rect x="278" y="411.6" class="st42" width="4.2" height="4.7"/>
				<ellipse class="st43" cx="256.1" cy="412.2" rx="26" ry="15"/>
			</g>
			<g>
				<ellipse class="st42" cx="256.1" cy="410.8" rx="20" ry="11.5"/>
				<rect x="236.2" y="406.6" class="st42" width="3.2" height="3.6"/>
				<rect x="272.9" y="406.6" class="st42" width="3.2" height="3.6"/>
				<ellipse class="st44" cx="256.1" cy="407" rx="20" ry="11.5"/>
			</g>
		</g>
		<g>
			<g>
				<g>

						<linearGradient id="SVGID_6_" gradientUnits="userSpaceOnUse" x1="244.3" y1="176.945" x2="268" y2="176.945" gradientTransform="matrix(1 0 0 -1 0 566)">
						<stop  offset="0" style="stop-color:#1D4C99"/>
						<stop  offset="1" style="stop-color:#32A4DD"/>
					</linearGradient>
					<path class="st55" d="M256.1,406c0,0,11.9-10.6,11.9-22c0-6.5-5.3-11.9-11.9-11.9s-11.9,5.3-11.9,11.9
						C244.3,395.4,256.1,406,256.1,406z"/>
				</g>
				<g>
					<circle class="st46" cx="256.1" cy="384.2" r="9.4"/>
				</g>
			</g>
		</g>
		<g>
			<g>
				<path class="st56" d="M253.9,379.2c0.1,0,0.1,0,0.2,0.1l0,0l1.1,1.3c0.8-0.5,1.5-1,2.2-1.5l-0.3-0.4c0,0,0-0.1,0-0.1
					c0,0,0.1-0.1,0.1-0.1l1.7-0.2h0c0,0,0.1,0,0.1,0.1c0,0,0,0.1,0,0.1l0,0l-0.6,1.5l0,0c0,0-0.1,0-0.1,0c0,0-0.1,0-0.1-0.1
					l-0.4-0.5c-0.7,0.5-1.5,1-2.2,1.5l-0.3,0.2c-0.1,0-0.1,0.1-0.2,0c-0.1,0-0.1,0-0.2-0.1l0,0l-1.1-1.3c-0.5,0.4-1.1,0.7-1.6,1.1
					l-2.6,1.7c-0.1,0-0.1,0-0.1,0c-0.1,0-0.2,0-0.3-0.1l0,0l0,0c-0.1-0.1,0-0.2,0-0.3l0,0l0,0c1.1-0.8,2.3-1.5,3.4-2.3l1-0.7
					C253.8,379.2,253.9,379.2,253.9,379.2L253.9,379.2z"/>
				<g>
					<path class="st57" d="M252.2,381.9L252.2,381.9c0-0.1,0-0.1-0.1-0.1l-0.1,0l-0.1,0l0,0c-0.1,0-0.1,0-0.1,0.1l0,0.1v5.4h-2.1
						v-3.9l0,0l0-0.1l-0.1,0l-0.1,0l-0.1,0l0,0c-0.1,0-0.1,0-0.1,0.1l0,0.1v4.1l0,0l0,0c0,0,0,0.1,0.1,0.1l0.1,0h2.5l0.1,0l0,0
						c0.1,0,0.1,0,0.1-0.1l0-0.1L252.2,381.9L252.2,381.9z"/>
					<path class="st57" d="M255.5,382L255.5,382l-0.1-0.1l-0.1,0l-0.1,0l0,0c-0.1,0-0.1,0-0.1,0.1l0,0.1v5.3H253v-5.8l0,0l0,0
						c0,0,0-0.1-0.1-0.1l0,0c0,0,0,0-0.1,0h0l-0.1,0l0,0c-0.1,0-0.1,0-0.1,0.1l0,0.1v6l0,0l0,0c0,0,0,0,0.1,0.1l0.1,0h2.5l0.1,0l0,0
						c0.1,0,0.1,0,0.1-0.1l0-0.1L255.5,382L255.5,382z"/>
					<path class="st57" d="M258.8,380.7L258.8,380.7L258.8,380.7c-0.1-0.1-0.1-0.1-0.1-0.2l0,0l0,0l0,0c0,0,0,0-0.1,0h0l-0.1,0l0,0
						c0,0-0.1,0-0.1,0.1l0,0.1v6.7h-2.1v-5.7l0,0l0-0.1l-0.1,0l-0.1,0l-0.1,0l0,0c-0.1,0-0.1,0-0.1,0.1l0,0.1v5.9l0,0l0,0
						c0,0,0,0.1,0.1,0.1l0.1,0h2.5l0,0l0,0c0,0,0.1,0,0.1-0.1l0-0.1L258.8,380.7z"/>
				</g>
				<path class="st56" d="M259.3,380.3c0.2,0,0.3,0,0.5,0l0.2,0.6c0.3,0.1,0.6,0.2,0.9,0.3l0.5-0.3c0.3,0.2,0.5,0.4,0.7,0.6
					l-0.2,0.5c0.2,0.2,0.4,0.5,0.5,0.8l0.6,0.1c0.1,0.3,0.1,0.6,0.2,1l-0.5,0.3c0,0.3-0.1,0.6-0.2,0.9l0.4,0.4
					c-0.1,0.3-0.3,0.6-0.5,0.8l-0.6-0.1c-0.2,0.2-0.5,0.4-0.7,0.6l0,0.6c-0.3,0.1-0.6,0.3-0.9,0.3l-0.4-0.5c-0.2,0-0.3,0-0.5,0v-1.5
					c1,0,1.7-0.8,1.7-1.7s-0.8-1.7-1.7-1.7L259.3,380.3L259.3,380.3z"/>
			</g>
		</g>
	</g>
	<g>
		<g>
			<g>
				<ellipse class="st42" cx="427.9" cy="163" rx="22.8" ry="13.1"/>
				<rect x="405.1" y="158.2" class="st42" width="3.7" height="4.1"/>
				<rect x="446.9" y="158.2" class="st42" width="3.7" height="4.1"/>
				<ellipse class="st43" cx="427.9" cy="158.8" rx="22.8" ry="13.1"/>
			</g>
			<g>
				<ellipse class="st42" cx="427.9" cy="157.5" rx="17.5" ry="10.1"/>
				<rect x="410.4" y="153.8" class="st42" width="2.8" height="3.2"/>
				<rect x="442.5" y="153.8" class="st42" width="2.8" height="3.2"/>
				<ellipse class="st44" cx="427.9" cy="154.2" rx="17.5" ry="10.1"/>
			</g>
		</g>
		<g>
			<g>
				<g>

						<linearGradient id="SVGID_7_" gradientUnits="userSpaceOnUse" x1="417.64" y1="430.66" x2="437.5" y2="430.66" gradientTransform="matrix(1 0 0 -1 0 566)">
						<stop  offset="0" style="stop-color:#F16A25"/>
						<stop  offset="1" style="stop-color:#F5A820"/>
					</linearGradient>
					<path class="st58" d="M427.6,149.5c0,0,9.9-8.9,9.9-18.5c0-5.5-4.5-9.9-9.9-9.9c-5.5,0-9.9,4.4-9.9,9.9
						C417.6,140.7,427.6,149.5,427.6,149.5z"/>
				</g>
				<g>
					<circle class="st46" cx="427.6" cy="131.3" r="7.9"/>
				</g>
			</g>
		</g>
		<g>
			<g>
				<g>
					<path class="st59" d="M423.6,129.2L423.6,129.2c0,0,0.1,0,0.1,0c0,0,0,0,0-0.1c0.6-1.1,1.7-2,2.9-2.2c1.2-0.3,2.4-0.1,3.4,0.6
						c0.4,0.3,0.8,0.6,1.1,1l-0.5-0.1c-0.1,0-0.2,0-0.2,0.1c0,0.1,0,0.2,0.1,0.2c0,0,0,0,0.1,0l1,0.1c0.1,0,0.2,0,0.2-0.1
						c0,0,0,0,0-0.1l0.1-0.9c0-0.1,0-0.1-0.1-0.2c0,0,0,0-0.1,0c-0.1,0-0.2,0.1-0.2,0.2l0,0.4c-0.8-0.9-1.9-1.6-3.1-1.8
						c-0.5-0.1-1-0.1-1.5,0c-1.5,0.2-2.8,1.2-3.5,2.5c0,0,0,0.1,0,0.1c0,0.1,0,0.1,0,0.1L423.6,129.2L423.6,129.2z M423.7,129.1
						L423.7,129.1L423.7,129.1L423.7,129.1z"/>
					<path class="st59" d="M432,132.7L432,132.7l-0.1-0.1h0c0,0-0.1,0-0.1,0c0,0,0,0,0,0.1c-0.6,1.1-1.7,2-2.9,2.2
						c-1.2,0.3-2.4,0.1-3.4-0.6c-0.4-0.3-0.8-0.6-1.1-1l0.5,0.1c0.1,0,0.2,0,0.2-0.1s0-0.2-0.1-0.2c0,0,0,0-0.1,0l-1-0.1
						c-0.1,0-0.2,0-0.2,0.1c0,0,0,0,0,0.1l-0.1,0.9c0,0.1,0,0.1,0.1,0.2c0,0,0,0,0.1,0c0.1,0,0.2-0.1,0.2-0.2l0-0.4
						c0.8,0.9,1.9,1.6,3.1,1.8c0.2,0,0.5,0.1,0.7,0.1c0.3,0,0.5,0,0.8-0.1c1.5-0.2,2.8-1.1,3.5-2.5c0,0,0-0.1,0-0.1
						C432,132.7,432,132.7,432,132.7z M431.8,132.7L431.8,132.7L431.8,132.7L431.8,132.7z"/>
				</g>
				<path class="st60" d="M429.3,128.5c0.1,0,0.1,0,0.1,0.1s0,0,0.1,0.1c0.1,0.1,0.3,0.3,0.4,0.4c0.1,0.1,0.1,0.2,0.1,0.3l-0.3,0.4
					c0.1,0.1,0.1,0.2,0.1,0.2c0,0.1,0.1,0.2,0.1,0.3l0.5,0.1c0.1,0,0.1,0.1,0.1,0.2c0,0.2,0,0.5,0,0.7c0,0.1-0.1,0.1-0.1,0.2
					l-0.5,0.1c0,0.2,0,0.2-0.1,0.2c0,0.1-0.1,0.2-0.1,0.3l0.3,0.4c0,0.1,0,0.2-0.1,0.3c-0.1,0.2-0.3,0.4-0.5,0.5
					c-0.1,0.1-0.1,0.1-0.2,0l-0.4-0.3c-0.1,0.1-0.2,0.1-0.2,0.1c-0.1,0-0.2,0.1-0.3,0.1l-0.1,0.4c0,0.1-0.1,0.1-0.2,0.1
					c-0.2,0-0.5,0-0.7,0c-0.1,0-0.1-0.1-0.2-0.1L427,133c-0.2,0-0.2-0.1-0.2-0.1c-0.1,0-0.2-0.1-0.3-0.1l-0.4,0.3
					c-0.1,0.1-0.2,0-0.3-0.1c-0.2-0.1-0.4-0.3-0.5-0.5c0-0.1-0.1-0.1,0-0.2l0.3-0.4c-0.1-0.1-0.1-0.2-0.1-0.2c0-0.1-0.1-0.2-0.1-0.3
					l-0.5-0.1c-0.1,0-0.1-0.1-0.1-0.2c0-0.2,0-0.5,0-0.7c0-0.1,0.1-0.1,0.1-0.2l0.5-0.1c0-0.2,0-0.2,0.1-0.2c0-0.1,0.1-0.2,0.1-0.3
					l-0.3-0.4c0-0.1,0-0.2,0.1-0.3c0.1-0.2,0.3-0.4,0.5-0.5c0.1-0.1,0.1-0.1,0.2,0l0.4,0.3c0.1-0.1,0.2-0.1,0.2-0.1
					c0.1,0,0.2-0.1,0.3-0.1l0.1-0.4c0-0.1,0.1-0.1,0.2-0.1c0.2,0,0.5,0,0.7,0c0.1,0,0.1,0.1,0.2,0.1l0.1,0.4c0.2,0,0.2,0.1,0.2,0.1
					c0.1,0,0.2,0.1,0.3,0.1l0.4-0.3C429.2,128.4,429.3,128.5,429.3,128.5L429.3,128.5z M427.6,128.2c-0.1,0-0.2,0-0.2,0l-0.1,0.4
					c0,0.1-0.1,0.1-0.2,0.1c-0.2,0.1-0.4,0.1-0.5,0.2c0,0-0.1,0.1-0.2,0l-0.4-0.2c-0.1,0.1-0.2,0.2-0.4,0.4l0.3,0.4
					c0,0.1,0,0.1,0,0.2c-0.1,0.2-0.2,0.4-0.2,0.5c0,0,0,0.1-0.1,0.1l-0.4,0.1c0,0.2,0,0.3,0,0.5l0.5,0.1c0.1,0,0.1,0.1,0.1,0.2
					c0,0.2,0.1,0.4,0.2,0.5c0,0,0,0.1,0,0.2l-0.2,0.4c0.1,0.1,0.2,0.2,0.4,0.4l0.4-0.3c0.1-0.1,0.1,0,0.2,0.1
					c0.2,0.1,0.4,0.2,0.5,0.2c0,0,0.1,0,0.1,0.1l0.1,0.4c0.2,0,0.3,0,0.5,0l0.1-0.4c0-0.1,0.1-0.1,0.2-0.1c0.2-0.1,0.4-0.1,0.5-0.2
					c0,0,0.1-0.1,0.2,0l0.4,0.2c0.1-0.1,0.2-0.2,0.4-0.4l-0.3-0.4c-0.1-0.1,0-0.1,0.1-0.3c0.1-0.1,0.1-0.3,0.2-0.5
					c0,0,0-0.1,0.1-0.1l0.4-0.1c0-0.2,0-0.3,0-0.5l-0.5-0.1c-0.1,0-0.1-0.1-0.1-0.2c0-0.2-0.1-0.4-0.2-0.5c0,0,0-0.1,0-0.2l0.2-0.4
					c-0.1-0.1-0.2-0.2-0.4-0.4l-0.4,0.3c-0.1,0.1-0.1,0-0.2-0.1c-0.2-0.1-0.4-0.2-0.5-0.2c0,0-0.1,0-0.1-0.1l-0.1-0.4
					C427.8,128.2,427.8,128.2,427.6,128.2C427.7,128.2,427.7,128.2,427.6,128.2L427.6,128.2z M427.7,129.5c0.8,0,1.4,0.8,1.3,1.5
					c-0.1,0.6-0.7,1.1-1.3,1.1c-0.8,0-1.5-0.8-1.3-1.6C426.5,130,427,129.5,427.7,129.5C427.7,129.5,427.7,129.5,427.7,129.5
					L427.7,129.5z M427.6,129.8c-0.7,0-1.2,0.8-0.9,1.4c0.3,0.6,1.1,0.7,1.6,0.3C428.9,131,428.6,129.8,427.6,129.8
					C427.7,129.8,427.7,129.8,427.6,129.8L427.6,129.8z"/>
				<path class="st60" d="M433.4,129.5C433.4,129.5,433.4,129.5,433.4,129.5c0.2,0.2,0.4,0.4,0.4,0.5l-0.1,0.2
					c0,0.1,0.1,0.2,0.1,0.2l0.2,0c0.2,0.1,0.2,0.6,0,0.6l-0.2,0c0,0.1-0.1,0.2-0.1,0.2l0.1,0.2c0.1,0.1-0.1,0.3-0.3,0.4
					c0,0-0.1,0.1-0.2,0l-0.2-0.1c0,0,0,0,0,0c-0.1,0-0.1,0.1-0.2,0.1l0,0.2c0,0.1-0.3,0.1-0.5,0.1c0,0-0.1,0-0.1-0.1l0-0.2
					c-0.1,0-0.2-0.1-0.2-0.1l-0.2,0.1c-0.2,0.1-0.6-0.3-0.5-0.5l0.1-0.2c0-0.1-0.1-0.2-0.1-0.2l-0.2,0c-0.2-0.1-0.2-0.6,0-0.6l0.2,0
					c0,0,0-0.1,0-0.1c0-0.1,0-0.1,0.1-0.2l-0.1-0.2c-0.1-0.2,0.3-0.6,0.5-0.5l0.2,0.1c0,0,0,0,0,0c0.1,0,0.1-0.1,0.2-0.1l0-0.2
					c0-0.1,0.3-0.1,0.5-0.1c0,0,0.1,0,0.1,0.1l0,0.2c0.1,0,0.2,0.1,0.2,0.1l0.2-0.1C433.4,129.5,433.4,129.5,433.4,129.5
					L433.4,129.5z M432.5,129.4C432.5,129.4,432.4,129.4,432.5,129.4l-0.1,0.2c0,0.1-0.2,0.1-0.4,0.2c0,0-0.1,0-0.1,0l-0.2-0.1
					c0,0-0.1,0.1-0.1,0.1l0.1,0.2c0.1,0.1-0.1,0.2-0.1,0.4c0,0,0,0.1-0.1,0.1l-0.2,0c0,0.1,0,0.1,0,0.2l0.2,0c0.1,0,0.1,0.2,0.2,0.4
					c0,0,0,0.1,0,0.1l-0.1,0.2c0,0.1,0.1,0.1,0.1,0.1l0.2-0.1c0.1-0.1,0.2,0.1,0.4,0.1c0,0,0.1,0,0.1,0.1l0,0.2c0.1,0,0.2,0,0.2,0
					l0-0.2c0.1-0.2,0.2-0.1,0.4-0.2c0,0,0.1,0,0.1,0l0.2,0.1c0,0,0.1-0.1,0.1-0.1l-0.1-0.2c-0.1-0.1,0.1-0.2,0.1-0.4
					c0,0,0-0.1,0.1-0.1l0.2,0c0-0.1,0-0.1,0-0.2l-0.2,0c-0.1,0-0.1-0.2-0.2-0.4c0,0,0-0.1,0-0.1l0.1-0.2c0-0.1-0.1-0.1-0.1-0.1
					l-0.2,0.1c-0.1,0.1-0.2-0.1-0.4-0.1c0,0-0.1,0-0.1-0.1l0-0.2C432.6,129.4,432.6,129.4,432.5,129.4L432.5,129.4z M432.5,130
					c0.6,0,1,0.8,0.5,1.3c-0.4,0.4-1.1,0.2-1.2-0.4C431.7,130.5,432.1,130,432.5,130L432.5,130z M432.5,130.2
					c-0.4,0-0.7,0.7-0.2,0.9c0.2,0.1,0.6-0.1,0.6-0.3C433.1,130.6,432.9,130.3,432.5,130.2C432.5,130.2,432.5,130.2,432.5,130.2
					L432.5,130.2z"/>
				<path class="st60" d="M423.6,129.7c0.1,0,0.2,0.2,0.4,0.3c0,0,0.1,0.1,0,0.2l-0.1,0.2c0,0,0,0,0,0c0,0.1,0.1,0.1,0.1,0.2l0.2,0
					c0.2,0,0.2,0.4,0.1,0.6c0,0,0,0.1-0.1,0.1l-0.2,0c0,0,0,0,0,0c0,0.1-0.1,0.2-0.1,0.2l0.1,0.2c0.1,0.1-0.1,0.3-0.3,0.4
					c0,0-0.1,0.1-0.2,0l-0.2-0.1c0,0,0,0,0,0c-0.1,0-0.1,0.1-0.2,0.1l0,0.2c0,0.2-0.6,0.2-0.7,0l0-0.2c0,0,0,0,0,0
					c-0.1,0-0.2-0.1-0.2-0.1l-0.2,0.1c-0.2,0.1-0.6-0.3-0.5-0.5l0.1-0.2c0,0,0,0,0,0c0-0.1-0.1-0.1-0.1-0.2l-0.2,0
					c-0.2,0-0.1-0.3-0.1-0.5c0,0,0-0.1,0.1-0.1l0.2,0c0,0,0,0,0,0c0-0.1,0-0.1,0.1-0.2l-0.1-0.2c-0.1-0.2,0.3-0.6,0.5-0.5l0.2,0.1
					c0,0,0,0,0,0c0.1,0,0.1-0.1,0.2-0.1l0-0.2c0-0.2,0.3-0.1,0.5-0.1c0,0,0.1,0,0.1,0.1l0,0.2c0,0,0,0,0,0c0.1,0,0.2,0.1,0.2,0.1
					L423.6,129.7C423.6,129.7,423.6,129.7,423.6,129.7L423.6,129.7z M422.8,129.7C422.7,129.7,422.7,129.7,422.8,129.7l-0.1,0.2
					c0,0.1-0.2,0.1-0.4,0.2c0,0-0.1,0-0.1,0l-0.2-0.1c-0.1,0.1-0.1,0.1-0.1,0.1l0.1,0.2c0.1,0.1-0.1,0.2-0.1,0.4c0,0,0,0.1-0.1,0.1
					l-0.2,0c0,0.1,0,0.2,0,0.2l0.2,0c0.1,0,0.1,0.2,0.2,0.4c0,0,0,0.1,0,0.1l-0.1,0.2c0,0.1,0.1,0.1,0.1,0.1l0.2-0.1
					c0.1-0.1,0.2,0.1,0.4,0.1c0,0,0.1,0,0.1,0.1l0,0.2c0.1,0,0.2,0,0.2,0l0-0.2c0-0.1,0.2-0.1,0.4-0.2c0,0,0.1,0,0.1,0l0.2,0.1
					c0.1-0.1,0.1-0.1,0.1-0.1l-0.1-0.2c-0.1-0.1,0.1-0.2,0.1-0.4c0,0,0-0.1,0.1-0.1l0.2,0c0-0.1,0-0.2,0-0.2l-0.2,0
					c-0.1,0-0.1-0.2-0.2-0.4c0,0,0-0.1,0-0.1l0.1-0.2c0-0.1-0.1-0.1-0.1-0.1l-0.2,0.1c-0.1,0.1-0.2-0.1-0.4-0.1c0,0-0.1,0-0.1-0.1
					l0-0.2C422.9,129.7,422.8,129.7,422.8,129.7C422.8,129.7,422.8,129.7,422.8,129.7L422.8,129.7z M422.8,130.2
					c0.6,0,1,0.9,0.5,1.3c-0.4,0.3-1.1,0.2-1.2-0.4C422,130.7,422.3,130.2,422.8,130.2L422.8,130.2z M422.8,130.5
					c-0.4,0-0.7,0.7-0.2,0.9c0.2,0.1,0.6-0.1,0.6-0.3C423.3,130.8,423.1,130.5,422.8,130.5C422.8,130.5,422.8,130.5,422.8,130.5
					L422.8,130.5z"/>
			</g>
		</g>
	</g>
</g>
</svg>
