<?xml version="1.0" encoding="utf-8"?>
<!-- Generator: Adobe Illustrator 24.0.0, SVG Export Plug-In . SVG Version: 6.00 Build 0)  -->
<svg version="1.1" id="Layer_1" xmlns="http://www.w3.org/2000/svg" xmlns:xlink="http://www.w3.org/1999/xlink" x="0px" y="0px"
	 viewBox="0 0 312.32 89.58" style="enable-background:new 0 0 312.32 89.58;" xml:space="preserve">
<style type="text/css">
	.st0{fill:#414042;}
	.st1{fill:#ED1B34;}
</style>
<g>
	<g>
		<g>
			<g>
				<g>
					<g>
						<g>
							<path class="st0" d="M240.76,1.05c0,0,0,17.03,0,16.9h22.62c0,0.06-0.02-16.9,0-16.9c-0.02,0,11.08,0,11.2,0
								c0,0,0.04,42.23,0,42.27c-0.01,0-11.18,0-11.2,0c0,0,0-18.55,0-18.6c0,0.06-22.62,0-22.62,0c0.02,0.07,0,18.61,0,18.6h-11.2
								c0,0,0.07-42.27,0-42.27H240.76z"/>
							<path class="st0" d="M134.5,1.05c0,0.12,0,7.19,0,7.19h-17.12v35.08h-11.2V8.24H89.08c0,0,0.02-7.19,0-7.19
								C89.1,1.05,134.5,1.05,134.5,1.05z"/>
							<path class="st0" d="M178.03,43.32c0.03,0-12.55,0-12.46,0c0.02,0-3.67-9.09-3.67-9.09h-20.98c0,0-3.6,9.1-3.67,9.09
								c0.01,0.01-12.46,0-12.46,0l19.75-42.27c0,0.03,13.73,0,13.73,0L178.03,43.32z M151.4,8.24l-7.79,19.22h15.59L151.4,8.24"/>
							<rect x="283.44" y="1.05" class="st0" width="11.2" height="42.27"/>
							<path class="st0" d="M31.19,1.05c0,0-0.01,17.03,0,16.9h22.6c0,0.06-0.01-16.9,0-16.9c-0.01,0,11.08,0,11.2,0
								c0,0,0.03,42.23,0,42.27c-0.01,0-11.19,0-11.2,0c0,0,0-18.55,0-18.6c0,0.06-22.6,0-22.6,0c0,0.07-0.01,18.61,0,18.6h-11.2
								c0,0,0.06-42.27,0-42.27H31.19z"/>
							<rect x="73.88" y="1.05" class="st0" width="11.19" height="42.27"/>
							<path class="st0" d="M177.62,31.6c-0.98-2.84-1.51-5.83-1.51-9c0-4.44,0.79-8.74,2.92-12.31c2.19-3.68,5.55-6.53,9.61-8.05
								C192.52,0.8,196.67,0,201.05,0c5.03,0,9.79,1.1,14.13,2.98c4.04,1.73,7.09,5.38,7.99,9.77c0.18,0.87,0.33,1.77,0.4,2.67
								h-11.75c-0.04-1.12-0.23-2.24-0.62-3.25c-0.89-2.34-2.83-4.15-5.25-4.88c-1.55-0.48-3.2-0.73-4.9-0.73
								c-1.95,0-3.82,0.34-5.54,0.96c-2.87,1-5.11,3.33-6.11,6.2c-0.98,2.78-1.54,5.79-1.54,8.9c0,2.57,0.42,5.06,1.08,7.42
								c0.84,3.09,3.16,5.55,6.11,6.67c1.88,0.7,3.89,1.12,6.01,1.12c1.81,0,3.54-0.28,5.18-0.81c2.18-0.69,3.97-2.31,4.89-4.39
								c0.62-1.39,0.92-2.92,0.92-4.54h11.79c-0.07,1.37-0.25,2.74-0.57,4.01c-1,4.18-3.93,7.68-7.83,9.32
								c-4.43,1.86-9.28,2.94-14.39,2.94c-3.96,0-7.78-0.63-11.36-1.75C184.23,40.89,179.5,36.96,177.62,31.6z"/>
						</g>
					</g>
				</g>
			</g>
		</g>
	</g>
	<g>
		<path class="st0" d="M9.97,55.14L0,56.05v1.48l0.31,0.03c4.02,0.48,4.02,0.48,4.02,3.37v20.89h6.04V55.1L9.97,55.14z"/>
		<path class="st0" d="M31.12,63.05c-3.72,0-5.94,2.5-6.96,4.04c0-1.36,0-4.1,0-4.1l-0.42,0.07l-8.09,1.26v1.42h0.35
			c2.56,0.08,3.12,0.61,3.12,3.03v13.08h5.04V72.2c0-2.56,2.41-5.86,4.97-5.86c2.42,0,2.54,2.01,2.54,5.29v10.19h5.05V68.75
			C36.72,65.07,34.73,63.05,31.12,63.05z"/>
		<path class="st0" d="M50.85,70.34c-1.98-0.98-3.7-1.82-3.7-3.19c0-1.56,1.87-1.72,2.67-1.72c2.08,0,3.94,1.14,4.73,1.62l0.79,0.48
			l-0.01-0.65v-3.13l-0.62-0.13c-0.92-0.2-2.63-0.58-4.58-0.58c-4.75,0-7.59,2.03-7.59,5.44c0,3.07,2.95,4.5,5.54,5.78
			c2.03,0.99,3.94,1.93,3.94,3.4c0,1.39-1.23,2.19-3.36,2.19c-2.36,0-4.34-1.2-5.53-1.92l-0.54-0.33v3.89l0.38,0.07
			c1.02,0.24,2.92,0.68,5.53,0.68c5.1,0,8.15-2.1,8.15-5.61C56.63,73.18,53.56,71.68,50.85,70.34z"/>
		<path class="st0" d="M73.02,63.05c-1.87,0-3.69,0.89-5.32,2.6c0-0.89,0-2.66,0-2.66l-0.41,0.07l-8.06,1.26v1.41l0.35,0
			c2.52,0.08,3.03,0.58,3.03,3.03v20.83h5.05c0,0,0-7.9,0-9.49c0.92,1.12,2.4,2.17,5.18,2.17c5.27,0,8.07-3.42,8.07-9.89
			C80.92,66.44,78.04,63.05,73.02,63.05z M71.59,65.81c3.44,0,3.85,3.74,3.85,6.56c0,4.78-1.24,7.11-3.8,7.11
			c-3.28,0-3.97-3.07-3.97-5.63v-1.56C67.67,70.34,68.05,65.81,71.59,65.81z"/>
		<g>
			<path class="st0" d="M84.43,64.31v1.41l0.35,0c2.49,0.08,3,0.58,3,3.03v13.08h5.04V62.98l-0.42,0.07L84.43,64.31z"/>
			<path class="st0" d="M90.34,60.75c1.74,0,3.17-1.24,3.17-2.75c0-1.49-1.4-2.71-3.13-2.71c-1.69,0-3.08,1.22-3.08,2.71
				C87.29,59.52,88.66,60.75,90.34,60.75z"/>
		</g>
		<path class="st0" d="M113.94,67.2v-3.92l-0.3-0.04c-0.82-0.13-1.65-0.19-2.39-0.19c-2.86,0-4.36,2.09-5.15,3.72
			c0-1.48,0-3.79,0-3.79l-0.41,0.07l-8.05,1.26v1.42h0.35c2.54,0.08,3.07,0.58,3.07,3.03v13.08h5.04V72.4c0-1.59,0.52-5.3,5.27-5.3
			c0.57,0,1.18,0.17,1.76,0.34l0.82,0.22V67.2z"/>
		<path class="st0" d="M133.89,70.65c0-5.06-2.81-7.61-8.36-7.61c-6.27,0-9.45,3.01-9.45,8.98c0,6.4,4.1,10.23,10.96,10.23
			c2.99,0,5.31-0.75,6.17-1.03l0.3-0.09v-2.44l-0.48,0.17c-0.84,0.31-2.31,0.62-3.94,0.62c-5.38,0-7.4-4.48-7.51-8.47
			c0.69,0,12.32,0,12.32,0V70.65z M125.35,65.04c2.7,0,3.4,1.95,3.48,3.73c-0.65,0-6.6,0-7.26,0
			C121.7,67.48,122.52,65.04,125.35,65.04z"/>
	</g>
	<g>
		<path class="st0" d="M179.87,63.05c-3.71,0-5.84,2.31-6.92,4.02c0-2.04,0-12.58,0-12.58l-0.4,0.05l-8.02,0.99v1.41l0.36,0.02
			c2.49,0.11,3.03,0.66,3.03,3.1v21.77h5.04v-9.39c0-3.43,2.55-6.1,4.75-6.1c2.81,0,2.81,2.11,2.81,3.97v11.52h5.04V69.75
			C185.56,67.73,185.56,63.05,179.87,63.05z"/>
		<path class="st0" d="M208.23,70.65c0-5.06-2.82-7.61-8.36-7.61c-6.28,0-9.45,3.01-9.45,8.98c0,6.4,4.09,10.23,10.97,10.23
			c2.99,0,5.29-0.75,6.16-1.03l0.29-0.09v-2.44l-0.47,0.17c-0.83,0.31-2.31,0.62-3.95,0.62c-5.39,0-7.39-4.48-7.51-8.47
			c0.69,0,12.33,0,12.33,0V70.65z M199.69,65.04c2.71,0,3.41,1.95,3.49,3.73c-0.65,0-6.6,0-7.26,0
			C196.04,67.48,196.86,65.04,199.69,65.04z"/>
		<path class="st0" d="M151.6,57.76c0,0,0,5.16,0,5.71c-0.58,0-3.39,0-3.39,0v2.23c0,0,2.81,0,3.39,0c0,0.68,0,11.31,0,11.31
			c0,4.87,3.13,5.25,6.94,5.25c0.94,0,1.89-0.14,2.96-0.31l0.29-0.04v-2.28l-0.43,0.1c-0.43,0.09-0.94,0.15-1.53,0.15
			c-3.03,0-3.19-0.9-3.19-3.48c0,0,0-10.02,0-10.7c0.63,0,5.67,0,5.67,0v-2.23c0,0-5.04,0-5.67,0c0-0.63,0-5.71,0-5.71H151.6z"/>
	</g>
	<path class="st0" d="M250.87,55.55h-5.05c0,0,0,18.05,0,19.96c-1.04-1.58-13.17-19.96-13.17-19.96H221v1.5l0.99,0.16
		c3.08,0.53,3.32,0.56,3.32,3.55v21.06h5.41c0,0,0-18.98,0-20.9c1.06,1.58,13.83,20.9,13.83,20.9h6.67V55.55H250.87z"/>
	<path class="st0" d="M273.8,70.67c0-5.06-2.82-7.61-8.37-7.61c-6.26,0-9.45,3.01-9.45,8.97c0,6.4,4.1,10.23,10.97,10.23
		c2.99,0,5.29-0.75,6.17-1.03l0.29-0.09V78.7l-0.47,0.18c-0.84,0.3-2.32,0.62-3.95,0.62c-5.39,0-7.4-4.49-7.51-8.48
		c0.69,0,12.32,0,12.32,0V70.67z M265.25,65.06c2.71,0,3.4,1.95,3.49,3.73c-0.65,0-6.6,0-7.26,0
		C261.61,67.49,262.42,65.06,265.25,65.06z"/>
	<path class="st0" d="M301.61,57.75c0,0,0,5.17,0,5.72c-0.57,0-3.37,0-3.37,0v2.23c0,0,2.8,0,3.37,0c0,0.68,0,11.31,0,11.31
		c0,4.87,3.14,5.25,6.93,5.25c0.95,0,1.9-0.14,2.96-0.31l0.3-0.04v-2.28l-0.44,0.1c-0.43,0.09-0.95,0.15-1.52,0.15
		c-3.04,0-3.19-0.9-3.19-3.48c0,0,0-10.02,0-10.7c0.64,0,5.67,0,5.67,0v-2.23c0,0-5.03,0-5.67,0c0-0.63,0-5.72,0-5.72H301.61z"/>
	<path class="st0" d="M291.45,69.46l5.18-6h-5.32l-4.93,5.69l-4.34-5.67h-7.71v1.46l0.33,0.03c2.64,0.18,3.23,0.64,4.85,2.78
		l3.17,4.2l-5.16,5.96h5.33l2.31-2.66l4.98,6.61h5.98l-9.48-12.38H291.45z"/>
	<polygon class="st1" points="301.55,57.76 296.21,57.76 302.67,50.29 308,50.29 	"/>
</g>
</svg>
