<?xml version="1.0" encoding="utf-8"?>
<!-- Generator: Adobe Illustrator 23.0.3, SVG Export Plug-In . SVG Version: 6.00 Build 0)  -->
<svg version="1.1" id="Layer_1" xmlns="http://www.w3.org/2000/svg" xmlns:xlink="http://www.w3.org/1999/xlink" x="0px" y="0px"
	 viewBox="0 0 1288.6 151.4" style="enable-background:new 0 0 1288.6 151.4;" xml:space="preserve">
<style type="text/css">
	.st0{fill:#121212;}
</style>
<g>
	<path class="st0" d="M148.5,74.7c-6.7-3.3-10.7-8.6-12.3-16.2l0-0.1c-6-20.7-22.6-37.2-43.2-43.2C82.7,13,78.8,7.2,76.8,3l-1.2-2.5
		L74.3,3c-3.2,6.6-8.7,10.7-16.4,12.3c-20.7,6-37.2,22.6-43.1,43.3C12.5,68.8,6.7,72.7,2.5,74.8L0,76l2.5,1.2
		c6.7,3.3,10.7,8.6,12.3,16.3c5.9,20.5,22.6,37,43.4,43.1c10.2,2.2,14.2,8.1,16.2,12.3l1.2,2.5l1.2-2.5c3.3-6.7,8.6-10.7,16.3-12.3
		c20.5-6,37-22.5,43.1-43.2c2.2-10.2,8.1-14.2,12.3-16.2L151,76L148.5,74.7z M108,114.5c-9.1,7.6-20.5,11.8-32.5,11.8
		c-11,0-23.5-4.6-32.3-11.8L108,114.5z M113.1,76c0-9.2-3.3-17.9-9.4-24.7l15.6,0c4.2,7.5,6.5,16,6.5,24.7c0,8.7-2.2,17.3-6.4,24.7
		h-15.6C109.8,93.9,113.1,85.2,113.1,76z M75.5,100.8c-13.7,0-24.8-11.1-24.8-24.8c0-14.1,11.4-26.1,24.8-26.1s24.8,11.9,24.8,26.1
		C100.3,89.6,89.2,100.8,75.5,100.8z M47.3,100.7H31.7c-4.2-7.5-6.5-16-6.5-24.7c0-8.7,2.3-17.2,6.5-24.8l15.4,0
		C41.2,58,38,66.6,38,76C38,85.2,41.3,93.9,47.3,100.7z M82.3,26.1c9.3,1.3,18.2,5.2,25.5,11.3l-25.5,0L82.3,26.1z M43.3,37.4
		c7.2-6,16-9.9,25.2-11.2l0,11.2H43.3z"/>
	<path class="st0" d="M75.5,63.6c-6.5,0-11.8,5.3-11.8,11.8c0,6.5,5.3,11.8,11.8,11.8s11.8-5.3,11.8-11.8
		C87.3,68.8,82,63.6,75.5,63.6z"/>
</g>
<g>
	<path class="st0" d="M172,126.9v-102h21.2v38.9h39.7V24.9H254v102h-21.2V81.4h-39.7v45.5H172z"/>
	<path class="st0" d="M289.6,42.5h-20V24.3h20V42.5z M269.6,51.5h20v75.5h-20V51.5z"/>
	<path class="st0" d="M300.4,66.2V52.1h10.5v-21h19.5v21h12.3v14.1h-12.3v39.9c0,3.1,0.4,5,1.2,5.8c0.8,0.8,3.2,1.1,7.2,1.1
		c0.6,0,1.2,0,1.9,0c0.7,0,1.3-0.1,2-0.1v14.7l-9.3,0.3c-9.3,0.3-15.7-1.3-19.1-4.8c-2.2-2.3-3.3-5.7-3.3-10.5V66.2H300.4z"/>
	<path class="st0" d="M385.9,81c3.7-0.5,6.3-1,7.9-1.7c2.8-1.2,4.3-3.1,4.3-5.6c0-3.1-1.1-5.2-3.3-6.4c-2.2-1.2-5.4-1.8-9.6-1.8
		c-4.7,0-8.1,1.2-10,3.5c-1.4,1.7-2.3,4-2.8,6.9h-19c0.4-6.6,2.3-12,5.6-16.3c5.2-6.6,14.2-10,27-10c8.3,0,15.7,1.6,22.1,4.9
		c6.4,3.3,9.7,9.5,9.7,18.6v34.6c0,2.4,0,5.3,0.1,8.7c0.1,2.6,0.5,4.3,1.2,5.3c0.6,0.9,1.6,1.7,2.9,2.3v2.9h-21.5
		c-0.6-1.5-1-3-1.2-4.3c-0.2-1.3-0.4-2.9-0.6-4.6c-2.7,3-5.9,5.5-9.5,7.5c-4.3,2.4-9.1,3.7-14.5,3.7c-6.9,0-12.5-1.9-17-5.8
		c-4.5-3.9-6.7-9.4-6.7-16.6c0-9.3,3.6-16,10.8-20.1c4-2.3,9.8-3.9,17.4-4.8L385.9,81z M397.9,90.2c-1.3,0.8-2.5,1.4-3.8,1.9
		c-1.3,0.5-3.1,0.9-5.3,1.4l-4.5,0.8c-4.2,0.7-7.2,1.6-9.1,2.7c-3.1,1.8-4.7,4.6-4.7,8.4c0,3.4,0.9,5.8,2.8,7.3
		c1.9,1.5,4.2,2.2,6.9,2.2c4.3,0,8.3-1.2,11.9-3.7c3.6-2.5,5.5-7,5.7-13.6V90.2z"/>
	<path class="st0" d="M479.3,78.5c-0.4-2.8-1.3-5.4-2.8-7.6c-2.2-3-5.7-4.6-10.3-4.6c-6.7,0-11.2,3.3-13.7,9.9
		c-1.3,3.5-1.9,8.1-1.9,13.9c0,5.5,0.6,10,1.9,13.3c2.4,6.3,6.8,9.4,13.3,9.4c4.6,0,7.9-1.2,9.9-3.7c1.9-2.5,3.1-5.7,3.5-9.7h20.1
		c-0.5,6-2.6,11.7-6.5,17c-6.2,8.6-15.4,12.9-27.5,12.9s-21.1-3.6-26.8-10.8c-5.7-7.2-8.6-16.5-8.6-28c0-12.9,3.2-23,9.5-30.2
		c6.3-7.2,15.1-10.8,26.2-10.8c9.5,0,17.2,2.1,23.2,6.4c6,4.2,9.6,11.7,10.7,22.5H479.3z"/>
	<path class="st0" d="M565.9,51.9c3.8,1.6,6.9,4.1,9.3,7.4c2.1,2.8,3.3,5.7,3.8,8.7s0.7,7.8,0.7,14.6v44.3h-20.1V81
		c0-4.1-0.7-7.3-2.1-9.8c-1.8-3.5-5.2-5.3-10.2-5.3c-5.2,0-9.1,1.7-11.8,5.2c-2.7,3.5-4,8.5-4,14.9v40.9h-19.7V25.2h19.7v36
		c2.8-4.4,6.1-7.4,9.9-9.2c3.7-1.7,7.7-2.6,11.8-2.6C557.9,49.5,562.1,50.3,565.9,51.9z"/>
	<path class="st0" d="M614.5,42.5h-20V24.3h20V42.5z M594.5,51.5h20v75.5h-20V51.5z"/>
	<path class="st0" d="M680.7,95.4c0.7,4.7,2,8.1,3.9,10.5c3.5,4.2,9.6,6.3,18.2,6.3c5.1,0,9.3-0.6,12.5-1.7
		c6.1-2.1,9.1-6.1,9.1-11.8c0-3.4-1.5-6-4.5-7.8c-3-1.8-7.7-3.4-14.2-4.8l-11-2.4c-10.9-2.4-18.3-5-22.4-7.8
		c-6.9-4.7-10.3-12.1-10.3-22.1c0-9.1,3.4-16.7,10.1-22.8c6.7-6,16.6-9.1,29.6-9.1c10.9,0,20.2,2.9,27.9,8.5
		c7.7,5.7,11.7,14,12.1,24.8h-20.5c-0.4-6.1-3.1-10.5-8.2-13.1c-3.4-1.7-7.6-2.6-12.7-2.6c-5.6,0-10.1,1.1-13.5,3.3
		c-3.4,2.2-5,5.3-5,9.3c0,3.6,1.7,6.4,5,8.2c2.1,1.2,6.6,2.6,13.6,4.2l17.9,4.2c7.8,1.8,13.7,4.3,17.6,7.4C741.9,81,745,88,745,97.1
		c0,9.3-3.6,17.1-10.8,23.2c-7.2,6.2-17.4,9.2-30.5,9.2c-13.4,0-24-3-31.7-9.1c-7.7-6.1-11.5-14.4-11.5-25H680.7z"/>
	<path class="st0" d="M821.4,117.7c-6.4,7.9-16,11.8-29,11.8c-13,0-22.6-3.9-29-11.8c-6.4-7.9-9.6-17.3-9.6-28.4
		c0-10.9,3.2-20.3,9.6-28.3c6.4-8,16-12,29-12c13,0,22.6,4,29,12c6.4,8,9.6,17.4,9.6,28.3C830.9,100.4,827.8,109.8,821.4,117.7z
		 M805.6,106.8c3.1-4.1,4.6-9.9,4.6-17.5c0-7.6-1.5-13.4-4.6-17.5c-3.1-4.1-7.5-6.1-13.3-6.1c-5.8,0-10.2,2-13.3,6.1
		c-3.1,4.1-4.7,9.9-4.7,17.5c0,7.6,1.6,13.4,4.7,17.5c3.1,4.1,7.6,6.2,13.3,6.2C798.1,112.9,802.5,110.9,805.6,106.8z"/>
	<path class="st0" d="M863.1,126.9h-19.7v-102h19.7V126.9z"/>
	<path class="st0" d="M899.1,51.5v45.5c0,4.3,0.5,7.5,1.5,9.7c1.8,3.8,5.3,5.7,10.5,5.7c6.7,0,11.3-2.7,13.8-8.2
		c1.3-3,1.9-6.9,1.9-11.7v-41h20v75.5h-19.2v-10.7c-0.2,0.2-0.6,0.9-1.4,2.1c-0.7,1.2-1.6,2.2-2.6,3c-3.1,2.8-6.1,4.7-8.9,5.7
		c-2.9,1-6.2,1.5-10.1,1.5c-11.1,0-18.6-4-22.5-12c-2.2-4.4-3.2-11-3.2-19.6V51.5H899.1z"/>
	<path class="st0" d="M957.4,66.2V52.1h10.5v-21h19.5v21h12.3v14.1h-12.3v39.9c0,3.1,0.4,5,1.2,5.8c0.8,0.8,3.2,1.1,7.2,1.1
		c0.6,0,1.2,0,1.9,0c0.7,0,1.3-0.1,2-0.1v14.7l-9.3,0.3c-9.3,0.3-15.7-1.3-19.1-4.8c-2.2-2.3-3.3-5.7-3.3-10.5V66.2H957.4z"/>
	<path class="st0" d="M1032.9,42.5h-20V24.3h20V42.5z M1012.9,51.5h20v75.5h-20V51.5z"/>
	<path class="st0" d="M1113.5,117.7c-6.4,7.9-16,11.8-29,11.8c-13,0-22.6-3.9-29-11.8c-6.4-7.9-9.6-17.3-9.6-28.4
		c0-10.9,3.2-20.3,9.6-28.3c6.4-8,16-12,29-12c13,0,22.6,4,29,12c6.4,8,9.6,17.4,9.6,28.3C1123,100.4,1119.9,109.8,1113.5,117.7z
		 M1097.7,106.8c3.1-4.1,4.6-9.9,4.6-17.5c0-7.6-1.5-13.4-4.6-17.5c-3.1-4.1-7.5-6.1-13.3-6.1c-5.8,0-10.2,2-13.3,6.1
		c-3.1,4.1-4.7,9.9-4.7,17.5c0,7.6,1.6,13.4,4.7,17.5c3.1,4.1,7.6,6.2,13.3,6.2C1090.2,112.9,1094.6,110.9,1097.7,106.8z"/>
	<path class="st0" d="M1196.9,55.8c4.9,4.1,7.4,10.9,7.4,20.3v50.8h-20.2V81c0-4-0.5-7-1.6-9.1c-1.9-3.9-5.6-5.8-11-5.8
		c-6.6,0-11.2,2.8-13.7,8.5c-1.3,3-1.9,6.8-1.9,11.5v40.8h-19.7V51.6h19.1v11c2.5-3.9,4.9-6.7,7.2-8.4c4-3,9.2-4.6,15.4-4.6
		C1185.6,49.7,1191.9,51.7,1196.9,55.8z"/>
	<path class="st0" d="M1237.1,102.8c0.4,3.5,1.3,6,2.7,7.5c2.5,2.6,7,3.9,13.6,3.9c3.9,0,7-0.6,9.3-1.7c2.3-1.2,3.4-2.9,3.4-5.2
		c0-2.2-0.9-3.9-2.8-5.1c-1.8-1.2-8.7-3.1-20.6-6c-8.6-2.1-14.6-4.8-18.1-8c-3.5-3.1-5.3-7.7-5.3-13.6c0-7,2.7-13,8.2-18
		c5.5-5,13.2-7.5,23.1-7.5c9.4,0,17.1,1.9,23.1,5.6c5.9,3.8,9.4,10.3,10.2,19.5h-19.7c-0.3-2.5-1-4.5-2.2-6c-2.2-2.7-5.9-4-11.1-4
		c-4.3,0-7.4,0.7-9.2,2c-1.8,1.3-2.7,2.9-2.7,4.7c0,2.3,1,3.9,2.9,4.9c1.9,1.1,8.8,2.9,20.6,5.5c7.9,1.8,13.8,4.6,17.7,8.4
		c3.9,3.8,5.8,8.5,5.8,14.2c0,7.5-2.8,13.6-8.4,18.3c-5.6,4.7-14.2,7.1-25.8,7.1c-11.9,0-20.7-2.5-26.3-7.5
		c-5.7-5-8.5-11.4-8.5-19.1H1237.1z"/>
</g>
</svg>
