<?xml version="1.0" encoding="utf-8"?>
<!-- Generator: Adobe Illustrator 23.0.3, SVG Export Plug-In . SVG Version: 6.00 Build 0)  -->
<svg version="1.1" id="Layer_1" xmlns="http://www.w3.org/2000/svg" xmlns:xlink="http://www.w3.org/1999/xlink" x="0px" y="0px"
	 viewBox="0 0 728 719" style="enable-background:new 0 0 728 719;" xml:space="preserve">
<style type="text/css">
	.st0{fill:#609841;}
	.st1{fill:#4C843D;}
	.st2{fill:#578D3F;}
	.st3{fill:#3B7438;}
	.st4{fill:#85A1CC;}
	.st5{fill:#C6E8F8;}
	.st6{fill:#DFDEDD;}
	.st7{fill:#969696;}
	.st8{opacity:0.3;fill:#4C843D;}
	.st9{fill:#8C8D8B;}
	.st10{fill:#525D65;}
	.st11{fill:#F9A020;}
	.st12{fill:#2C3A42;}
	.st13{fill:#145FAD;}
	.st14{opacity:0.12;fill:#145FAD;}
	.st15{opacity:0.72;}
	.st16{fill:#99CCE7;}
	.st17{fill:#8E908E;}
	.st18{fill:url(#SVGID_1_);}
	.st19{fill:#B5C6E0;}
	.st20{fill:#5981BB;}
	.st21{fill:#3766AD;}
	.st22{opacity:0.32;fill:#C1C5C9;}
	.st23{opacity:0.28;}
	.st24{fill:#C1C5C9;}
	.st25{opacity:0.22;fill:#FBC7BE;}
	.st26{opacity:0.1;fill:#561028;}
	.st27{fill:url(#SVGID_2_);}
	.st28{fill:url(#SVGID_3_);}
	.st29{fill:url(#SVGID_4_);}
	.st30{fill:#3E4549;}
	.st31{fill:#5D6569;}
	.st32{fill:url(#SVGID_5_);}
	.st33{fill:url(#SVGID_6_);}
	.st34{fill:url(#SVGID_7_);}
	.st35{fill:url(#SVGID_8_);}
	.st36{fill:url(#SVGID_9_);}
	.st37{fill:url(#SVGID_10_);}
	.st38{enable-background:new    ;}
	.st39{fill:#AA3B3B;}
	.st40{fill:#C94746;}
	.st41{fill:#982F2F;}
	.st42{fill:#F2F1F1;}
	.st43{fill:#E0DEDE;}
	.st44{fill:url(#SVGID_11_);}
	.st45{fill:url(#SVGID_12_);}
	.st46{fill:url(#SVGID_13_);}
	.st47{fill:url(#SVGID_14_);}
	.st48{fill:url(#SVGID_15_);}
	.st49{fill:url(#SVGID_16_);}
	.st50{fill:url(#SVGID_17_);}
	.st51{fill:url(#SVGID_18_);}
	.st52{fill:url(#SVGID_19_);}
	.st53{fill:url(#SVGID_20_);}
	.st54{fill:url(#SVGID_21_);}
	.st55{fill:url(#SVGID_22_);}
	.st56{fill:url(#SVGID_23_);}
	.st57{fill:url(#SVGID_24_);}
	.st58{fill:url(#SVGID_25_);}
	.st59{fill:#FFFFFF;}
	.st60{fill:url(#SVGID_26_);}
	.st61{fill:url(#SVGID_27_);}
	.st62{fill:url(#SVGID_28_);}
	.st63{fill:url(#SVGID_29_);}
	.st64{fill:url(#SVGID_30_);}
	.st65{fill:#E85F5E;}
	.st66{fill:#F26767;}
	.st67{fill:#E8EAE9;}
	.st68{fill:url(#SVGID_31_);}
	.st69{fill:#D0D1D1;}
	.st70{fill:#EE7B2D;}
	.st71{opacity:0.2;}
	.st72{fill:#1E2831;}
	.st73{fill:#979EA2;}
	.st74{fill:#A9232D;}
	.st75{fill:#E5372C;}
	.st76{fill:#EC6049;}
	.st77{fill:url(#SVGID_32_);}
	.st78{fill:#C08BA5;}
	.st79{fill:none;stroke:#85A1CC;stroke-miterlimit:10;}
	.st80{fill:none;stroke:#A9232D;stroke-miterlimit:10;}
	.st81{fill:none;stroke:#B5C6E0;stroke-miterlimit:10;}
	.st82{fill:none;stroke:#4E813F;stroke-miterlimit:10;}
	.st83{fill:none;stroke:#F5B24F;stroke-miterlimit:10;}
	.st84{fill:#F08C2C;stroke:#B5C6E0;stroke-miterlimit:10;}
	.st85{fill:none;stroke:#EE7B2D;stroke-miterlimit:10;}
	.st86{fill:#6A9F47;}
	.st87{fill:#F08C2C;stroke:#85A1CC;stroke-miterlimit:10;}
	.st88{fill:#F08C2C;stroke:#4E813F;stroke-miterlimit:10;}
	.st89{fill:#E1272D;}
	.st90{fill:#979797;}
	.st91{fill:#F9C4BA;}
	.st92{fill:#A3DBF6;}
	.st93{fill:#121A22;}
	.st94{fill:#80CFF3;}
	.st95{fill:#323E48;}
	.st96{fill:#2D5070;}
	.st97{fill:#F6DEBA;}
	.st98{fill:#FAC690;}
	.st99{fill:#202931;}
	.st100{fill:#474763;}
	.st101{fill:#689C42;}
	.st102{fill:#93BA75;}
</style>
<g>
	<g>
		<g>
			<polygon class="st0" points="506,466 475.8,448.7 489.4,230.7 506.9,241.8 			"/>
			<polygon class="st1" points="506,466 506.5,241.7 527.8,231.6 540.1,447.3 			"/>
			<polygon class="st2" points="506,466 475.8,448.7 448.9,499.9 506,533.4 			"/>
			<polygon class="st3" points="506,466 506,533.4 566.7,498.4 540.1,447.3 			"/>
		</g>
		<g>
			<polygon class="st4" points="580.4,246.2 577.9,245.1 569.5,244.9 569.5,246.1 514.3,216.2 492.1,229.5 492.1,228.3 483.3,228.3 
				483.3,234.5 484.2,234.5 549.6,270.3 580.4,251.6 			"/>
			<polygon class="st5" points="549.6,264.3 483.8,228.3 514.3,210.2 580.1,246.2 			"/>
		</g>
		<g>
			<path class="st1" d="M489.4,205.4v22c0,2,2.3,3.6,5.2,3.6c2.9,0,5.2-1.6,5.2-3.6v-22H489.4z"/>
			<g>
				<ellipse class="st6" cx="494.5" cy="205.6" rx="5.1" ry="3.6"/>
			</g>
		</g>
		<g>
			<path class="st7" d="M494.2,141.6L494.2,141.6c-0.7,0-1.3,0.6-1.3,1.3v61.5c0,0.7,0.6,1.3,1.3,1.3l0,0c0.7,0,1.3-0.6,1.3-1.3
				v-61.5C495.5,142.2,494.9,141.6,494.2,141.6z"/>
		</g>
		<g>
			<path class="st1" d="M509.6,193.1v22c0,2,2.3,3.6,5.2,3.6c2.9,0,5.2-1.6,5.2-3.6v-22H509.6z"/>
			<g>
				<ellipse class="st6" cx="514.7" cy="193.3" rx="5.1" ry="3.6"/>
			</g>
		</g>
		<g>
			<path class="st7" d="M514.4,129.3L514.4,129.3c-0.7,0-1.3,0.6-1.3,1.3v61.5c0,0.7,0.6,1.3,1.3,1.3l0,0c0.7,0,1.3-0.6,1.3-1.3
				v-61.5C515.7,129.9,515.1,129.3,514.4,129.3z"/>
		</g>
		<g>
			<polygon class="st4" points="511.9,335.7 509.4,334.6 501,334.4 501,335.6 480.2,324.1 387.6,377.9 387.6,376.7 378.8,376.7 
				378.8,382.9 379.8,382.9 410.8,400.3 511.9,341.1 			"/>
			<polygon class="st5" points="410.8,394.3 379.4,376.7 480.2,318 511.6,335.7 			"/>
		</g>
	</g>
	<polygon class="st8" points="482.4,358.4 493.1,371.4 506.2,369.9 506.4,344.8 	"/>
	<g>
		<polygon class="st2" points="386.5,683.4 362.6,669.7 372.9,619.7 386.7,628.5 		"/>
		<polygon class="st3" points="386.5,683.4 386.4,628.5 403.2,620.4 413.4,668.6 		"/>
	</g>
	<g>
		<polygon class="st2" points="267,616.4 243.1,602.7 253.3,552.7 267.1,561.5 		"/>
		<polygon class="st3" points="267,616.4 266.9,561.5 283.6,553.4 293.9,601.6 		"/>
	</g>
	<g>
		<polygon class="st2" points="498.8,617.1 474.9,603.4 485.2,553.4 499,562.2 		"/>
		<polygon class="st3" points="498.8,617.1 498.7,562.1 515.5,554.1 525.7,602.3 		"/>
	</g>
	<g>
		<polygon class="st9" points="532,543.7 529.5,542.6 521.1,542.4 521.1,543.6 382.4,463.9 243.2,545.3 243.2,544.1 234.3,544.1 
			234.3,550.4 235.3,550.4 384.2,635.9 532,549.1 		"/>
		<g>
			<polygon class="st6" points="384.2,629.9 234.9,544.1 382.4,457.9 531.7,543.7 			"/>
		</g>
	</g>
	<g>
		<path class="st10" d="M385.9,619.1l-125.2-71.9c-1.1-0.6-1.1-2.3,0-2.9l123.6-72.3c1.4-0.8,3.2-0.8,4.7,0l125.2,71.9
			c1.1,0.6,1.1,2.3,0,2.9l-123.6,72.3C389.1,620,387.3,620,385.9,619.1z"/>
	</g>
	<g>
		<polygon class="st11" points="513.7,547 509.9,545.7 509.9,523.5 514.5,523.5 		"/>
	</g>
	<g>
		<polygon class="st12" points="388.3,622.1 514.2,546.8 508.9,544.2 383.3,619.2 		"/>
	</g>
	<g>
		<polygon class="st13" points="523.8,637.6 565.9,661.7 649.3,612.6 648.4,610.9 524.3,634.1 		"/>
	</g>
	<g>
		<polygon class="st12" points="388,621.6 256.5,547 261.7,544.4 392.9,619.1 		"/>
	</g>
	<g>
		<polygon class="st12" points="260.3,548.9 386.1,473.6 381.9,471.8 256.3,546.8 		"/>
	</g>
	<g>
		<polygon class="st11" points="388.7,620.6 385,619.3 395.1,592.8 412.2,601.4 420.7,578.6 437.3,586.9 446.1,563.6 462.6,571.6 
			471.2,548.5 487.5,556.9 497.2,534.2 511.9,542 511.9,546.2 499.2,539.6 489.5,562.2 473.4,553.9 464.8,577 448.3,568.9 
			439.5,592.3 422.9,584 414.4,606.8 397.3,598.2 		"/>
	</g>
	<g>
		<polygon class="st11" points="385.8,619.2 389.5,617.9 378.8,591.7 362,600.6 352.9,578 336.5,586.7 327.2,563.5 310.9,572 
			301.8,549 285.6,557.8 275.4,535.4 260.9,543.5 261,547.7 273.6,540.8 283.7,563.2 299.7,554.5 308.8,577.4 325.1,568.9 
			334.5,592.1 350.8,583.4 359.9,606.1 376.8,597.1 		"/>
	</g>
	<polygon class="st14" points="498.4,617 512.6,620.6 527.8,611.8 524.2,602.5 	"/>
	<g>
		<polygon class="st11" points="388.8,621.4 384.3,618.9 384.3,596.7 388.8,599.2 		"/>
	</g>
	<g class="st15">
		<path class="st16" d="M427.2,383.9c0,0,10.6-14.3-15.4-24c-26.6-9.8,5.5,31.1,5.5,31.1L427.2,383.9z"/>
	</g>
	<g>
		<polygon class="st11" points="261.7,549.5 257.2,547 257.2,524.8 261.7,527.3 		"/>
	</g>
	<g>
		<polygon class="st17" points="531.3,516.8 528.8,515.7 520.4,515.5 520.4,516.7 381.7,437 242.5,518.4 242.5,517.2 233.7,517.2 
			233.7,523.5 234.7,523.5 383.6,609 531.3,522.2 		"/>
		<g>
			
				<radialGradient id="SVGID_1_" cx="382.0616" cy="517.6553" r="109.8645" gradientTransform="matrix(1 0 0 0.5772 0 218.8567)" gradientUnits="userSpaceOnUse">
				<stop  offset="0" style="stop-color:#FFFFFF"/>
				<stop  offset="1" style="stop-color:#DCDBDB"/>
			</radialGradient>
			<polygon class="st18" points="382.2,603.7 233,517.9 380.4,431.7 531.2,517 			"/>
		</g>
	</g>
	<g>
		<g>
			<polygon class="st19" points="566.3,599.5 524.2,575.3 606.8,527.7 648.9,551.9 			"/>
		</g>
		<polygon class="st20" points="565.7,659.1 523.6,634.9 524.2,575.3 566.3,599.5 		"/>
		<polygon class="st21" points="565.7,659.1 565.9,599.4 648.6,551.9 648.4,611.5 		"/>
		<g>
			<polygon class="st4" points="566.5,595.4 530.8,574.9 606.9,531.4 642.6,551.9 			"/>
		</g>
		<polygon class="st21" points="533.8,576.7 530.6,574.9 606.7,531.4 606.7,535.3 		"/>
		<polygon class="st20" points="639.4,553.6 642.6,551.9 606.7,531.3 606.7,535.2 		"/>
		<polygon class="st21" points="567.7,654.9 567.9,600.8 592.3,586.7 592.1,640.7 		"/>
		<polygon class="st21" points="594,639.8 594.2,585.7 618.6,571.6 618.4,625.6 		"/>
		<polygon class="st21" points="620.3,624.7 620.4,570.6 646.6,555.5 646.4,609.6 		"/>
	</g>
	<g>
		<path class="st22" d="M359,512.9c0,0-8,44.4,10.5,84.2c0.6,1.3,12.3,7.2,12.3,7.2l23.9-14.1c5.5-23.7,9.3-43.6,11.3-76.2
			C416.3,526.2,370.8,539.2,359,512.9z"/>
		<g class="st23">
			<g>
				
					<ellipse transform="matrix(2.204148e-02 -0.9998 0.9998 2.204148e-02 -135.1777 891.6688)" class="st24" cx="388.2" cy="514.9" rx="12.8" ry="29"/>
			</g>
			<g>
				
					<ellipse transform="matrix(2.204148e-02 -0.9998 0.9998 2.204148e-02 -134.6026 891.5499)" class="st24" cx="388.4" cy="514.6" rx="9.6" ry="23"/>
			</g>
		</g>
	</g>
	<path class="st25" d="M442.4,487.7L418,518.9l-3.5-3.5c0,0,0.7-5.8-1.2-7.6c-1.9-1.8-3.8-2.2-4.1-3.1c-0.3-0.9,31.1-14.8,32-23.5
		C440.6,481,442.4,487.7,442.4,487.7z"/>
	<polygon class="st26" points="535.9,578.9 606.8,537.8 637,555.1 641.8,552.9 606.8,533.4 531.1,576.3 	"/>
	<path class="st26" d="M456.4,642.9c0.9,0,1.8,0.2,2.5,0.7c0.5,0.3,0.8,0.9,0.8,1.4c-0.1,0.8-0.8,1.2-1.5,1.5
		c-3.3,1.6-6.7,3.2-10.1,4.7c-2.9,1.3-6.1,1.9-7.8,4.8c-0.5,0.8-0.9,1.7-1.1,2.6c-0.1,0.8,0.1,1.7,0.5,2.4c-2.4-0.8-4.8-3.2-6.9-4.8
		l11.2-9.4c3.7-1.2,7.8-3.3,11.7-3.9C455.9,642.9,456.1,642.9,456.4,642.9z"/>
	<path class="st26" d="M459.5,661.7c0,0,5.3-7.2,12-8.1c6.8-0.9,16-3.7,19.3-0.9c3.3,2.8,2.2-6.3,2.2-6.3l-19.5-0.7l-16.4,7.4
		l-1.8,8.8L459.5,661.7z"/>
	<path class="st26" d="M546.3,613.2c-0.4-0.1-0.8-0.1-1.1,0c-0.6,0.2-1,0.9-1.2,1.6c-1,3.5,1.1,7.7-0.6,10.9c-0.4,0.7-0.9,1.3-1,2
		c-0.2,0.7,0,1.4,0.2,2.1c1.4,5.9,2.8,11.9,4.2,17.8c0.1,0.5-13.7,5.7-15.2,6.4c0,0-6,2.7-7,4.7c-6.9,2.1-19.8,7.6-19.8,7.6
		l-28.5,4.6c0,0-9.2,2.6-9.2,2.6c0.2-0.1,3.9,2.3,4.4,2.5c4.2,1.3,8.2,0.7,12.5,0.2c9.3-0.9,18.5-2.2,27.4-5.1
		c5.4-1.8,10.5-4.1,15.4-6.9c4.5-2.6,8.3-6.3,13.1-8.1c3.5-1.4,9.7-1.8,11.5-5.7c0.6-1.2-1.2-5.6-1.5-6.9c-0.9-4.3-1.4-7-2.4-11.3
		c2-1,3.3-3.2,3.6-5.4c0.4-2.2,0-4.5-0.6-6.7c-0.6-2-1.9-5.7-3.9-6.6C546.5,613.3,546.4,613.3,546.3,613.2z"/>
	<path class="st26" d="M428.2,537.3c0,0,2.8-0.2,2.6,1.3c-1.2,8.3-9.7,11.7-17,13.1c-6.6,1.3-13.3,1.7-20,2.5
		c-5.9,0.7-13.8,1-19.1,4.2c-0.3,0.2-0.7,0.4-0.9,0.8c-1.2,2.1,3.4,7.2,5.4,7.5c0,0-10.9-1.8-10.9-1.8l-1.5-10.3l21.9-6.8l25.6-1.3
		l8.8-6.1L428.2,537.3z"/>
	<path class="st26" d="M365.8,566.7c0.7,7.2,13.9,8.7,19.9,8.5c4-0.1,48.8-4.5,48.8-1.3c0,1.5,0,3.1,0,4.6l5.7-2.4l-1.3-5l-28.9-3.5
		c0,0-35.7-0.2-35.7-0.2C371.9,567.1,368.1,566,365.8,566.7z"/>
	<linearGradient id="SVGID_2_" gradientUnits="userSpaceOnUse" x1="539.8508" y1="621.2573" x2="549.73" y2="621.2573">
		<stop  offset="6.898018e-03" style="stop-color:#F8E2BD"/>
		<stop  offset="7.541139e-02" style="stop-color:#F8E1BB"/>
		<stop  offset="0.1212" style="stop-color:#F8DEB3"/>
		<stop  offset="0.1602" style="stop-color:#F8D8A6"/>
		<stop  offset="0.1956" style="stop-color:#F8D094"/>
		<stop  offset="0.2284" style="stop-color:#F7C67F"/>
		<stop  offset="0.259" style="stop-color:#F6BA64"/>
		<stop  offset="0.2768" style="stop-color:#F5B24F"/>
		<stop  offset="0.376" style="stop-color:#F5B455"/>
		<stop  offset="0.5193" style="stop-color:#F6BB66"/>
		<stop  offset="0.6892" style="stop-color:#F7C67F"/>
		<stop  offset="0.8781" style="stop-color:#F8D6A2"/>
		<stop  offset="0.9996" style="stop-color:#F8E2BD"/>
	</linearGradient>
	<path class="st27" d="M544.8,612.9c-1,0-2.2,0.2-3,1.1l-1.3,1.1l0.1,1.7c-0.5,1.3-0.8,2.8-0.8,4.4c0,2.5,0.6,4.7,1.7,6.2l0.2,2.3
		c0,0,2.7-0.2,3.1-0.2c2.7,0,4.9-3.7,4.9-8.3C549.7,616.6,547.5,612.9,544.8,612.9z"/>
	<path class="st25" d="M327.9,486.6l29.3,35l3.7-3.5l0.7-7.8c0,0,2.8-2.7,3.1-3.5c0.2-0.9-34-20.6-34-20.6L327.9,486.6z"/>
	<g>
		<g>
			<g>
				<linearGradient id="SVGID_3_" gradientUnits="userSpaceOnUse" x1="370.4763" y1="524.3739" x2="397.8456" y2="524.3739">
					<stop  offset="0.2771" style="stop-color:#333839"/>
					<stop  offset="1" style="stop-color:#4C5458"/>
				</linearGradient>
				<path class="st28" d="M393.7,524.7c-5.4,3-14.1,3-19.3-0.2c-2.6-1.5-3.9-3.5-3.9-5.5l0,2.9c0,2,1.3,4,3.9,5.5
					c5.3,3.1,13.9,3.2,19.3,0.2c2.8-1.5,4.1-3.6,4.1-5.7l0-2.9C397.8,521.1,396.5,523.2,393.7,524.7z"/>
				<linearGradient id="SVGID_4_" gradientUnits="userSpaceOnUse" x1="370.4846" y1="517.6909" x2="397.8453" y2="517.6909">
					<stop  offset="0" style="stop-color:#525A5E"/>
					<stop  offset="1" style="stop-color:#5E666A"/>
				</linearGradient>
				<path class="st29" d="M396.5,515.5l-5.9-7c1.3,1.5,0.8,3.5-1.4,4.7c-0.1,0-0.2,0.1-0.2,0.1c-1.2,0.6-2.7,0.9-4.1,1
					c-2,0.1-4.1-0.3-5.6-1.2c-2.1-1.3-2.5-3.1-1.3-4.7l-6,7c-2.5,2.9-1.7,6.6,2.5,9c2.9,1.8,6.9,2.6,10.8,2.4c2.9-0.1,5.7-0.8,8.1-2
					c0.2-0.1,0.3-0.2,0.5-0.2C398.1,522.3,399,518.5,396.5,515.5z"/>
				<g>
					<path class="st30" d="M389.1,513.2c-2.8,1.6-7.2,1.5-10-0.1c-2.7-1.6-2.6-4.2,0.1-5.8c2.8-1.6,7.2-1.5,10,0.1
						C391.9,509.1,391.9,511.6,389.1,513.2z"/>
				</g>
				<path class="st31" d="M385.2,526.9l-0.5-12.6c1.5-0.1,3-0.4,4.1-1l4.4,11.6C390.9,526.1,388.1,526.8,385.2,526.9L385.2,526.9z"
					/>
			</g>
			<g>
				<linearGradient id="SVGID_5_" gradientUnits="userSpaceOnUse" x1="349.3062" y1="536.5909" x2="376.6749" y2="536.5909">
					<stop  offset="0.2771" style="stop-color:#333839"/>
					<stop  offset="1" style="stop-color:#4C5458"/>
				</linearGradient>
				<path class="st32" d="M372.5,536.9c-5.4,3-14.1,3-19.3-0.2c-2.6-1.5-3.9-3.5-3.9-5.5l0,2.9c0,2,1.3,4,3.9,5.5
					c5.3,3.1,13.9,3.2,19.3,0.2c2.8-1.5,4.1-3.6,4.1-5.7l0-2.9C376.7,533.3,375.3,535.4,372.5,536.9z"/>
				<linearGradient id="SVGID_6_" gradientUnits="userSpaceOnUse" x1="349.3144" y1="529.9079" x2="376.675" y2="529.9079">
					<stop  offset="0" style="stop-color:#525A5E"/>
					<stop  offset="1" style="stop-color:#5E666A"/>
				</linearGradient>
				<path class="st33" d="M375.3,527.8l-5.9-7c1.3,1.5,0.8,3.5-1.4,4.7c-0.1,0-0.2,0.1-0.2,0.1c-1.2,0.6-2.7,0.9-4.1,1
					c-2,0.1-4.1-0.3-5.6-1.2c-2.1-1.3-2.5-3.1-1.3-4.7l-6,7c-2.5,2.9-1.7,6.6,2.5,9c2.9,1.8,6.9,2.6,10.8,2.4c2.9-0.1,5.7-0.8,8.1-2
					c0.2-0.1,0.3-0.2,0.5-0.2C376.9,534.5,377.8,530.8,375.3,527.8z"/>
				<g>
					<path class="st30" d="M367.9,525.4c-2.8,1.6-7.2,1.5-10-0.1c-2.7-1.6-2.6-4.2,0.1-5.8c2.8-1.6,7.2-1.5,10,0.1
						C370.8,521.3,370.7,523.9,367.9,525.4z"/>
				</g>
				<path class="st31" d="M364,539.1l-0.5-12.6c1.5-0.1,3-0.4,4.1-1l4.4,11.6C369.8,538.3,366.9,539,364,539.1L364,539.1z"/>
			</g>
		</g>
		<g>
			<g>
				<linearGradient id="SVGID_7_" gradientUnits="userSpaceOnUse" x1="391.5634" y1="536.5508" x2="418.9321" y2="536.5508">
					<stop  offset="0.2771" style="stop-color:#333839"/>
					<stop  offset="1" style="stop-color:#4C5458"/>
				</linearGradient>
				<path class="st34" d="M414.8,536.9c-5.4,3-14.1,3-19.3-0.2c-2.6-1.5-3.9-3.5-3.9-5.5l0,2.9c0,2,1.3,4,3.9,5.5
					c5.3,3.1,13.9,3.2,19.3,0.2c2.8-1.5,4.1-3.6,4.1-5.7l0-2.9C418.9,533.3,417.5,535.3,414.8,536.9z"/>
				<linearGradient id="SVGID_8_" gradientUnits="userSpaceOnUse" x1="391.5716" y1="529.8678" x2="418.9322" y2="529.8678">
					<stop  offset="0" style="stop-color:#525A5E"/>
					<stop  offset="1" style="stop-color:#5E666A"/>
				</linearGradient>
				<path class="st35" d="M417.5,527.7l-5.9-7c1.3,1.5,0.8,3.5-1.4,4.7c-0.1,0-0.2,0.1-0.2,0.1c-1.2,0.6-2.7,0.9-4.1,1
					c-2,0.1-4.1-0.3-5.6-1.2c-2.1-1.3-2.5-3.1-1.3-4.7l-6,7c-2.5,2.9-1.7,6.6,2.5,9c2.9,1.8,6.9,2.6,10.8,2.4c2.9-0.1,5.7-0.8,8.1-2
					c0.2-0.1,0.3-0.2,0.5-0.2C419.1,534.4,420.1,530.7,417.5,527.7z"/>
				<g>
					<path class="st30" d="M410.2,525.4c-2.8,1.6-7.2,1.5-10-0.1c-2.7-1.6-2.6-4.2,0.1-5.8c2.8-1.6,7.2-1.5,10,0.1
						C413,521.2,413,523.8,410.2,525.4z"/>
				</g>
				<path class="st31" d="M406.3,539.1l-0.5-12.6c1.5-0.1,3-0.4,4.1-1l4.4,11.6C412,538.3,409.2,539,406.3,539.1L406.3,539.1z"/>
			</g>
			<g>
				<linearGradient id="SVGID_9_" gradientUnits="userSpaceOnUse" x1="370.3927" y1="548.7679" x2="397.7621" y2="548.7679">
					<stop  offset="0.2771" style="stop-color:#333839"/>
					<stop  offset="1" style="stop-color:#4C5458"/>
				</linearGradient>
				<path class="st36" d="M393.6,549.1c-5.4,3-14.1,3-19.3-0.2c-2.6-1.5-3.9-3.5-3.9-5.5l0,2.9c0,2,1.3,4,3.9,5.5
					c5.3,3.1,13.9,3.2,19.3,0.2c2.8-1.5,4.1-3.6,4.1-5.7l0-2.9C397.8,545.5,396.4,547.5,393.6,549.1z"/>
				<linearGradient id="SVGID_10_" gradientUnits="userSpaceOnUse" x1="370.401" y1="542.0846" x2="397.7617" y2="542.0846">
					<stop  offset="0" style="stop-color:#525A5E"/>
					<stop  offset="1" style="stop-color:#5E666A"/>
				</linearGradient>
				<path class="st37" d="M396.4,539.9l-5.9-7c1.3,1.5,0.8,3.5-1.4,4.7c-0.1,0-0.2,0.1-0.2,0.1c-1.2,0.6-2.7,0.9-4.1,1
					c-2,0.1-4.1-0.3-5.6-1.2c-2.1-1.3-2.5-3.1-1.3-4.7l-6,7c-2.5,2.9-1.7,6.6,2.5,9c2.9,1.8,6.9,2.6,10.8,2.4c2.9-0.1,5.7-0.8,8.1-2
					c0.2-0.1,0.3-0.2,0.5-0.2C398,546.6,398.9,542.9,396.4,539.9z"/>
				<g>
					<path class="st30" d="M389,537.6c-2.8,1.6-7.2,1.5-10-0.1c-2.7-1.6-2.6-4.2,0.1-5.8c2.8-1.6,7.2-1.5,10,0.1
						C391.9,533.5,391.8,536,389,537.6z"/>
				</g>
				<path class="st31" d="M385.1,551.3l-0.5-12.6c1.5-0.1,3-0.4,4.1-1l4.4,11.6C390.8,550.5,388,551.2,385.1,551.3L385.1,551.3z"/>
			</g>
		</g>
	</g>
	<g>
		<g class="st38">
			<g>
				<polygon class="st39" points="410.9,505.5 409.1,504.5 409,453.1 410.7,454.1 				"/>
			</g>
			<g>
				<polygon class="st40" points="410.7,454.1 442.2,478.1 442.2,487.5 410.9,505.5 				"/>
			</g>
		</g>
		<g class="st38">
			<g>
				<polygon class="st40" points="359.3,452.9 361.1,451.9 360.9,503.4 359.2,504.4 				"/>
			</g>
			<g>
				<polygon class="st41" points="359.3,452.9 359.2,504.4 327.9,486.3 327.9,476.9 				"/>
			</g>
		</g>
	</g>
	<g>
		<g>
			<g>
				<path class="st42" d="M415.8,370.2l-2.5-4.8c3.1,6.1,0.4,12.9-8,17.6c-12,6.7-31.2,6.5-42.9-0.4c-7.9-4.7-10.3-11.4-7.3-17.3
					l-2.5,4.8c-3.3,6.4-0.7,13.6,7.9,18.8c12.7,7.6,33.5,7.8,46.5,0.5v0C416.2,384.2,419.1,376.8,415.8,370.2z"/>
				<path class="st43" d="M407.2,389.3L407.2,389.3c-13,7.3-33.9,7.1-46.5-0.5c-6.2-3.7-9.3-8.5-9.3-13.3l0,144.8
					c0,4.8,3.1,9.6,9.3,13.3c12.7,7.6,33.5,7.8,46.5,0.5c6.6-3.7,10-8.7,10-13.6l0-144.8C417.1,380.6,413.8,385.6,407.2,389.3z"/>
				<linearGradient id="SVGID_11_" gradientUnits="userSpaceOnUse" x1="353.9326" y1="363.7896" x2="414.6683" y2="363.7896">
					<stop  offset="0.2771" style="stop-color:#333839"/>
					<stop  offset="1" style="stop-color:#4C5458"/>
				</linearGradient>
				<path class="st44" d="M405.5,352.4c-12,6.7-31.2,6.5-42.9-0.4c-5.7-3.4-8.6-7.9-8.6-12.3l-0.1,30.6c0,4.4,2.8,8.9,8.6,12.3
					c11.7,7,30.9,7.2,42.9,0.4c6.1-3.4,9.2-8,9.2-12.6l0.1-30.6C414.7,344.4,411.6,349,405.5,352.4z"/>
				<linearGradient id="SVGID_12_" gradientUnits="userSpaceOnUse" x1="353.2723" y1="349.375" x2="415.4043" y2="349.375">
					<stop  offset="0" style="stop-color:#A4A4A5"/>
					<stop  offset="3.825116e-02" style="stop-color:#A7A7A7"/>
					<stop  offset="0.4086" style="stop-color:#BDBCBD"/>
					<stop  offset="0.7407" style="stop-color:#CBCACA"/>
					<stop  offset="1" style="stop-color:#CFD0D0"/>
				</linearGradient>
				<path class="st45" d="M407.3,348.9c-13,7.3-33.9,7.1-46.5-0.5c-3.5-2.1-6-4.5-7.5-7l2.4,4c1.4,2.4,3.7,4.6,6.9,6.5
					c11.7,7,30.9,7.2,42.9,0.4c3.5-2,6-4.3,7.5-6.8l2.4-4C413.8,344.3,411.1,346.8,407.3,348.9z"/>
				<path class="st43" d="M407.4,306.2c-13,7.3-33.9,7.1-46.5-0.5c-6.2-3.7-9.3-8.5-9.3-13.3l-0.1,42.7c0,4.8,3.1,9.6,9.3,13.3
					c12.7,7.6,33.5,7.8,46.5,0.5c6.6-3.7,10-8.7,10-13.6l0.1-42.7C417.4,297.5,414,302.5,407.4,306.2z"/>
				<path class="st42" d="M408.1,279.2c-12.7-7.6-33.5-7.8-46.5-0.5c-13,7.3-13.3,19.4-0.7,26.9c12.7,7.6,33.5,7.8,46.5,0.5
					C420.4,298.9,420.7,286.8,408.1,279.2z"/>
				<linearGradient id="SVGID_13_" gradientUnits="userSpaceOnUse" x1="355.4762" y1="298.0349" x2="413.4795" y2="298.0349">
					<stop  offset="0" style="stop-color:#CFD0D0"/>
					<stop  offset="0.1528" style="stop-color:#D5D5D5"/>
					<stop  offset="0.6126" style="stop-color:#E3E2E2"/>
					<stop  offset="1" style="stop-color:#E8E7E7"/>
				</linearGradient>
				<path class="st46" d="M413.4,291.4l-0.5-4.4c0.6,4.7-2.3,9.4-8.6,13c-11.3,6.3-29.3,6.1-40.2-0.4c-5.9-3.5-8.5-8.2-8-12.7
					l-0.6,4.4c-0.6,4.6,2.1,9.4,8.1,13c11.2,6.7,29.5,6.9,41,0.4C411.1,301,414,296.1,413.4,291.4z"/>
				<linearGradient id="SVGID_14_" gradientUnits="userSpaceOnUse" x1="355.4999" y1="289.4731" x2="413.5032" y2="289.4731">
					<stop  offset="0" style="stop-color:#CFD0D0"/>
					<stop  offset="0.1528" style="stop-color:#D5D5D5"/>
					<stop  offset="0.6126" style="stop-color:#E3E2E2"/>
					<stop  offset="1" style="stop-color:#E8E7E7"/>
				</linearGradient>
				<path class="st47" d="M413.5,283.3l-0.5-5.2c0.5,4.6-2.4,9.3-8.6,12.8c-11.3,6.3-29.3,6.1-40.2-0.4c-5.8-3.5-8.5-8.1-8-12.5
					l-0.6,5.2c-0.5,4.6,2.2,9.2,8.2,12.8c11.2,6.7,29.5,6.9,41,0.4l0,0C411,292.8,413.9,288,413.5,283.3z"/>
				<linearGradient id="SVGID_15_" gradientUnits="userSpaceOnUse" x1="355.5253" y1="280.4037" x2="413.5291" y2="280.4037">
					<stop  offset="0" style="stop-color:#CFD0D0"/>
					<stop  offset="0.1528" style="stop-color:#D5D5D5"/>
					<stop  offset="0.6126" style="stop-color:#E3E2E2"/>
					<stop  offset="1" style="stop-color:#E8E7E7"/>
				</linearGradient>
				<path class="st48" d="M413.5,274.2L413,269c0.5,4.6-2.4,9.3-8.6,12.8c-11.3,6.3-29.3,6.1-40.2-0.4c-5.8-3.5-8.5-8.1-8-12.5
					l-0.6,5.2c-0.5,4.6,2.2,9.2,8.2,12.8c11.2,6.7,29.5,6.9,41,0.4C411,283.7,414,278.9,413.5,274.2z"/>
				<linearGradient id="SVGID_16_" gradientUnits="userSpaceOnUse" x1="355.5513" y1="271.3067" x2="413.5546" y2="271.3067">
					<stop  offset="0" style="stop-color:#CFD0D0"/>
					<stop  offset="0.1528" style="stop-color:#D5D5D5"/>
					<stop  offset="0.6126" style="stop-color:#E3E2E2"/>
					<stop  offset="1" style="stop-color:#E8E7E7"/>
				</linearGradient>
				<path class="st49" d="M413.5,265.1l-0.5-5.2c0.5,4.6-2.4,9.3-8.6,12.8c-11.3,6.3-29.3,6.1-40.2-0.4c-5.8-3.5-8.5-8.1-8-12.5
					l-0.6,5.2c-0.5,4.6,2.2,9.2,8.2,12.8c11.2,6.7,29.5,6.9,41,0.4C411.1,274.6,414,269.8,413.5,265.1z"/>
				<linearGradient id="SVGID_17_" gradientUnits="userSpaceOnUse" x1="355.5946" y1="295.0422" x2="413.4001" y2="295.0422">
					<stop  offset="0.2771" style="stop-color:#333839"/>
					<stop  offset="1" style="stop-color:#4C5458"/>
				</linearGradient>
				<path class="st50" d="M404.7,296.3L404.7,296.3c-11.5,6.4-29.8,6.3-41-0.4c-4.9-2.9-7.6-6.6-8.1-10.4l0.5,3.8
					c0.5,3.7,3.2,7.3,8,10.2c11,6.5,29,6.7,40.2,0.4c5.1-2.9,8-6.6,8.5-10.4l0.6-3.8C412.8,289.6,409.9,293.4,404.7,296.3z"/>
				<linearGradient id="SVGID_18_" gradientUnits="userSpaceOnUse" x1="355.5771" y1="262.2376" x2="413.5806" y2="262.2376">
					<stop  offset="0" style="stop-color:#CFD0D0"/>
					<stop  offset="0.1528" style="stop-color:#D5D5D5"/>
					<stop  offset="0.6126" style="stop-color:#E3E2E2"/>
					<stop  offset="1" style="stop-color:#E8E7E7"/>
				</linearGradient>
				<path class="st51" d="M413.5,256.1l-0.5-5.2c0.5,4.6-2.4,9.3-8.6,12.8c-11.3,6.3-29.3,6.1-40.2-0.4c-5.8-3.5-8.5-8.1-8-12.5
					l-0.6,5.2c-0.5,4.6,2.2,9.2,8.1,12.8c11.2,6.7,29.5,6.9,41,0.4C411.1,265.6,414,260.8,413.5,256.1z"/>
				<linearGradient id="SVGID_19_" gradientUnits="userSpaceOnUse" x1="355.6206" y1="285.9729" x2="413.4255" y2="285.9729">
					<stop  offset="0.2771" style="stop-color:#333839"/>
					<stop  offset="1" style="stop-color:#4C5458"/>
				</linearGradient>
				<path class="st52" d="M404.7,287.3c-11.5,6.4-29.8,6.3-41-0.4c-4.9-2.9-7.6-6.6-8.1-10.4l0.5,3.8c0.5,3.7,3.2,7.3,8,10.2
					c11,6.5,29,6.7,40.2,0.4c5.1-2.9,8-6.6,8.5-10.4l0.6-3.8C412.9,280.5,410,284.3,404.7,287.3z"/>
				<g>
					<g class="st38">
						<linearGradient id="SVGID_20_" gradientUnits="userSpaceOnUse" x1="357.4539" y1="255.055" x2="413.6187" y2="255.055">
							<stop  offset="0" style="stop-color:#A4A4A5"/>
							<stop  offset="3.825116e-02" style="stop-color:#A7A7A7"/>
							<stop  offset="0.4086" style="stop-color:#BDBCBD"/>
							<stop  offset="0.7407" style="stop-color:#CBCACA"/>
							<stop  offset="1" style="stop-color:#CFD0D0"/>
						</linearGradient>
						<path class="st53" d="M404.8,260c-13.9,13.7-48,3.6-47.4-7.6c5.8-3.3,56.1-4.5,56.2-8.9l0,4.5
							C413.6,252.4,410.7,256.7,404.8,260L404.8,260z"/>
					</g>
				</g>
				<linearGradient id="SVGID_21_" gradientUnits="userSpaceOnUse" x1="355.698" y1="258.7372" x2="413.5029" y2="258.7372">
					<stop  offset="0.2771" style="stop-color:#333839"/>
					<stop  offset="1" style="stop-color:#4C5458"/>
				</linearGradient>
				<path class="st54" d="M404.8,260c-11.5,6.4-29.8,6.3-41-0.4c-4.9-2.9-7.6-6.6-8.1-10.4l0.5,3.8c0.5,3.7,3.2,7.3,8,10.2
					c11,6.5,29,6.7,40.2,0.4c5.1-2.9,8-6.6,8.5-10.4l0.6-3.8C412.9,253.3,410,257.1,404.8,260z"/>
				<linearGradient id="SVGID_22_" gradientUnits="userSpaceOnUse" x1="355.6454" y1="276.8849" x2="413.4532" y2="276.8849">
					<stop  offset="0.2771" style="stop-color:#333839"/>
					<stop  offset="1" style="stop-color:#4C5458"/>
				</linearGradient>
				<path class="st55" d="M404.8,278.2c-11.5,6.4-29.8,6.3-41-0.4c-4.9-2.9-7.6-6.6-8.1-10.4l0.5,3.8c0.5,3.7,3.2,7.3,8,10.2
					c11,6.5,29,6.7,40.2,0.4c5.1-2.9,8-6.6,8.5-10.4l0.6-3.8C412.9,271.4,410,275.2,404.8,278.2z"/>
				<linearGradient id="SVGID_23_" gradientUnits="userSpaceOnUse" x1="355.672" y1="267.8067" x2="413.4775" y2="267.8067">
					<stop  offset="0.2771" style="stop-color:#333839"/>
					<stop  offset="1" style="stop-color:#4C5458"/>
				</linearGradient>
				<path class="st56" d="M404.8,269.1c-11.5,6.4-29.8,6.3-41-0.4c-4.9-2.9-7.6-6.6-8.1-10.4l0.5,3.8c0.5,3.7,3.2,7.3,8,10.2
					c11,6.5,29,6.7,40.2,0.4c5.1-2.9,8-6.6,8.5-10.4l0.6-3.8C412.9,262.4,410,266.2,404.8,269.1z"/>
				<path class="st42" d="M415.6,226l-5.7-8.6c3.8,5.7,1.6,12.4-6.4,16.9c-1.7,1-3.6,1.8-5.6,2.4c-1.9,0.6-3.9,1.1-5.9,1.4
					c-9.2,1.5-19.6,0.1-26.7-4.2c-7.6-4.6-9.5-11.1-5.8-16.6l-5.8,8.6c-4.6,6.8-2.2,14.8,7.1,20.4c8.8,5.3,21.5,7,32.8,5.2
					c2.5-0.4,5-1,7.3-1.7c2.4-0.8,4.7-1.8,6.8-3C417.6,241.2,420.3,233,415.6,226z"/>
				<path class="st43" d="M407.8,246.8c-13.2,7.4-34.2,7.2-47-0.5c-6.3-3.8-9.4-8.6-9.4-13.5l0,10.5c0,4.8,3.1,9.7,9.4,13.5
					c12.8,7.6,33.8,7.9,47,0.5c6.7-3.8,10-8.7,10.1-13.7l0-10.5C417.8,238,414.5,243,407.8,246.8z"/>
				<path class="st43" d="M403.6,216.1c-10.7,6-27.8,5.8-38.2-0.4c-5.1-3.1-7.7-7-7.6-11l-0.1,18.2c0,3.9,2.5,7.9,7.6,11
					c10.4,6.2,27.5,6.4,38.2,0.4c5.4-3.1,8.2-7.1,8.2-11.2l0.1-18.2C411.7,209,409,213.1,403.6,216.1z"/>
				<path class="st42" d="M404.1,194c-10.4-6.2-27.5-6.4-38.2-0.4c-10.7,6-10.9,15.9-0.5,22.1c10.4,6.2,27.5,6.4,38.2,0.4
					C414.3,210.1,414.5,200.2,404.1,194z"/>
				<path class="st43" d="M401.3,158.9c-9.3,5.2-24.2,5.1-33.2-0.3c-4.5-2.7-6.7-6.1-6.7-9.5l-0.2,55.7c0,3.4,2.2,6.9,6.7,9.5
					c9,5.4,23.9,5.6,33.2,0.3c4.7-2.7,7.1-6.2,7.1-9.7l0.2-55.7C408.4,152.8,406.1,156.3,401.3,158.9z"/>
				<linearGradient id="SVGID_24_" gradientUnits="userSpaceOnUse" x1="361.1843" y1="157.7298" x2="408.6759" y2="157.7298">
					<stop  offset="0" style="stop-color:#A4A4A5"/>
					<stop  offset="3.825116e-02" style="stop-color:#A7A7A7"/>
					<stop  offset="0.4086" style="stop-color:#BDBCBD"/>
					<stop  offset="0.7407" style="stop-color:#CBCACA"/>
					<stop  offset="1" style="stop-color:#CFD0D0"/>
				</linearGradient>
				<path class="st57" d="M404.3,156c-11,6.2-28.6,6-39.3-0.4c-1.5-0.9-2.8-1.9-3.8-2.9l3.7,3.5c0.9,0.9,2,1.7,3.2,2.4
					c9,5.4,23.9,5.6,33.2,0.3c1.4-0.8,2.7-1.7,3.7-2.6l3.7-3.5C407.5,153.9,406,155,404.3,156z"/>
				<linearGradient id="SVGID_25_" gradientUnits="userSpaceOnUse" x1="357.1407" y1="147.765" x2="412.7956" y2="147.765">
					<stop  offset="0" style="stop-color:#CFD0D0"/>
					<stop  offset="0.1528" style="stop-color:#D5D5D5"/>
					<stop  offset="0.6126" style="stop-color:#E3E2E2"/>
					<stop  offset="1" style="stop-color:#E8E7E7"/>
				</linearGradient>
				<path class="st58" d="M404.4,146.7c-11,6.2-28.6,6-39.3-0.4c-5.3-3.1-7.9-7.2-7.9-11.3l0,9.2c0,4.1,2.6,8.1,7.9,11.3
					c10.7,6.4,28.3,6.6,39.3,0.4c5.6-3.1,8.4-7.3,8.4-11.5l0-9.2C412.8,139.4,410,143.6,404.4,146.7z"/>
				<path class="st42" d="M412.4,132.6l-15.3-47.3c0.6,2.2-0.6,4.5-3.5,6.2c-4.8,2.7-12.5,2.6-17.2-0.2c-2.8-1.7-3.9-3.9-3.3-6.1
					l-15.6,47.2c-1.4,4.9,1.1,10,7.5,13.9c10.7,6.4,28.3,6.6,39.3,0.4C411.1,142.9,413.8,137.6,412.4,132.6z"/>
				<path class="st59" d="M386.2,58.8c-0.3,0.2-0.6,0.2-1,0.2L382,80.1c1.5,0,6.7,0,8.1-0.3c1.4-0.3,4.2-2.9,5.4-3.5L386.2,58.8z"/>
				<linearGradient id="SVGID_26_" gradientUnits="userSpaceOnUse" x1="373.0079" y1="67.9603" x2="397.3622" y2="67.9603">
					<stop  offset="0" style="stop-color:#E1E2E1"/>
					<stop  offset="0.2604" style="stop-color:#ECECEC"/>
					<stop  offset="0.5281" style="stop-color:#F2F2F2"/>
				</linearGradient>
				<path class="st60" d="M393.7,76.2l-7.5-17.4c0.5-0.3,0.6-0.7,0.3-1l9.4,10C398.4,70.5,397.7,73.9,393.7,76.2L393.7,76.2z
					 M374.5,67.7c-2.5,2.6-1.9,6,2,8.3c2.5,1.5,5.7,2.2,9,2.2L385.3,59c-0.4,0-0.8-0.1-1.1-0.3c-0.5-0.3-0.5-0.7-0.2-1L374.5,67.7
					L374.5,67.7z"/>
				<path class="st43" d="M393.7,76.2c-4.8,2.7-12.5,2.6-17.2-0.2c-2.3-1.4-3.5-3.2-3.4-4.9l0,15.3c0,1.8,1.1,3.6,3.4,4.9
					c4.7,2.8,12.4,2.9,17.2,0.2c2.5-1.4,3.7-3.2,3.7-5l0-15.3C397.4,73,396.1,74.8,393.7,76.2z"/>
				<linearGradient id="SVGID_27_" gradientUnits="userSpaceOnUse" x1="383.7322" y1="37.5177" x2="386.6804" y2="37.5177">
					<stop  offset="0" style="stop-color:#CFD0D0"/>
					<stop  offset="0.1528" style="stop-color:#D5D5D5"/>
					<stop  offset="0.6126" style="stop-color:#E3E2E2"/>
					<stop  offset="1" style="stop-color:#E8E7E7"/>
				</linearGradient>
				<path class="st61" d="M386.6,16c0,0.2-2.9,0.2-2.9,0l0,42.1c0,0.2,0.1,0.4,0.4,0.6c0.6,0.3,1.5,0.3,2.1,0
					c0.3-0.2,0.4-0.4,0.4-0.6L386.6,16z"/>
				<linearGradient id="SVGID_28_" gradientUnits="userSpaceOnUse" x1="382.8431" y1="15.98" x2="387.543" y2="15.98">
					<stop  offset="0" style="stop-color:#A4A4A5"/>
					<stop  offset="3.825116e-02" style="stop-color:#A7A7A7"/>
					<stop  offset="0.4086" style="stop-color:#BDBCBD"/>
					<stop  offset="0.7407" style="stop-color:#CBCACA"/>
					<stop  offset="1" style="stop-color:#CFD0D0"/>
				</linearGradient>
				<path class="st62" d="M387,15.5c-1,0.6-2.7,0.6-3.6,0c-0.2-0.1-0.4-0.3-0.5-0.4l1,1.3c0.1,0.1,0.2,0.2,0.3,0.2
					c0.6,0.3,1.5,0.3,2.1,0c0.1-0.1,0.2-0.2,0.3-0.3l1-1.3C387.4,15.3,387.2,15.4,387,15.5z"/>
				<linearGradient id="SVGID_29_" gradientUnits="userSpaceOnUse" x1="382.6305" y1="9.0875" x2="387.7862" y2="9.0875">
					<stop  offset="0" style="stop-color:#E1E2E1"/>
					<stop  offset="0.2604" style="stop-color:#ECECEC"/>
					<stop  offset="0.5281" style="stop-color:#F2F2F2"/>
				</linearGradient>
				<path class="st63" d="M387.4,8.9L385.2,7l-2.1,1.8c-0.7,0.6-0.6,1.4,0.3,1.9c0.5,0.3,1.1,0.4,1.7,0.5c0.7,0,1.4-0.1,1.9-0.4
					c0.1,0,0.1-0.1,0.2-0.1C387.9,10.1,388,9.4,387.4,8.9z"/>
				<linearGradient id="SVGID_30_" gradientUnits="userSpaceOnUse" x1="382.6171" y1="12.8167" x2="387.7865" y2="12.8167">
					<stop  offset="0" style="stop-color:#CFD0D0"/>
					<stop  offset="0.1528" style="stop-color:#D5D5D5"/>
					<stop  offset="0.6126" style="stop-color:#E3E2E2"/>
					<stop  offset="1" style="stop-color:#E8E7E7"/>
				</linearGradient>
				<path class="st64" d="M387,10.8c-1,0.6-2.7,0.6-3.6,0c-0.5-0.3-0.7-0.7-0.7-1l0,4.8c0,0.4,0.2,0.8,0.7,1c1,0.6,2.6,0.6,3.6,0
					c0.5-0.3,0.8-0.7,0.8-1.1l0-4.8C387.8,10.1,387.5,10.5,387,10.8z"/>
			</g>
			<path class="st59" d="M385.1,11.2l0.1-4.2l1.8,3.8C386.5,11.1,385.8,11.2,385.1,11.2L385.1,11.2z"/>
		</g>
	</g>
	<g class="st38">
		<g>
			<polygon class="st39" points="329.7,552.1 328,551.1 327.9,541.7 329.7,542.7 			"/>
		</g>
		<g>
			<polygon class="st65" points="329.7,542.7 327.9,541.7 359.1,481.6 360.9,482.6 			"/>
		</g>
		<g>
			<polygon class="st40" points="360.9,482.6 361,534 329.7,552.1 329.7,542.7 			"/>
		</g>
	</g>
	<g class="st38">
		<g>
			<polygon class="st40" points="440.3,541.8 442.1,540.8 442,550.1 440.3,551.1 			"/>
		</g>
		<g>
			<polygon class="st66" points="409.1,481.6 410.9,480.6 442.1,540.8 440.3,541.8 			"/>
		</g>
		<g>
			<polygon class="st39" points="409.1,481.6 440.3,541.8 440.3,551.1 409,533.1 			"/>
		</g>
	</g>
	<g>
		<ellipse class="st67" cx="541.6" cy="623.2" rx="5" ry="7.3"/>
	</g>
	<g>
		<linearGradient id="SVGID_31_" gradientUnits="userSpaceOnUse" x1="380.279" y1="480.9337" x2="394.6725" y2="480.9337">
			<stop  offset="6.898018e-03" style="stop-color:#F8E2BD"/>
			<stop  offset="7.541139e-02" style="stop-color:#F8E1BB"/>
			<stop  offset="0.1212" style="stop-color:#F8DEB3"/>
			<stop  offset="0.1602" style="stop-color:#F8D8A6"/>
			<stop  offset="0.1956" style="stop-color:#F8D094"/>
			<stop  offset="0.2284" style="stop-color:#F7C67F"/>
			<stop  offset="0.259" style="stop-color:#F6BA64"/>
			<stop  offset="0.2768" style="stop-color:#F5B24F"/>
			<stop  offset="0.376" style="stop-color:#F5B455"/>
			<stop  offset="0.5193" style="stop-color:#F6BB66"/>
			<stop  offset="0.6892" style="stop-color:#F7C67F"/>
			<stop  offset="0.8781" style="stop-color:#F8D6A2"/>
			<stop  offset="0.9996" style="stop-color:#F8E2BD"/>
		</linearGradient>
		<circle class="st68" cx="387.5" cy="480.9" r="7.2"/>
		<circle class="st69" cx="387.3" cy="481.8" r="4.5"/>
	</g>
	<g>
		<g>
			<path class="st10" d="M472.1,674.7c-5.3,0-10.5-0.8-14.8-3.1c-2.3-1.3-4.2-3.1-5.5-5.2c-5.1-0.2-10.1-0.9-14.9-2.1
				c-1.5-0.4-5.1-1.3-6.7-4.4c-1-2-1.2-4-0.6-6c1.6-4.7,7.7-7.5,13.7-10.3c3.1-1.4,7.8-3.6,8.5-5c1.9-3.8,2.3-8.4,2.6-12.7
				c0.6-10.1,0.4-20.3-0.4-30.3c-0.4-5.1-1.1-10.4-3.7-14.5c-4.4-6.8-13.8-10.4-28.1-10.5c-5.7-0.1-11.5,0.3-17.1,0.7
				c-9.3,0.6-18.9,1.2-28.5-0.1c-2.8-0.4-5.7-0.9-8.4-2.4c-3.4-2-5.5-5.6-5.3-9.1c0.3-4.3,3.6-7.9,9.5-10c7.2-2.6,14.9-3.6,22.4-4.5
				c9.6-1.2,18.6-2.3,26.5-6.7c1.2-0.7,1.8-1.4,2-1.7c-0.1-0.1-0.4-0.4-1.3-0.8c-2.2-1.2-4.6-2-7.2-3c-1.9-0.7-3.9-1.4-5.8-2.2
				c-17.9-8-28-27.7-24.9-47.8c0.3-1.9,2.1-3.1,4-2.7l0,0c1.7,0.4,2.8,2,2.5,3.7c-2.7,17.2,5.9,34,21.1,40.8c1.7,0.8,3.5,1.4,5.3,2
				c2.7,1,5.4,1.9,8.1,3.3c1.6,0.9,3.9,2.4,4.6,5.1c0.8,3.3-1.1,6.6-5.2,8.9c-9,5.1-19.1,6.3-28.9,7.5c-7.4,0.9-14.4,1.8-20.9,4.1
				c-1.2,0.4-5.1,2-5.2,4.2c-0.1,1,0.8,2.3,2.1,3c1.6,0.9,3.7,1.3,5.9,1.6c9,1.2,17.9,0.6,27.2,0c5.7-0.4,11.7-0.7,17.6-0.7
				c16.6,0.2,27.9,4.8,33.5,13.6c3.5,5.4,4.3,11.8,4.7,17.5c0.9,10.4,1,20.9,0.4,31.3c-0.3,5.1-0.8,10.5-3.3,15.4
				c-1.7,3.3-6.3,5.5-11.6,7.9c-3.8,1.8-9.6,4.4-10.2,6.4c0,0.1-0.1,0.3,0.2,0.8c0.1,0.2,0.6,0.6,2.5,1.1c3.7,0.9,7.6,1.5,11.6,1.8
				c0.3-5.6,4.9-10.7,12.5-13.7c5.3-2.1,18.9-6.6,29.4-2.9c3,1.1,5,3,5.7,5.4c0.7,2.4-0.1,5.2-2.1,7.3c-1.5,1.5-3.3,2.4-4.8,3.1
				c-9.4,4.1-19.5,6.6-29.4,7.3c6.7,3.2,17.1,1.7,24.8,0.6c9.1-1.3,18.7-3.9,28.6-7.9c5.5-2.2,11.1-4.8,15-9.1c3.7-4,3.9-7.7,4-13.9
				c0-3.3,0.1-9.5,3.4-14.1c1.3-1.8,4-1.7,5.3,0.1l0,0c0.8,1.1,0.9,2.6,0.1,3.7c-1.8,2.5-2.1,6.4-2.2,10.4
				c-0.1,6.3-0.2,12.2-5.7,18.2c-4.8,5.3-11.2,8.3-17.5,10.7c-10.4,4.1-20.4,6.9-30,8.2C482.6,674,477.3,674.7,472.1,674.7z
				 M482.9,648.3c-5.9,0-12.6,1.8-17.9,3.8c-3.9,1.5-8,4.3-8.4,7.7c10.5-0.2,21.3-2.6,31.4-7c1.1-0.5,2.1-1,2.8-1.6
				c0.4-0.4,0.5-0.8,0.5-0.9c0-0.1-0.5-0.6-1.6-1C487.8,648.6,485.4,648.3,482.9,648.3z"/>
		</g>
	</g>
	<g>
		<path class="st70" d="M539.9,617.2c-0.7,0-1.4-0.4-1.7-1l-4.6-8.5c-0.5-1-0.2-2.2,0.8-2.7c1-0.5,2.2-0.2,2.7,0.8l4.6,8.5
			c0.5,1,0.2,2.2-0.8,2.7C540.5,617.1,540.2,617.2,539.9,617.2z"/>
	</g>
	<path class="st70" d="M389.5,479.7c-0.1-0.7,0.2-1.4,0.8-1.9l7.9-5.6c0.9-0.6,2.1-0.4,2.7,0.5c0.6,0.9,0.4,2.1-0.5,2.7l-7.9,5.6
		c-0.9,0.6-2.1,0.4-2.7-0.5C389.6,480.3,389.5,480,389.5,479.7z"/>
	<g class="st71">
		<path class="st13" d="M114.9,655.1c-1.3-0.7-3.7-0.2-6.1,0.5l-34.6-25.3L50.7,620c-0.3-0.6-1.3-2-3.7-3.2c-3.1-1.5-12,2.8-12,2.8
			l7,2.8c0,0,3.2,1.1,5.7-0.1l23.4,10.2l34.6,24.1c-1.7,0.7-2.9,1.3-2.9,1.3l7,2.8c0,0,3.7,1.3,6.3-0.4
			C118.8,658.6,117.9,656.6,114.9,655.1z"/>
		<path class="st13" d="M164.1,626.6c-1.6-0.8-4.8,0-7.5,1L94.1,592l-5.1,3.9l62.1,33c1.7,0.2,1.1,0.5,1.1,0.5l7,2.8
			c0,0,3.7,1.3,6.3-0.4C168.1,630.1,167.2,628.2,164.1,626.6z"/>
	</g>
	<g>
		<g>
			<g>
				<path class="st72" d="M155.7,629l4.7-2.4c3.9-2,4.8-8.1,2-13.7c-2.8-5.6-8.2-8.5-12.1-6.6l-4.7,2.4L155.7,629z"/>
			</g>
			<g>
				
					<ellipse transform="matrix(0.8939 -0.4482 0.4482 0.8939 -261.4096 133.1873)" class="st73" cx="150.7" cy="618.9" rx="7.9" ry="11.3"/>
			</g>
			<g>
				
					<ellipse transform="matrix(0.8939 -0.4482 0.4482 0.8939 -261.7681 132.9522)" class="st74" cx="150" cy="619.6" rx="4.3" ry="6.5"/>
			</g>
		</g>
		<g>
			<path class="st73" d="M65.4,564.8v36.6c0,10.7,12.4,19.4,27.8,19.4c15.3,0,27.8-8.7,27.8-19.4v-36.6H65.4z"/>
		</g>
		<g>
			<path class="st10" d="M109.7,649c-12.2-12.9-31.4-34.7-34.1-37.1c-3.1-0.7-25.9-2.8-39.5-4.7l0.6-4.4c25.5,3.5,39,5.5,40.2,6.1
				c1.2,0.6,13.3,13.1,36.1,37L109.7,649z"/>
		</g>
		<g>
			<path class="st10" d="M149.9,623c-12.2-12.9-31.4-34.7-34.1-37.1c-3.1-0.7-25.9-2.8-39.5-4.7l0.6-4.4c25.5,3.5,39,5.5,40.2,6.1
				c1.2,0.6,13.3,13.1,36.1,37L149.9,623z"/>
		</g>
		<g>
			<g>
				<path class="st72" d="M107,657.6l4.7-2.4c3.9-2,4.8-8.1,2-13.7c-2.8-5.6-8.2-8.5-12.1-6.6l-4.7,2.4L107,657.6z"/>
			</g>
			<g>
				
					<ellipse transform="matrix(0.8939 -0.4482 0.4482 0.8939 -279.3926 114.3864)" class="st73" cx="102" cy="647.5" rx="7.9" ry="11.3"/>
			</g>
			<g>
				
					<ellipse transform="matrix(0.8939 -0.4482 0.4482 0.8939 -279.4736 114.3809)" class="st75" cx="101.9" cy="647.7" rx="5.6" ry="8.5"/>
			</g>
			<g>
				<path class="st74" d="M100,648.7c-1.7-3.4-1.7-7-0.2-9c-0.6,0-1.2,0.1-1.7,0.4c-2.8,1.4-3.3,5.9-1.2,10.1
					c2.1,4.2,6.1,6.5,8.8,5.1c0.5-0.3,1-0.7,1.3-1.1C104.6,654.2,101.7,652.1,100,648.7z"/>
			</g>
		</g>
		<g>
			<g>
				<path class="st72" d="M42.1,620.1l4.7-2.4c3.9-2,4.8-8.1,2-13.7c-2.8-5.6-8.2-8.5-12.1-6.6l-4.7,2.4L42.1,620.1z"/>
			</g>
			<g>
				
					<ellipse transform="matrix(0.8939 -0.4482 0.4482 0.8939 -269.4702 81.3179)" class="st73" cx="37.1" cy="610" rx="7.9" ry="11.3"/>
			</g>
			<g>
				
					<ellipse transform="matrix(0.8939 -0.4482 0.4482 0.8939 -269.5511 81.3124)" class="st75" cx="37" cy="610.2" rx="5.6" ry="8.5"/>
			</g>
			<g>
				<path class="st74" d="M35.1,611.2c-1.7-3.4-1.7-7-0.2-9c-0.6,0-1.2,0.1-1.7,0.4c-2.8,1.4-3.3,5.9-1.2,10.1
					c2.1,4.2,6.1,6.5,8.8,5.1c0.5-0.3,1-0.7,1.3-1.1C39.7,616.7,36.8,614.6,35.1,611.2z"/>
			</g>
		</g>
		<g>
			
				<ellipse transform="matrix(0.9153 -0.4029 0.4029 0.9153 -242.7931 66.5504)" class="st76" cx="36.8" cy="610.4" rx="3.1" ry="4.2"/>
		</g>
		<g>
			
				<ellipse transform="matrix(0.9153 -0.4029 0.4029 0.9153 -252.5578 96.0933)" class="st76" cx="102.1" cy="648.4" rx="3.1" ry="4.2"/>
		</g>
		<g>
			
				<ellipse transform="matrix(0.9153 -0.4029 0.4029 0.9153 -237.0527 112.8235)" class="st75" cx="149.6" cy="619.9" rx="3.1" ry="4.2"/>
		</g>
		<g>
			<path class="st72" d="M61.1,573.7v18.5c0,12.4,14.3,22.4,32,22.4c17.7,0,32-10,32-22.4v-18.5H61.1z"/>
		</g>
		<g>
			<radialGradient id="SVGID_32_" cx="93.1505" cy="576.2873" r="31.6857" gradientUnits="userSpaceOnUse">
				<stop  offset="0" style="stop-color:#FFFFFF"/>
				<stop  offset="1" style="stop-color:#DCDBDB"/>
			</radialGradient>
			<ellipse class="st77" cx="93.2" cy="576.3" rx="36.7" ry="25.7"/>
		</g>
		<g>
			<ellipse class="st69" cx="93.2" cy="579.8" rx="13.3" ry="9.3"/>
		</g>
		<g>
			<g>
				<path class="st10" d="M90.3,517.1l-2,62.6c0,1.9,2.2,3.4,4.9,3.4c2.7,0,4.9-1.5,4.9-3.4l-2-62.6H90.3z"/>
			</g>
			<g>
				<ellipse class="st78" cx="93.2" cy="517.1" rx="2.9" ry="2"/>
			</g>
		</g>
	</g>
	<g>
		<g>
			<g>
				<polygon class="st19" points="568.1,651.5 589.7,639.5 591.9,640.6 568.2,654.1 				"/>
			</g>
			<polygon class="st20" points="592.3,586.4 592.3,640.7 590.1,639.6 590.1,587.9 			"/>
			<g>
				<line class="st79" x1="572" y1="628.6" x2="572" y2="633.7"/>
				<line class="st80" x1="576.7" y1="625.8" x2="576.7" y2="630.9"/>
				<line class="st79" x1="581.4" y1="623.1" x2="581.4" y2="628.2"/>
				<line class="st79" x1="586.1" y1="620.3" x2="586.1" y2="625.4"/>
			</g>
			<g>
				<line class="st81" x1="572" y1="617.4" x2="572" y2="622.5"/>
				<line class="st82" x1="576.7" y1="614.6" x2="576.7" y2="619.7"/>
				<line class="st83" x1="581.4" y1="611.9" x2="581.4" y2="616.9"/>
				<line class="st84" x1="586.1" y1="609.1" x2="586.1" y2="614.2"/>
			</g>
			<g>
				<line class="st81" x1="572" y1="606.2" x2="572" y2="611.3"/>
				<line class="st85" x1="576.7" y1="603.4" x2="576.7" y2="608.5"/>
				<line class="st81" x1="581.4" y1="600.7" x2="581.4" y2="605.7"/>
				<line class="st81" x1="586.1" y1="597.9" x2="586.1" y2="603"/>
			</g>
			<g>
				<path class="st86" d="M574.1,638.8v4.5l-2.2,1.2v-4.4C572,640.1,574.1,638.8,574.1,638.8z"/>
				<path class="st4" d="M578.3,636.5v4.5l-2.2,1.2v-4.4C576.2,637.8,578.3,636.5,578.3,636.5z"/>
				<path class="st4" d="M582.5,634.1v4.5l-2.2,1.2v-4.4C580.3,635.3,582.5,634.1,582.5,634.1z"/>
				<path class="st4" d="M586.7,631.5v4.5l-2.2,1.2v-4.4C584.5,632.8,586.7,631.5,586.7,631.5z"/>
			</g>
		</g>
		<g>
			<g>
				<polygon class="st19" points="594.2,636.3 615.7,624.3 617.9,625.3 594.2,638.9 				"/>
			</g>
			<polygon class="st20" points="618.6,571.3 618.6,625.3 616.4,624.3 616.4,572.8 			"/>
			<g>
				<line class="st79" x1="598.1" y1="613.4" x2="598.1" y2="618.4"/>
				<line class="st79" x1="602.8" y1="610.6" x2="602.8" y2="615.7"/>
				<line class="st85" x1="607.5" y1="607.8" x2="607.5" y2="612.9"/>
				<line class="st79" x1="612.2" y1="605.1" x2="612.2" y2="610.1"/>
			</g>
			<g>
				<line class="st79" x1="598.1" y1="602.2" x2="598.1" y2="607.2"/>
				<line class="st83" x1="602.8" y1="599.4" x2="602.8" y2="604.5"/>
				<line class="st79" x1="607.5" y1="596.6" x2="607.5" y2="601.7"/>
				<line class="st79" x1="612.2" y1="593.9" x2="612.2" y2="598.9"/>
			</g>
			<g>
				<line class="st80" x1="598.1" y1="590.9" x2="598.1" y2="596"/>
				<line class="st87" x1="602.8" y1="588.2" x2="602.8" y2="593.2"/>
				<line class="st82" x1="607.5" y1="585.4" x2="607.5" y2="590.5"/>
				<line class="st79" x1="612.2" y1="582.6" x2="612.2" y2="587.7"/>
			</g>
			<g>
				<path class="st4" d="M600.2,623.6v4.5l-2.2,1.2v-4.4C598,624.9,600.1,623.6,600.2,623.6z"/>
				<path class="st4" d="M604.4,621.3v4.5l-2.2,1.2v-4.4C602.2,622.6,604.3,621.3,604.4,621.3z"/>
				<path class="st4" d="M608.6,618.8v4.5l-2.2,1.2v-4.4C606.4,620.1,608.5,618.8,608.6,618.8z"/>
				<path class="st4" d="M612.8,616.3v4.5l-2.2,1.2v-4.4C610.6,617.6,612.7,616.3,612.8,616.3z"/>
			</g>
		</g>
		<g>
			<g>
				<polygon class="st19" points="620.4,621.7 644.4,608.6 646.6,609.7 620.5,624.3 				"/>
			</g>
			<polygon class="st20" points="646.6,555.5 646.6,609.7 644.4,608.6 644.4,556.9 			"/>
			<g>
				<line class="st80" x1="626.8" y1="597.7" x2="626.8" y2="602.8"/>
				<line class="st79" x1="631.5" y1="594.9" x2="631.5" y2="600"/>
				<line class="st83" x1="636.2" y1="592.2" x2="636.2" y2="597.3"/>
				<line class="st85" x1="640.9" y1="589.4" x2="640.9" y2="594.5"/>
			</g>
			<g>
				<line class="st83" x1="626.8" y1="586.5" x2="626.8" y2="591.6"/>
				<line class="st88" x1="631.5" y1="583.7" x2="631.5" y2="588.8"/>
				<line class="st79" x1="636.2" y1="581" x2="636.2" y2="586.1"/>
				<line class="st79" x1="640.9" y1="578.2" x2="640.9" y2="583.3"/>
			</g>
			<g>
				<line class="st79" x1="626.8" y1="575.3" x2="626.8" y2="580.4"/>
				<line class="st79" x1="631.5" y1="572.5" x2="631.5" y2="577.6"/>
				<line class="st80" x1="636.2" y1="569.8" x2="636.2" y2="574.9"/>
				<line class="st79" x1="640.9" y1="567" x2="640.9" y2="572.1"/>
			</g>
			<g>
				<path class="st4" d="M628.9,607.9v4.5l-2.2,1.2v-4.4C626.7,609.2,628.8,607.9,628.9,607.9z"/>
				<path class="st4" d="M633.1,605.6v4.5l-2.2,1.2v-4.4C630.9,606.9,633,605.6,633.1,605.6z"/>
				<path class="st89" d="M637.2,603.2v4.5l-2.2,1.2v-4.4C635.1,604.5,637.2,603.2,637.2,603.2z"/>
				<path class="st4" d="M641.4,600.7v4.5l-2.2,1.2v-4.4C639.3,601.9,641.4,600.7,641.4,600.7z"/>
			</g>
		</g>
	</g>
	<polygon class="st14" points="387.7,683.1 401.8,686.8 417,677.9 413.4,668.6 	"/>
	<polygon class="st14" points="267,616.2 281.2,619.8 297.3,610.7 293.7,601.4 	"/>
	<ellipse class="st26" cx="578.9" cy="574.1" rx="15.1" ry="8.6"/>
	<g>
		<g>
			<path class="st21" d="M561.4,565.6v6.3c0,5.2,6,9.4,13.4,9.4c7.4,0,13.4-4.2,13.4-9.4v-6.3H561.4z"/>
		</g>
		<ellipse class="st19" cx="574.8" cy="565.6" rx="13.4" ry="9.4"/>
		<g>
			<ellipse class="st4" cx="574.6" cy="565.4" rx="10.1" ry="6.6"/>
		</g>
		<g>
			<path class="st21" d="M574.6,562.9c4.5,0,8.3,1.9,9.6,4.6c0.3-0.6,0.5-1.3,0.5-2c0-3.7-4.5-6.6-10.1-6.6c-5.6,0-10.1,3-10.1,6.6
				c0,0.7,0.2,1.4,0.5,2C566.3,564.8,570.1,562.9,574.6,562.9z"/>
		</g>
	</g>
	<g>
		<path class="st90" d="M385.9,424.5v-1.2c0.6,0,1-0.1,1.2-0.2c0.4-0.2,0.6-0.6,0.6-1.1c0-0.4-0.1-0.7-0.4-1c-0.3-0.3-0.6-0.4-1-0.4
			c-0.4,0-0.7,0.1-0.9,0.3c-0.2,0.2-0.4,0.5-0.5,1h-1.4c0.1-0.9,0.4-1.5,0.9-1.9c0.5-0.4,1.1-0.6,1.9-0.6c0.8,0,1.5,0.2,2,0.7
			c0.5,0.5,0.8,1.1,0.8,1.9c0,0.9-0.3,1.5-1,2c0.8,0.5,1.2,1.2,1.2,2.2c0,0.8-0.3,1.5-0.8,2.1c-0.6,0.5-1.3,0.8-2.2,0.8
			c-1.1,0-2-0.4-2.5-1.2c-0.2-0.3-0.4-0.8-0.4-1.4h1.4c0.1,0.5,0.2,0.8,0.5,1s0.6,0.4,1.1,0.4c0.5,0,0.8-0.2,1.1-0.5
			c0.3-0.3,0.4-0.7,0.4-1.2c0-0.6-0.2-1.1-0.7-1.3C386.8,424.6,386.4,424.5,385.9,424.5z"/>
		<path class="st90" d="M387.5,434.1l1,0.8l-2.2,3c0.1,0,0.2,0,0.3,0c0.1,0,0.2,0,0.2,0c0.8,0,1.4,0.3,2,0.9
			c0.5,0.6,0.8,1.3,0.8,2.1c0,0.9-0.3,1.6-0.9,2.2c-0.6,0.6-1.3,0.9-2.2,0.9c-0.8,0-1.6-0.3-2.2-0.9c-0.6-0.6-0.9-1.3-0.9-2.1
			c0-0.7,0.3-1.5,0.9-2.3L387.5,434.1z M388.3,440.8c0-0.5-0.2-0.9-0.5-1.3c-0.3-0.3-0.8-0.5-1.3-0.5c-0.5,0-0.9,0.2-1.3,0.5
			c-0.3,0.3-0.5,0.8-0.5,1.2c0,0.5,0.2,0.9,0.5,1.2c0.3,0.3,0.8,0.5,1.3,0.5c0.5,0,0.9-0.2,1.2-0.5
			C388.1,441.7,388.3,441.3,388.3,440.8z"/>
		<path class="st90" d="M389.2,450.6h-2.9l-0.5,1.5c0.1,0,0.1,0,0.2,0s0.1,0,0.2,0c0.9,0,1.7,0.3,2.2,0.9c0.6,0.6,0.9,1.4,0.9,2.3
			c0,1-0.3,1.8-1,2.4c-0.7,0.6-1.5,1-2.5,1c-1.2,0-2.2-0.6-2.9-1.7l1.1-0.9c0.3,0.5,0.6,0.9,0.9,1.1c0.3,0.2,0.7,0.3,1.1,0.3
			c0.6,0,1-0.2,1.4-0.6c0.4-0.4,0.6-0.9,0.6-1.5c0-0.6-0.2-1.1-0.6-1.5c-0.4-0.4-0.9-0.6-1.4-0.6c-0.6,0-1.2,0.3-1.6,0.8h-0.5
			l1.5-4.9h3.9V450.6z"/>
	</g>
	<g>
		
			<ellipse transform="matrix(0.2132 -0.977 0.977 0.2132 -40.5387 1154.368)" class="st91" cx="696.5" cy="602.4" rx="3.2" ry="3.2"/>
		
			<ellipse transform="matrix(0.9996 -2.772607e-02 2.772607e-02 0.9996 -14.9698 18.8145)" class="st91" cx="671" cy="549.2" rx="4" ry="4"/>
		<path class="st92" d="M667.7,572.8c3.7,0,8-3.1,10.8-6.9c1-1.3,0.7-3.1-0.6-4.1c-1.3-1-3.1-0.7-4.1,0.6c-2.1,2.8-4.6,4.3-5.8,4.5
			c-0.1-0.9-0.1-4.1,4.1-12.4c0.7-1.4,0.2-3.2-1.3-3.9c-1.4-0.7-3.2-0.2-3.9,1.3c-2.6,5.1-4.1,9.2-4.6,12.4
			c-0.7,4.7,0.9,6.8,2.5,7.7C665.7,572.6,666.7,572.8,667.7,572.8z"/>
		<path class="st93" d="M680.1,652.3c-0.8-0.8-0.8-2-0.1-2.8l4.7-5.6c0.5-0.6,1.2-1,2-1c0.8,0,1.6,0.2,2.1,0.8
			c0.6,0.6,0.9,1.4,0.9,2.2c0,0.8-0.4,1.6-1.1,2.1l-5.7,4.6c-0.4,0.3-0.9,0.5-1.3,0.5C681.1,653,680.5,652.7,680.1,652.3z
			 M682.9,651.9C682.9,651.9,682.9,651.9,682.9,651.9L682.9,651.9z"/>
		<path class="st94" d="M686.9,647c1.3,0,2.3-1,2.3-2.3v-7.2c0-1.3-1-2.3-2.3-2.3s-2.3,1-2.3,2.3v7.2C684.6,646,685.6,647,686.9,647
			z"/>
		<path class="st93" d="M667.5,642c-0.3-1,0.2-2.1,1.2-2.5l6.7-2.8c0.7-0.3,1.6-0.3,2.3,0c0.7,0.3,1.3,0.9,1.5,1.7
			c0.3,0.8,0.2,1.6-0.3,2.3c-0.4,0.7-1.1,1.2-1.9,1.3l-7.2,1.4c-0.1,0-0.3,0-0.4,0C668.6,643.5,667.8,642.9,667.5,642z M670.2,642.9
			L670.2,642.9L670.2,642.9z"/>
		<path class="st94" d="M676.3,640.6c1.3,0,2.3-1,2.3-2.3v-7.2c0-1.3-1-2.3-2.3-2.3c-1.3,0-2.3,1-2.3,2.3v7.2
			C673.9,639.6,675,640.6,676.3,640.6z"/>
		<path class="st95" d="M686.9,642.9c0,0,0.1,0,0.1,0c1.6-0.1,2.9-1.5,2.8-3.1l-2-42.4c-0.1-1.6-1.5-2.9-3.1-2.8
			c-1.6,0.1-2.9,1.5-2.8,3.1l2,42.4C684.1,641.7,685.4,642.9,686.9,642.9z"/>
		<path class="st95" d="M676.3,636.8c1.6,0,2.9-1.3,2.9-2.8l1.2-41.5c0-1.6-1.2-3-2.8-3c0,0-0.1,0-0.1,0c-1.6,0-2.9,1.3-2.9,2.8
			l-1.2,41.5C673.3,635.4,674.6,636.7,676.3,636.8C676.2,636.8,676.3,636.8,676.3,636.8z"/>
		<g>
			<polygon class="st96" points="677.5,592.3 684.9,597.6 684.9,588.1 677.8,586.6 			"/>
			<path class="st95" d="M674.5,593.8l0.5-10.7l12.8,2.6v17.7L674.5,593.8z M680.5,590.2l0,0.7l1.5,1v-1.5L680.5,590.2z"/>
		</g>
		<path class="st94" d="M689.2,593.4c0-12.9,0-16.4,0-25.5c0-11.9-15-10.3-16.2-3.5c-1,6.1-0.6,23.4-0.6,26.9c0,1,1.3,2,3.2,2.8
			c0.5,0.2,1.8-8.2,1.8-8.2s1.1,9.2,1.8,9.4C683.9,596.4,689.2,596.4,689.2,593.4z"/>
		<g>
			<path class="st92" d="M696.5,600.9c1.6,0,2.9-1.3,2.9-2.9c0-13.6-5.5-24.2-9.1-31.1c-0.6-1.1-1.1-2.1-1.5-3
				c-0.7-1.5-2.5-2.1-3.9-1.3c-1.5,0.7-2.1,2.5-1.3,3.9c0.5,1,1,2,1.6,3.1c3.4,6.5,8.5,16.2,8.5,28.4
				C693.5,599.6,694.8,600.9,696.5,600.9z"/>
		</g>
		<path class="st59" d="M678.4,560.6c-1.5,3.6-0.9,15.7-0.9,15.7s6-11.2,5.9-15.3c0-0.8-1-2-2.4-2
			C679.6,559.1,678.7,559.9,678.4,560.6z"/>
		<path class="st91" d="M680.8,562.5c0.2,0,0.3,0,0.5-0.1c1-0.3,1.6-1.3,1.3-2.3l-1.8-6.7c-0.3-1-1.3-1.6-2.3-1.3
			c-1,0.3-1.6,1.3-1.3,2.3l1.8,6.7C679.3,562,680,562.5,680.8,562.5z"/>
		<circle class="st91" cx="678.6" cy="550.3" r="6.3"/>
		
			<ellipse transform="matrix(0.2309 -0.973 0.973 0.2309 -6.0069 1083.9614)" class="st93" cx="682.6" cy="545.8" rx="2.8" ry="2.8"/>
		<circle class="st93" cx="680.2" cy="544" r="2.8"/>
		<circle class="st93" cx="677.1" cy="544" r="2.8"/>
		
			<ellipse transform="matrix(0.1608 -0.987 0.987 0.1608 27.1598 1122.811)" class="st93" cx="673.8" cy="545.4" rx="2.8" ry="2.8"/>
		<circle class="st93" cx="670.8" cy="547.8" r="2.8"/>
		<path class="st93" d="M678.8,546.8c0-0.8,0.6-1.4,1.4-1.4s1.4,0.6,1.4,1.4s-0.6,1.4-1.4,1.4S678.8,547.6,678.8,546.8z"/>
		<path class="st93" d="M676.7,546.4c0-0.8,0.6-1.4,1.4-1.4c0.8,0,1.4,0.6,1.4,1.4c0,0.8-0.6,1.4-1.4,1.4
			C677.3,547.8,676.7,547.2,676.7,546.4z"/>
		<path class="st93" d="M674.4,546.8c0-0.8,0.6-1.4,1.4-1.4s1.4,0.6,1.4,1.4s-0.6,1.4-1.4,1.4S674.4,547.6,674.4,546.8z"/>
		<circle class="st93" cx="673.8" cy="547.8" r="1.4"/>
	</g>
	<g>
		<path class="st93" d="M220.5,711.7l7-4c1.1-0.6,1.5-2.1,0.8-3.1l-0.5-0.9c-0.6-1.1-2.1-1.5-3.2-0.8l-7,4c-1.1,0.6-1.5,2.1-0.8,3.1
			l0.5,0.9C218,711.9,219.4,712.3,220.5,711.7z"/>
		<path class="st93" d="M213.6,705.8l7-4c1.1-0.6,1.5-2.1,0.8-3.1l-0.5-0.9c-0.6-1.1-2.1-1.5-3.2-0.8l-7,4c-1.1,0.6-1.5,2.1-0.8,3.1
			l0.5,0.9C211.1,706.1,212.5,706.4,213.6,705.8z"/>
		
			<rect x="212.6" y="655.9" transform="matrix(-1 -1.224647e-16 1.224647e-16 -1 440.9965 1329.7219)" class="st95" width="15.7" height="17.8"/>
		<g>
			<g>
				
					<rect x="206.2" y="635.4" transform="matrix(-0.9726 -0.2325 0.2325 -0.9726 263.1953 1311.1582)" class="st97" width="5.3" height="9.4"/>
				<path class="st98" d="M205.2,644c-0.3,1.4,0.5,2.9,2,3.2c1.4,0.3,2.9-0.5,3.2-2c0.3-1.4-0.5-2.9-2-3.2
					C207,641.7,205.5,642.6,205.2,644z"/>
			</g>
			<g>
				<polygon class="st97" points="210.4,644.1 205.3,645.7 212.8,665.8 214.7,665.2 				"/>
				<path class="st97" d="M210.3,643.8c-0.4-1.4-1.9-2.2-3.3-1.7c-1.4,0.4-2.2,1.9-1.7,3.3c0.4,1.4,1.9,2.2,3.3,1.7
					C210,646.7,210.7,645.2,210.3,643.8z"/>
				<path class="st98" d="M211.7,663.4c-0.8,1-0.6,2.4,0.4,3.2c1,0.8,2.4,0.6,3.2-0.4c0.8-1,0.6-2.4-0.4-3.2
					C213.9,662.2,212.5,662.4,211.7,663.4z"/>
			</g>
			<path class="st99" d="M214.5,633.8l-2.1,6.2c-0.4,1.4-2.1,2.1-3.8,1.6c-1.7-0.5-2.8-2-2.3-3.4l2.1-6.2L214.5,633.8z"/>
		</g>
		<g>
			
				<rect x="219.9" y="658.4" transform="matrix(-1 -1.224647e-16 1.224647e-16 -1 448.5206 1340.4819)" class="st95" width="8.8" height="23.7"/>
			<ellipse class="st100" cx="224.3" cy="682.1" rx="4.4" ry="4.4"/>
		</g>
		<g>
			
				<rect x="208.3" y="653" transform="matrix(-1 -1.224647e-16 1.224647e-16 -1 425.2925 1329.7219)" class="st95" width="8.8" height="23.7"/>
			<ellipse class="st100" cx="212.6" cy="676.7" rx="4.4" ry="4.4"/>
		</g>
		<g>
			<path class="st95" d="M217,677.1h-8.7l2.3,25.5c0.1,1,0.9,1.7,1.9,1.7l0,0c1,0,1.8-0.7,1.9-1.7L217,677.1z"/>
			<ellipse class="st95" cx="212.6" cy="676.7" rx="4.4" ry="4.4"/>
		</g>
		<g>
			<path class="st95" d="M228.5,683.3l-8.6-1.6l-2.5,25.4c-0.1,1,0.6,1.8,1.5,2l0,0c0.9,0.2,1.9-0.4,2.1-1.3L228.5,683.3z"/>
			<ellipse class="st95" cx="224.3" cy="682.1" rx="4.4" ry="4.4"/>
		</g>
		<ellipse class="st97" cx="215.4" cy="616.4" rx="7.7" ry="7.7"/>
		<path class="st99" d="M229.6,663.5c0,0,0-23,0-28.4c0-5.5-6.2-8.8-10.9-8.8c-4.7,0-10.7,2.5-10.7,7.8c0,5.3,0,24.2,0,24.2
			L229.6,663.5z"/>
		<path class="st97" d="M218,620.8l1.6,7.2c0.2,1-1,2.2-2.7,2.6c-1.7,0.4-3.3-0.1-3.6-1.2l-1.6-7.2L218,620.8z"/>
		<g>
			<path class="st101" d="M218.2,615.5c0,0,8.4-7.1,4-9.3c-4.3-2.2-5.8,2.5-5.8,2.5L218.2,615.5z"/>
			<g>
				<path class="st102" d="M213.5,608.2c1.4,0,2.7,0.3,3.8,0.9c0.7,1.2,1.1,2.7,1.1,4.2c0,0.8-0.1,1.5-0.3,2.2
					c-0.3-0.1-0.5-0.1-0.8-0.1c-1.3,0-2.4,1.1-2.4,2.4c0,0.7,0.3,1.3,0.8,1.8c-1.5,1.4-3.5,2.2-5.7,2.2c-1.4,0-2.7-0.3-3.8-0.9
					c-0.7-1.2-1.1-2.7-1.1-4.2C205.1,611.9,208.9,608.2,213.5,608.2z"/>
			</g>
		</g>
		<g>
			
				<rect x="224.3" y="641" transform="matrix(-0.9966 8.274658e-02 -8.274658e-02 -0.9966 506.5755 1270.3207)" class="st97" width="5.3" height="9.4"/>
			<ellipse class="st98" cx="227.4" cy="650.3" rx="2.7" ry="2.6"/>
		</g>
		<g>
			<polygon class="st97" points="229.9,649.6 225,651.6 232.7,666.2 234.6,665.4 			"/>
			<ellipse class="st97" cx="227.4" cy="650.3" rx="2.7" ry="2.6"/>
			<ellipse class="st97" cx="233.3" cy="665" rx="2.3" ry="2.3"/>
		</g>
		<path class="st99" d="M229.5,634.4l0.5,10.1c0.1,1.4-1.3,2.7-3.1,2.8c-1.8,0.1-3.3-1-3.4-2.5l-0.5-10.1L229.5,634.4z"/>
	</g>
</g>
</svg>
