<?xml version="1.0" encoding="utf-8"?>
<!-- Generator: Adobe Illustrator 23.0.3, SVG Export Plug-In . SVG Version: 6.00 Build 0)  -->
<svg version="1.1" id="Layer_1" xmlns="http://www.w3.org/2000/svg" xmlns:xlink="http://www.w3.org/1999/xlink" x="0px" y="0px"
	 viewBox="0 0 22 22" style="enable-background:new 0 0 22 22;" xml:space="preserve">
<style type="text/css">
	.st0{fill:#2C506F;}
	.st1{fill:#FFFFFF;}
</style>
<path class="st0" d="M18,22H4c-2.2,0-4-1.8-4-4V4c0-2.2,1.8-4,4-4h14c2.2,0,4,1.8,4,4v14C22,20.2,20.2,22,18,22z"/>
<g>
	<path class="st1" d="M7.5,8.9H5.8c-0.2,0-0.4,0.2-0.4,0.4v7.3c0,0.2,0.2,0.4,0.4,0.4h1.7c0.2,0,0.4-0.2,0.4-0.4V9.4
		C7.9,9.1,7.7,8.9,7.5,8.9z"/>
	<path class="st1" d="M14,8.8c-1.3,0-2,0.5-2.4,1.1V9.3c0-0.2-0.2-0.4-0.4-0.4H9.5c-0.2,0-0.4,0.2-0.4,0.4v7.3
		c0,0.2,0.2,0.4,0.4,0.4h1.8c0.2,0,0.4-0.2,0.4-0.4v-3.9c0-0.5,0.3-1.7,1.4-1.7c1.5,0,1.3,1.7,1.3,2.2v3.4c0,0.2,0.2,0.4,0.4,0.4
		h1.9c0.2,0,0.4-0.2,0.4-0.4v-3.5C17,11.6,17,8.8,14,8.8z"/>
	<circle class="st1" cx="6.6" cy="6.6" r="1.6"/>
</g>
</svg>
