<?xml version="1.0" encoding="utf-8"?>
<!-- Generator: Adobe Illustrator 23.0.3, SVG Export Plug-In . SVG Version: 6.00 Build 0)  -->
<svg version="1.1" id="Layer_1" xmlns="http://www.w3.org/2000/svg" xmlns:xlink="http://www.w3.org/1999/xlink" x="0px" y="0px"
	 viewBox="0 0 22 22" style="enable-background:new 0 0 22 22;" xml:space="preserve">
<style type="text/css">
	.st0{fill:#12100E;}
	.st1{fill:#FFFFFF;stroke:#111111;stroke-width:0.25;stroke-miterlimit:10;}
</style>
<path class="st0" d="M18,22H4c-2.2,0-4-1.8-4-4V4c0-2.2,1.8-4,4-4h14c2.2,0,4,1.8,4,4v14C22,20.2,20.2,22,18,22z"/>
<g>
	<path class="st1" d="M5,7.3c0,0,0,0.1,0,0.1v7.2c0,0,0,0.1,0,0.1L8.7,11L5,7.3z"/>
	<path class="st1" d="M11,12.2c0.2,0,0.3-0.1,0.4-0.2l5.2-5.2c-0.1,0-0.1,0-0.2,0H5.6c-0.1,0-0.1,0-0.2,0l5.2,5.2
		C10.7,12.1,10.8,12.2,11,12.2z"/>
	<path class="st1" d="M11.8,12.5c-0.2,0.2-0.5,0.3-0.8,0.3c-0.3,0-0.6-0.1-0.8-0.3l-1-1l-3.7,3.7c0.1,0,0.1,0,0.2,0h10.8
		c0.1,0,0.1,0,0.2,0l-3.7-3.7L11.8,12.5z"/>
	<path class="st1" d="M13.3,11l3.7,3.7c0,0,0-0.1,0-0.1V7.4c0,0,0-0.1,0-0.1L13.3,11z"/>
</g>
</svg>
