<?xml version="1.0" encoding="utf-8"?>
<!-- Generator: Adobe Illustrator 23.0.3, SVG Export Plug-In . SVG Version: 6.00 Build 0)  -->
<svg version="1.1" id="Layer_1" xmlns="http://www.w3.org/2000/svg" xmlns:xlink="http://www.w3.org/1999/xlink" x="0px" y="0px"
	 viewBox="0 0 22 22" style="enable-background:new 0 0 22 22;" xml:space="preserve">
<style type="text/css">
	.st0{fill:#1F4999;}
	.st1{fill:#FFFFFF;}
</style>
<path class="st0" d="M18,22H4c-2.2,0-4-1.8-4-4V4c0-2.2,1.8-4,4-4h14c2.2,0,4,1.8,4,4v14C22,20.2,20.2,22,18,22z"/>
<g>
	<path class="st1" d="M11.8,11.8h2.1l0.2-2.3h-2.3V8.1c0-0.6,0.1-1.1,1-1.1H14V5h-1.6c-1.7,0-2.8,1.1-2.8,2.9v1.6H7.8v2.3h1.7V17
		h2.3L11.8,11.8z"/>
</g>
</svg>
