<?xml version="1.0" encoding="utf-8"?>
<!-- Generator: Adobe Illustrator 23.0.3, SVG Export Plug-In . SVG Version: 6.00 Build 0)  -->
<svg version="1.1" id="Layer_1" xmlns="http://www.w3.org/2000/svg" xmlns:xlink="http://www.w3.org/1999/xlink" x="0px" y="0px"
	 viewBox="0 0 22 22" style="enable-background:new 0 0 22 22;" xml:space="preserve">
<style type="text/css">
	.st0{fill:#F06089;}
	.st1{fill:#FFFFFF;}
</style>
<path class="st0" d="M18,22H4c-2.2,0-4-1.8-4-4V4c0-2.2,1.8-4,4-4h14c2.2,0,4,1.8,4,4v14C22,20.2,20.2,22,18,22z"/>
<g>
	<path class="st1" d="M13.3,5H8.6C6.6,5,5,6.6,5,8.6v4.8C5,15.4,6.6,17,8.6,17h4.8c1.9,0,3.6-1.6,3.6-3.6V8.6
		C16.9,6.6,15.4,5,13.3,5z M15.7,13.4c0,1.3-1,2.4-2.4,2.4H8.6c-1.3,0-2.4-1-2.4-2.4V8.6c0-1.3,1-2.4,2.4-2.4h4.8
		c1.3,0,2.4,1,2.4,2.4L15.7,13.4L15.7,13.4z"/>
	<path class="st1" d="M11,7.9c-1.7,0-3.1,1.3-3.1,3.1s1.4,3.1,3.1,3.1S14,12.6,14,11S12.7,7.9,11,7.9z M11,12.9
		c-1,0-1.9-0.8-1.9-1.9S9.9,9.1,11,9.1s1.9,0.8,1.9,1.9S12,12.9,11,12.9z"/>
	<circle class="st1" cx="14" cy="7.9" r="0.7"/>
</g>
</svg>
