<?xml version="1.0" encoding="utf-8"?>
<!-- Generator: Adobe Illustrator 23.0.3, SVG Export Plug-In . SVG Version: 6.00 Build 0)  -->
<svg version="1.1" id="Layer_1" xmlns="http://www.w3.org/2000/svg" xmlns:xlink="http://www.w3.org/1999/xlink" x="0px" y="0px"
	 viewBox="0 0 22 22" style="enable-background:new 0 0 22 22;" xml:space="preserve">
<style type="text/css">
	.st0{fill:#69C6EF;}
	.st1{fill:#FFFFFF;}
</style>
<path class="st0" d="M18,22H4c-2.2,0-4-1.8-4-4V4c0-2.2,1.8-4,4-4h14c2.2,0,4,1.8,4,4v14C22,20.2,20.2,22,18,22z"/>
<path class="st1" d="M16.8,7.1c-0.3,0.1-0.5,0.2-0.8,0.3c0.3-0.3,0.5-0.7,0.7-1l0,0c0.1-0.1-0.1-0.2-0.2-0.1l0,0
	c-0.4,0.2-0.8,0.4-1.3,0.5H15c-0.1,0-0.1,0-0.2-0.1c-0.4-0.4-1-0.7-1.7-0.7c-0.3,0-0.5,0.1-0.8,0.1c-0.8,0.2-1.5,1-1.7,1.8
	c0.1,0.2,0,0.6,0.1,0.9v0.1h-0.1l0,0C8.7,8.8,7,7.9,5.8,6.5l0,0c0-0.1-0.1-0.1-0.2,0l0,0C5.4,6.9,5.3,7.4,5.3,7.8
	c0,0.7,0.3,1.3,0.7,1.9C5.8,9.6,5.7,9.5,5.4,9.4l0,0c-0.1-0.1-0.2,0-0.2,0.1l0,0c0,1,0.6,1.9,1.5,2.4c0,0,0,0-0.1,0
	c-0.1,0-0.3,0-0.4-0.1l0,0C6.1,11.9,6,11.9,6,12l0,0c0.3,0.9,1.1,1.6,2,1.8c-0.8,0.5-1.7,0.8-2.7,0.8H5.1c0,0-0.1,0.1-0.1,0.1
	s0,0.1,0.1,0.2c1,0.6,2.3,1,3.6,1c1.1,0,2.1-0.2,3.1-0.7c0.8-0.4,1.6-1,2.2-1.6c0.6-0.7,1-1.4,1.3-2.3c0.3-0.8,0.4-1.6,0.4-2.5V8.8
	c0-0.1,0.1-0.2,0.1-0.4c0.4-0.3,0.7-0.7,1-1.1l0,0C17.1,7.2,16.9,7.1,16.8,7.1L16.8,7.1z"/>
</svg>
