<?xml version="1.0" encoding="utf-8"?>
<!-- Generator: Adobe Illustrator 23.0.3, SVG Export Plug-In . SVG Version: 6.00 Build 0)  -->
<svg version="1.1" id="Layer_1" xmlns="http://www.w3.org/2000/svg" xmlns:xlink="http://www.w3.org/1999/xlink" x="0px" y="0px"
	 viewBox="0 0 22 22" style="enable-background:new 0 0 22 22;" xml:space="preserve">
<style type="text/css">
	.st0{fill:#12100E;}
	.st1{fill:#FFFFFF;}
</style>
<path class="st0" d="M18,22H4c-2.2,0-4-1.8-4-4V4c0-2.2,1.8-4,4-4h14c2.2,0,4,1.8,4,4v14C22,20.2,20.2,22,18,22z"/>
<g id="Page-1">
	<g id="Monogram">
		<path id="Shape" class="st1" d="M6.4,8.1c0-0.1-0.1-0.3-0.2-0.4L5.2,6.4V6.2h3.4l2.7,5.9l2.4-5.9H17v0.2l-1,0.9
			c-0.1,0.1-0.1,0.2-0.1,0.3v6.8c0,0.1,0,0.2,0.1,0.3l0.9,0.9v0.2h-4.6v-0.2l1-1c0.1-0.1,0.1-0.1,0.1-0.3V8.9l-2.7,6.8h-0.4L7.2,8.9
			v4.6c0,0.2,0.1,0.4,0.2,0.5l1.3,1.5v0.2H5v-0.2L6.3,14c0.2-0.1,0.2-0.3,0.2-0.5C6.4,13.5,6.4,8.1,6.4,8.1z"/>
	</g>
</g>
</svg>
