<?xml version="1.0" encoding="utf-8"?>
<!-- Generator: Adobe Illustrator 23.0.3, SVG Export Plug-In . SVG Version: 6.00 Build 0)  -->
<svg version="1.1" id="Layer_1" xmlns="http://www.w3.org/2000/svg" xmlns:xlink="http://www.w3.org/1999/xlink" x="0px" y="0px"
	 viewBox="0 0 16 16" style="enable-background:new 0 0 16 16;" xml:space="preserve">
<style type="text/css">
	.st0{fill:#FFFFFF;}
</style>
<title>Monogram</title>
<desc>Created with Sketch.</desc>
<g id="Page-1">
	<g id="Monogram">
		<path id="Shape" class="st0" d="M1.9,4.2c0-0.2-0.1-0.4-0.2-0.5L0.2,1.9V1.6h4.6l3.6,7.9l3.2-7.9H16v0.3l-1.3,1.2
			c-0.1,0.1-0.2,0.2-0.1,0.4v9c0,0.1,0,0.3,0.1,0.4l1.2,1.2v0.3H9.7v-0.3l1.3-1.3c0.1-0.1,0.1-0.2,0.1-0.4V5.2l-3.6,9.1H7L2.9,5.2
			v6.1c0,0.3,0.1,0.5,0.2,0.7l1.7,2v0.3H0v-0.3l1.7-2c0.2-0.2,0.3-0.4,0.2-0.7V4.2z"/>
	</g>
</g>
</svg>
