<?xml version="1.0" encoding="utf-8"?>
<!-- Generator: Adobe Illustrator 23.0.3, SVG Export Plug-In . SVG Version: 6.00 Build 0)  -->
<svg version="1.1" id="Layer_1" xmlns="http://www.w3.org/2000/svg" xmlns:xlink="http://www.w3.org/1999/xlink" x="0px" y="0px"
	 viewBox="0 0 16 16" style="enable-background:new 0 0 16 16;" xml:space="preserve">
<style type="text/css">
	.st0{fill:#FFFFFF;}
</style>
<g>
	<path class="st0" d="M3.4,5.3H1.1c-0.3,0-0.5,0.2-0.5,0.5v9.6c0,0.3,0.2,0.5,0.5,0.5h2.3c0.3,0,0.5-0.2,0.5-0.5V5.8
		C3.9,5.5,3.7,5.3,3.4,5.3z"/>
	<path class="st0" d="M12,5.1c-1.8,0-2.6,0.7-3.2,1.5V5.8c0-0.3-0.2-0.5-0.5-0.5H5.9c-0.3,0-0.5,0.2-0.5,0.5v9.7
		c0,0.3,0.2,0.5,0.5,0.5h2.4c0.3,0,0.5-0.2,0.5-0.5v-5.2C8.9,9.6,9.2,8,10.7,8c2,0,1.8,2.3,1.8,3v4.5c0,0.3,0.2,0.5,0.5,0.5h2.5
		c0.3,0,0.5-0.2,0.5-0.5v-4.7C15.9,8.8,16,5.1,12,5.1z"/>
	<circle class="st0" cx="2.2" cy="2.2" r="2.2"/>
</g>
</svg>
