<?xml version="1.0" encoding="utf-8"?>
<!-- Generator: Adobe Illustrator 23.0.3, SVG Export Plug-In . SVG Version: 6.00 Build 0)  -->
<svg version="1.1" id="Layer_1" xmlns="http://www.w3.org/2000/svg" xmlns:xlink="http://www.w3.org/1999/xlink" x="0px" y="0px"
	 viewBox="0 0 22 22" style="enable-background:new 0 0 22 22;" xml:space="preserve">
<style type="text/css">
	.st0{fill:#EC1E35;}
	.st1{fill:#FFFFFF;}
</style>
<path class="st0" d="M18,22H4c-2.2,0-4-1.8-4-4V4c0-2.2,1.8-4,4-4h14c2.2,0,4,1.8,4,4v14C22,20.2,20.2,22,18,22z"/>
<path class="st1" d="M14.5,6.7h-7C6.1,6.7,5,7.8,5,9.3v3.5c0,1.3,1.1,2.5,2.5,2.5h7c1.4,0,2.5-1.1,2.5-2.5V9.3
	C17,7.8,15.9,6.7,14.5,6.7z M12.8,11.1l-3.3,1.6c-0.1,0.1-0.2,0-0.2-0.1V9.4c0-0.1,0.1-0.1,0.2-0.1l3.3,1.6C13,11,13,11.1,12.8,11.1
	z"/>
</svg>
