<?xml version="1.0" encoding="utf-8"?>
<!-- Generator: Adobe Illustrator 23.0.3, SVG Export Plug-In . SVG Version: 6.00 Build 0)  -->
<svg version="1.1" id="Layer_1" xmlns="http://www.w3.org/2000/svg" xmlns:xlink="http://www.w3.org/1999/xlink" x="0px" y="0px"
	 viewBox="0 0 16 16" style="enable-background:new 0 0 16 16;" xml:space="preserve">
<style type="text/css">
	.st0{fill:#FFFFFF;}
</style>
<g>
	<path class="st0" d="M11.2,0H4.8C2.1,0,0,2.1,0,4.8v6.5C0,13.9,2.1,16,4.8,16h6.5c2.6,0,4.8-2.1,4.8-4.8V4.8C16,2.1,13.9,0,11.2,0z
		 M14.4,11.2c0,1.7-1.4,3.2-3.2,3.2H4.8c-1.7,0-3.2-1.4-3.2-3.2V4.8C1.6,3,3,1.6,4.8,1.6h6.5c1.7,0,3.2,1.4,3.2,3.2L14.4,11.2
		L14.4,11.2z"/>
	<path class="st0" d="M8,3.9C5.7,3.9,3.9,5.7,3.9,8s1.9,4.1,4.1,4.1s4.1-1.9,4.1-4.1S10.3,3.9,8,3.9z M8,10.5
		c-1.4,0-2.5-1.1-2.5-2.5S6.6,5.5,8,5.5c1.4,0,2.5,1.1,2.5,2.5C10.5,9.4,9.4,10.5,8,10.5z"/>
	<circle class="st0" cx="12.1" cy="3.9" r="1"/>
</g>
</svg>
