<?xml version="1.0" encoding="utf-8"?>
<!-- Generator: Adobe Illustrator 23.0.3, SVG Export Plug-In . SVG Version: 6.00 Build 0)  -->
<svg version="1.1" id="Layer_1" 
	xmlns="http://www.w3.org/2000/svg" 
	xmlns:xlink="http://www.w3.org/1999/xlink" x="0px" y="0px" viewBox="0 0 14 10" style="enable-background:new 0 0 14 10;" xml:space="preserve">
	<style type="text/css">
	.st0{fill:#111111;}
	</style>
	<g>
		<path class="st0" d="M13,2H1C0.4,2,0,1.6,0,1v0c0-0.5,0.4-1,1-1h12c0.5,0,1,0.4,1,1v0C14,1.6,13.6,2,13,2z"/>
		<path class="st0" d="M13,6H1C0.4,6,0,5.6,0,5v0c0-0.5,0.4-1,1-1h12c0.5,0,1,0.4,1,1v0C14,5.6,13.6,6,13,6z"/>
		<path class="st0" d="M13,10H1c-0.5,0-1-0.4-1-1v0c0-0.5,0.4-1,1-1h12c0.5,0,1,0.4,1,1v0C14,9.6,13.6,10,13,10z"/>
	</g>
</svg>
