<?xml version="1.0" encoding="utf-8"?>
<!-- Generator: Adobe Illustrator 24.3.0, SVG Export Plug-In . SVG Version: 6.00 Build 0)  -->
<svg version="1.1" id="Layer_1" xmlns="http://www.w3.org/2000/svg" xmlns:xlink="http://www.w3.org/1999/xlink" x="0px" y="0px"
	 viewBox="0 0 100 100" style="enable-background:new 0 0 100 100;" xml:space="preserve">
<style type="text/css">
	.st0{fill:#999999;}
</style>
<g>
	<path class="st0" d="M42,8l0.3-0.2l0.2-0.1h-0.3L42,7.8h-0.2l-0.1,0.1L41.4,8l-0.1,0.1h0.3L42,8z"/>
	<path class="st0" d="M22.7,24.2l0.2-0.3L22.7,24l-0.1,0.2v0.5l0.1,0.1l0.3-0.2l-0.2-0.1L22.7,24.2z"/>
	<path class="st0" d="M41.5,8.4l0.3-0.1l0.1-0.1V8.1l-0.3,0.1h-0.3l-0.1,0.1l0.1,0.1H41.5z"/>
	<path class="st0" d="M40.9,8.6l0.2-0.1V8.4h-0.2l-0.1,0.1L40.9,8.6L40.9,8.6z"/>
	<path class="st0" d="M43.2,8.5l-0.3,0.1L43,8.8l-0.1,0.1h-0.3l0.1-0.1V8.7h-0.3l-0.3,0.2h-0.3l-0.2-0.1h-0.2L41.2,9l-0.4,0.2
		l0.3-0.3H41L40.5,9l-0.2-0.1L40,9l-0.1,0.2l-0.1,0.1L40,9.5l-0.2,0.2l0.5,0.1l0.2-0.1l-0.1-0.1h1.2L42,9.4h0.1l0.1-0.1l0.1,0.2h0.2
		l0.2,0.1l0.6-0.1h0.8L44,9.4h1l0.1-0.1V8.9l-0.2-0.1H45l-0.1-0.2h-0.6l0.2-0.1l-0.3-0.1h-0.1V8.3h-0.4l-0.2,0.1L43.2,8.5z"/>
	<path class="st0" d="M26.6,22.7L26.2,23l-1.1,0.7l-0.5,0.2v0.3h-0.3l-0.1,0.2l0.4,0.4l0.3,0.2l0.1,0.3l-0.4,0.2l0.2,0.1l0.7-0.3
		v0.1l-0.4,0.5l0.1,0.2l0.1,0.1l0.5-0.5l0.2-0.4l0.2-0.4H26l0.4-0.4l-0.1-0.4l-0.2,0.1L26,23.9l0.2-0.2v-0.2l-0.3,0.1l0.5-0.4
		l0.5-0.3l0.2-0.1L27,22.7L26.6,22.7z"/>
	<path class="st0" d="M24.4,23.1l0.1-0.1v-0.4l-0.1-0.4h-0.1l-0.1,0.4l0.1,0.4L24.4,23.1z"/>
	<path class="st0" d="M39.7,8.5L40,8.4l0.4-0.1h-0.1l0.1-0.1h-0.2l0.1-0.1l-0.5,0.1l-0.1,0.1h-0.4l-0.1,0.1v0.2L39.7,8.5z"/>
	<path class="st0" d="M42.2,8.3v0.1h-0.5l-0.3,0.1l-0.1,0.2v0.1h0.8l0.2-0.1l0.5-0.1l0.1-0.1l0.2-0.1l0.4-0.1V8.2h-0.4l-0.3-0.1
		l-0.3,0.1L42.2,8.3z"/>
	<path class="st0" d="M37.8,10.3l-0.4,0.2v0.1h0.1v0.3l0.2-0.1l0.3-0.3l0.1-0.2L38,10.2L37.8,10.3z"/>
	<path class="st0" d="M30.9,13.2h0.2l0.2-0.2l-0.1-0.1l0.4-0.1l0.2-0.3l0.2-0.2l0.1-0.2H32l0.3-0.2l0.1-0.1L31.8,12l-0.6,0.3h-0.3
		l0.1,0.2l-0.4,0.2h0.7L31,12.9L30.9,13.2z"/>
	<path class="st0" d="M39.2,8.8l0.3-0.1h-0.4l-0.3,0.1l-0.1,0.1H39L39.2,8.8z"/>
	<path class="st0" d="M30.2,13.1L30,13.3v0.1l0.4-0.1h0.1v-0.2H30.2z"/>
	<path class="st0" d="M34.6,14.3l-0.1-0.2l0.4-0.5v-0.2l0.2-0.5h0.5l0.5-0.4l0.2-0.3l0.2-0.3l0.3-0.3l-0.2-0.1l0.3-0.2l0.2-0.2
		l0.3-0.4h-0.3l-0.2-0.1l0.4-0.1l0.7-0.4L37.7,10l-0.6,0.1l0.5-0.3H38l-0.1-0.2h-0.3L37,9.7l-0.8,0.2v0.2h-0.3l-0.3,0.1l-0.1,0.2
		l-0.2,0.3l-0.1,0.5l0.1,0.1h0.3l-0.2,0.2l-0.1,0.1L35,11.9h-0.2l-0.2,0.4l-0.2,0.3l-0.2,0.1l-0.3,0.2l-0.7,0.2l-0.4,0.2l-0.2,0.1
		l-0.2-0.2L32.3,13l-0.6,0.1l-0.1,0.3l0.2,0.3l0.2-0.1L31.8,14l-0.2,0.4h-0.2l-0.3,0.4L31,15.3v0.6l0.2-0.2l0.3-0.4l0.4-0.6
		l-0.3,0.7v0.3l0.5-0.3l0.6-0.5l0.1-0.1l0.1-0.4l0.3-0.3l0.4-0.2l0.2,0.1l-0.5,0.5l-0.1,0.3l1-0.2L34.6,14.3z"/>
	<path class="st0" d="M38.6,9.8L38.5,10h0.4l0.3-0.1l0.3-0.1V9.6l-0.1-0.1l-0.1-0.1V9.3l0.1-0.1l0.1-0.1L39.7,9L40,8.9l0.2-0.1
		l0.1-0.1l0.2-0.1l0.1-0.2h-0.2l-0.3,0.1L40,8.7l-0.4,0.1l-0.3,0.1L38.9,9l-0.3,0.3l-0.1,0.2v0.1L38.6,9.8z"/>
	<path class="st0" d="M30,13.8L29.8,14v0.1l0.3-0.2l0.1-0.1v-0.1L30,13.8z"/>
	<path class="st0" d="M33.8,12.6l0.1-0.1l0.3-0.1l0.2-0.2h-0.2l-0.4,0.1l-0.3,0.2l0.1,0.1H33.8z"/>
	<path class="st0" d="M37.5,9.4h0.6l0.2-0.2L38.4,9l-0.2-0.1L38,9h-0.4L37,9.2l-0.1,0.2l0.5-0.1L37.5,9.4z"/>
	<path class="st0" d="M67.1,39l0.5-0.4l-0.1-0.1v-0.1l0.2-0.4l-0.4,0.3l-0.4,0.1v0.2l-0.3,0.1l0.2,0.3L67.1,39z"/>
	<path class="st0" d="M53.5,25.9l0.2-0.5L53.5,25l-0.6,0.3l0.1,0.3L53.5,25.9z"/>
	<path class="st0" d="M52.9,35.6l0.2-0.6l-0.2-0.6l-0.3,0.3l-0.1,0.2l0.2,0.5L52.9,35.6z"/>
	<path class="st0" d="M47.8,26.1l-0.3-0.8v-0.1L47,25.1l0.5-0.5l0.1-0.6h-0.4l-0.4,0.1l0.5-0.7h-0.8l-0.4,0.5l-0.2,0.6l0.1,0.4
		l-0.1,0.6l0.3-0.3l0.1,0.2l-0.2,0.3l0.1,0.2l0.5,0.1v0.1l0.3,0.4l-0.2,0.4l-0.6-0.1l-0.1,0.4l0.2,0.4l-0.6,0.2l0.1,0.3l0.7,0.1h0.1
		l-0.5,0.2l-0.8,0.7l0.3,0.1l0.3-0.2l0.5,0.1l0.3-0.3l0.2,0.1l0.8-0.2l0.7,0.1l0.4-0.4l-0.2-0.3l0.3-0.2l0.1-0.5l-0.6-0.1L48.3,27
		l-0.2-0.8L47.8,26.1z"/>
	<path class="st0" d="M62.4,39.7l0.8-0.2l0.1-0.3L63,39.4v-0.2h-0.5l-0.4,0.2l-0.4-0.3v0.4h0.7L62.4,39.7z"/>
	<path class="st0" d="M35.4,18.8l0.3-0.4l0.7-0.3l0.5-0.3l0.3-0.3l0.5-0.3h1l0.8-0.1l0.8-0.5l0.4-0.1l0.2,0.1h0.8l0.9-0.3l0.9-0.3
		l-0.3-0.1l-0.5-0.1l0.4-0.2l0.2-0.4v0.3l0.1,0.3h0.4l0.2-0.5L43.9,15l-0.2-0.2l0.2-0.1l0.3,0.3l0.1-0.2v-0.4h0.6l0.2-0.1L45,14
		l0.4,0.1v-0.5h0.2l0.2-0.4l-0.1-0.3l0.4-0.1l0.2,0.1v-0.3l0.3-0.5l0.3-0.3l0.4-0.3H47h0.4l0.2-0.1l0.6-0.2V11L48,10.9h-0.6L47,11
		l0.3-0.2v-0.1L47,10.8l-0.1-0.2l-0.3-0.1v-0.1l0.5,0.1l0.3,0.1l0.3-0.1l-0.2-0.4L47,9.9l-0.3-0.1l-0.2,0.1l-0.2-0.1l-0.6,0.1
		L45.5,10l-0.2,0.2l0.1-0.1L45.3,10l0.1-0.2l-0.5,0.1l0.2-0.1l-0.2-0.2h-0.3l-0.2-0.1l-0.3,0.2l-0.2-0.1h-0.6L43,9.7l-0.1,0.2h-0.8
		l-0.5-0.2l-0.3,0.1l-0.2,0.3l0.1,0.3L41,10.3l-0.3-0.1l-0.4,0.3l-0.1,0.1l0.1,0.2l0.2,0.1l0.1,0.2l-0.1,0.4l-0.3,0.1l-0.1,0.2
		l-0.6,0.5l-0.3,0.3L39,12.8L38.3,13v0.2h0.2l-0.1,0.2l-0.1,0.4l-0.2-0.2L38,13.5l-0.4,0.2l-0.4,0.2v0.3H38l-0.5,0.3l-0.3,0.1h-0.5
		L35.9,15l-0.1,0.3l-0.5,0.2L35,16.1l-0.5,0.4l-0.2,0.4l-0.4,0.8l-0.3,0.6l-0.1,0.4l0.4,0.2v0.7l0.4,0.1l0.6-0.5L35.4,18.8z"/>
	<path class="st0" d="M45.5,26.5l0.3-0.5l-0.4-0.4h-0.3l-0.4,0.3L44,26.3l0.1,0.7l-0.5,0.7l0.6,0.2l0.9-0.3l0.4-0.6L45.5,26.5z"/>
	<path class="st0" d="M44.5,19.1l-0.1-0.4l0.2-0.4l-0.5-0.1l-0.6,0.2l-0.3-0.2l-0.5,0.2L42.4,18H42l-0.4,0.3l0.5,0.3L42,18.7h-0.5
		l0.4,0.4l-0.4,0.2l0.8,0.4l0.3,0.1h0.3l1.1-0.3L44.5,19.1z"/>
	<path class="st0" d="M56.1,38.8l0.5,0.2l0.1-0.4l-0.1-0.2l0.1-0.6l-0.4,0.1L55.7,38H55v0.4l0.8,0.3L56.1,38.8z"/>
	<path class="st0" d="M52.6,37.3l0.2,0.2l0.2-0.3h0.3v-1l-0.4-0.5L52.7,36l-0.4-0.1l0.2,0.5L52.6,37.3z"/>
	<path class="st0" d="M80,71.4l-0.1-0.2L79.7,71l-0.2,0.4l-0.1,0.4l-0.3,0.5l-0.2,0.1v0.2L78.7,73l-0.5,0.6l-0.4,0.5h-0.3l-0.2,0.2
		L77,74.6l-0.3,0.1l-0.2,0.4l-0.2,0.4l-0.1,0.6v0.6l-0.1,0.4l-0.4,0.6l-0.1,0.2L75.4,78l-0.3,0.5v0.8L75,79.8V80l0.3,0.1h0.3
		l0.5-0.4l0.5-0.3l0.4-0.7l0.5-0.9l0.7-1.3l0.5-0.9l0.4-0.8l0.1-0.6l0.2-0.2l0.1-0.3v-0.4l0.2-0.2v0.3l0.2-0.2l0.1-0.4l-0.1-0.2
		l0.1-0.8L80,71.4z"/>
	<path class="st0" d="M52.8,12.3l-0.3,0.1l0.2,0.2l-0.1,0.1l0.4,0.1l0.2-0.3h-0.3L52.8,12.3z"/>
	<path class="st0" d="M52.1,11.8l0.1,0.1h0.4l0.3-0.1v-0.3l-0.3-0.1h-0.3l-0.1,0.1L52,11.4l-0.3,0.2l0.2,0.2L52.1,11.8z"/>
	<path class="st0" d="M51.4,12.7l0.3,0.1l-0.1,0.1l0.4,0.3h0.2v-0.4l0.1-0.1l-0.1-0.4l0.3-0.2l-0.6-0.2l-0.2-0.2l-0.2,0.1v0.1h-0.2
		l-0.1-0.1L50.9,12l0.1,0.3L51.4,12.7z"/>
	<path class="st0" d="M11.8,42.8v-0.2l-0.1-0.2l-0.2-0.2l-0.1,0.3l0.1,0.2l0.2,0.2L11.8,42.8z"/>
	<path class="st0" d="M54.9,10.9l0.2,0.1l0.1-0.1l-0.1-0.1v-0.1h0.1l-0.1-0.1h-0.2v0.1l0.1,0.1l-0.2-0.1h-0.1l-0.1,0.2l0.2-0.1
		L54.9,10.9z"/>
	<path class="st0" d="M57.2,8.8h0.9l0.2-0.1l-0.1-0.2l-0.6-0.1h-0.7l-0.4,0.1l0.2,0.1L57.2,8.8z"/>
	<path class="st0" d="M58.9,8.7l-0.4-0.4l-0.3-0.1l-0.3,0.1l-0.1,0.1h0.1L58.9,8.7z"/>
	<path class="st0" d="M58.7,11.1v0.2l-0.1,0.3V12l0.1,0.4l0.2,0.1l0.2,0.5h0.2l0.2,0.5l0.3,0.2v0.2l0.3,0.2h0.4l0.3,0.1l0.5-0.2
		l0.1-0.1l-0.8-0.2l-0.5-0.3l-0.3-0.5l-0.4-0.4l-0.2-0.6v-0.8L59,11l-0.3-0.1V11.1z"/>
	<path class="st0" d="M11.6,49.4v0.3l-0.1,0.1v0.1l0.3,0.2l0.1-0.6l-0.1-0.1H11.6z"/>
	<path class="st0" d="M94.8,45.1L94,40.2l-1.2-4.8l-1.7-4.7L89,26.3l-2.5-4.2l-2.9-3.9l-3.3-3.5l-3.6-3.2l-3.9-2.7l-4.2-2.3
		l-4.4-1.8l-4.6-1.3l-4.7-0.8L50,2.3l-4.6,0.3l-4.7,0.8l-4.6,1.3l-4.4,1.8l-4.2,2.3l-4,2.7l-3.7,3.1l-3.3,3.5l-3,3.9l-2.6,4.2
		l-2.1,4.4l-1.7,4.6L6,40l-0.7,4.9L5,50l0.2,4.9L6,59.8l1.2,4.8l1.7,4.7l2.1,4.4l2.5,4.2l2.9,3.9l3.3,3.5l3.6,3.2l3.9,2.7l4.2,2.3
		l4.4,1.8l4.6,1.3l4.7,0.8l4.8,0.3l4.6-0.3l4.7-0.8l4.6-1.3l4.4-1.8l4.2-2.3l4-2.7l3.7-3.1l3.3-3.5l3-3.9l2.6-4.2l2.1-4.4l1.7-4.6
		L94,60l0.7-4.9L95,50L94.8,45.1z M76.2,34l-0.5,0.5L75,34.6l-0.4-0.2h-0.5l-0.4-0.5l-0.2-0.3l0.1-0.2v-0.3l-0.2-0.6l0.3-0.2
		l-0.2-0.1h-0.2l-0.4-0.4l-0.4-0.3l-0.8-0.6l-0.2-0.5l-0.7-0.5v-0.8l0.3-0.3L71,28.3l0.3-0.3l0.2-0.5h0.4l0.3-0.2l0.3,0.4l0.3,0.7
		h-0.4l-0.2,0.2l0.3,0.5l-0.4,0.1l0.1,0.2l0.3,0.1L73,30h0.6l0.2,0.2l0.1,0.3l0.1,0.2l0.4,0.4l-0.2-0.5l0.2-0.3l0.3,0.3l0.5,0.3
		L75,31.3h-0.4l0.2,0.6l0.3-0.1l0.2,0.5l0.4,0.1l0.3,0.8l0.3,0.5L76.2,34L76.2,34z M61.3,8.4L61,8.3h-0.1
		C60.9,8.3,61.3,8.4,61.3,8.4z M90.1,42.5l0.1,0.8v-0.1L90.1,42.5z M37.7,8.7h0.2H37.7z M90.5,54.5L89.8,59l-1.1,4.4l-1.5,4.2
		l-1.9,4.1L83,75.5L80.3,79l-3,3.2L74,85.1l-3.6,2.5l-3.8,2.1l-4,1.6l-4.1,1.2l-4.2,0.7L50,93.4l-4.2-0.2l-4.2-0.7l-4.1-1.2l-4-1.6
		l-3.8-2.1l-3.6-2.5l-3.3-2.9l-2.8-3l-0.2-0.5l-0.2-0.3L19.4,78l0.1-0.4l0.3-0.2l0.4,0.1l0.2-0.1l0.6,0.1l0.5,0.2v-0.3l0.3-0.1
		l-0.1-0.6l0.3-0.6l-0.1-0.8l0.1-0.2v-0.4l-0.1-0.9l-0.3-1.2l0.1-0.4h0.1l0.3-0.4l0.2-0.6l0.7-0.7l0.2-0.3l0.1-1.1l-0.1-0.5l-0.3-1
		l-0.2-0.3l-0.5-0.2l-0.4-0.4L21,65.6l-0.8-0.9l-0.8-0.3l-1-0.8h-0.6l0.1-0.4l-0.3-0.5L16.9,62l-0.6-0.6L16,61.7V61l-0.8-0.6
		L15,60.1l0.3-0.4v-0.5l-0.2-0.3l-0.2-1.4L14.8,57h-0.1l-0.1-0.3l-0.4-0.9L14,55.4l-0.1-0.2l-0.4-0.5l-0.3-0.2l-0.1,0.1l-0.4-0.5
		l-0.1-0.4l-0.2-0.5l-0.1-0.1v-0.4L12.1,52L12,51.7l-0.1-0.3l-0.2-0.1v-0.6l-0.2-0.6l-0.2-0.3v-0.4h0.3L11.2,49l-0.4-0.3v0.2
		L10.6,49l-0.2-0.3l-0.1-0.5L10,48l-0.2-0.3v-0.3l-0.1-0.6l-0.1-0.2V46l-0.1,0.1v0.4H9.4v-1.1l0.7-4.5l0.1-0.4l0.1,0.2l0.1,0.1
		l0.1,0.3l-0.1,0.2v0.2l0.2-0.4h0.1v0.2l0.1,0.1l0.1-0.1l0.1,0.1l0.1,0.1v0.3l0.2-0.2v-0.4L11.2,41l0.1-0.2l-0.1-0.1v-0.3l-0.1-0.1
		v-0.4H11L10.9,40l-0.1-0.4l-0.1-0.2l-0.1,0.1l0.1,0.3l-0.1,0.3v0.4l-0.1,0.1l-0.1-0.3l0.9-3.8l1.5-4.2l1.8-3.7l0.1-0.1l0.1,0.1
		l0.3-0.2l0.2,0.1l0.4-0.3l0.4-0.7l0.1-0.2v-0.1l0.4-0.6l0.1-0.4v0.3l0.3-0.4l0.2-0.2l-0.4,0.5l-0.1,0.4l-0.3,0.3l0.4-0.4l0.2-0.2
		l0.2-0.2l0.1-0.2l0.2-0.4l-0.1,0.2V26l-0.1,0.2l0.4-0.3l0.4-0.4v-0.1l0.2-0.1l-0.1,0.1l0.1,0.1l0.3,0.1l0.1-0.2l-0.3-0.2h0.2
		l0.1,0.1l0.1,0.1l0.2,0.1l0.1,0.1l0.2,0.1l0.1-0.2l0.1-0.2l-0.2,0.2l-0.1-0.1l0.2-0.4l0.3-0.3l0.1-0.1l0.4-0.2l0.3,0.1h0.3l0.4-0.1
		l0.1-0.2l0.3,0.2l0.3,0.3L21.2,25l-0.4,0.5l0.1,0.2l0.6-0.2h0.4l0.8,0.1l0.6-0.2v-0.3l0.3-0.4L22.8,25l-0.4-0.2v-0.6l0.3-0.5
		l0.5-0.7l0.5-0.2l0.1-0.4l-0.3-0.2l-0.8,0.1l-0.9,0.4l-0.2-0.1l0.6-0.3l0.9-0.4h0.4l0.5-0.2l0.2,0.2l0.3,0.3l0.3,0.5l0.4,0.2
		l0.7-0.2l0.5,0.1l0.3-0.1l0.4-0.1l0.6-0.6l0.1-0.3l-0.1-0.2l0.4-0.5v-0.3l-0.2-0.4l0.1-0.4l0.1-0.5l0.4-0.3l0.5-0.8l0.6-0.8L30,17
		l-0.4,0.1l-0.8,0.4h-0.5l0.3-0.4v-0.2l0.7-0.6l0.5-0.4l0.2-0.4l0.2-0.2l0.3-0.4l0.1-0.3h-0.2v-0.2l0.1-0.3h-0.2l-1,0.7l-0.6,0.4
		L28,15.4l-0.4,0.5l-0.5,0.5l-0.4,0.3l-0.5,0.2L25.7,17l-0.4-0.1L25,17.3l-0.9,0.8l-0.6,0.4h-0.2l0.5-0.7l0.6-0.7l0.6-0.5l0.5-0.4
		v-0.5l0.3-0.4L26,15l0.3-0.3l3.3-2.3l0.9-0.5V12l0.4-0.2h0.3V12l0.4-0.1l0.3-0.1l0.6-0.1l0.3-0.1l-0.2,0.2l0.1,0.1h0.5l0.3-0.1
		l0.4-0.2l0.4-0.1l0.3-0.1l0.3-0.3l0.1-0.2v-0.2L34.5,11l-0.6,0.1l-0.5,0.1l0.5-0.3l0.5-0.2l0.5-0.3h-0.5l0.7-0.2l0.2-0.2h0.3
		l0.8-0.4l0.3-0.2l0.2-0.2h-0.5l-0.8,0.2l-0.3,0.2L34.8,10l-0.7,0.2v-0.1l0.6-0.2h0.1l0.3-0.1l0.1-0.1l1.2-0.5l0.2,0.1L37.4,9
		l0.4-0.2h0.3l0.2-0.1V8.6l0.2-0.1h-0.2l3.3-0.9h0.7l0.1,0.1l0.2-0.1h0.1L46,7.1l4-0.5l4.2,0.2l4.2,0.7l1.2,0.3L59.4,8l0.1,0.2
		l0.2,0.1h-0.3v0.1l-0.2-0.1L59,8.4l0.4,0.2l0.3,0.1L60,8.8v0.1l0.4,0.2h-0.2l0.1,0.2l0.2,0.1l0.1,0.2l0.3,0.3V10l0.4,0.2l0.4,0.1
		v0.2l-0.1,0.2l0.1,0.2l0.7,0.3l0.6,0.2h-0.5l-0.1,0.2l0.2,0.3l0.5,0.2h-0.2l-0.6-0.3L62,11.7v0.1l0.5,0.2l0.3,0.4l0.6,0.2L64,13
		l0.4,0.2l0.2-0.1l0.4,0.3l0.4,0.1l0.2,0.3l0.3,0.2l0.1,0.2l0.2,0.2L66,14.5l-0.7-0.8l-0.4-0.3l-0.5-0.1l-0.9-0.5L63,12.6l-0.3-0.1
		l-0.5-0.4l-0.4-0.2L61.4,12l0.1,0.1l0.5,0.4l0.4,0.5l0.2,0.1l0.6,0.2l0.3,0.2l0.2-0.1l0.1,0.1l0.5,0.1l0.3,0.3l-1.2-0.1H63L62.3,14
		l0.1,0.2l0.5,0.1l0.2,0.4l-0.5-0.2v0.3L62.3,15l0.1,0.2l-0.3,0.1L62,15h-0.2l-0.2,0.7l-0.2,0.4l0.3,0.3l-0.2,0.2l-0.3-0.1l-0.3-0.3
		l0.2-0.2H60l0.4,0.3l0.2,0.3l0.4,0.2l0.2,0.4l-0.4-0.1h-0.2l-0.2,0.7l0.5,0.3l-0.1,0.2l-0.9-0.2v0.3l0.3,0.2l0.1,0.3H60l-0.5-0.1
		l-0.4-0.6L59,18l-0.7-0.3l0.1-0.1l1.4,0.1l0.3-0.3l0.1-0.4l-0.3-0.3l-0.4-0.2l-1.3-0.3h-0.7L56.9,16l-0.1,0.2L56.4,16l0.2-0.2
		l-0.9-0.2l-0.3,0.2H55l-0.2,0.5h-0.4l-0.5,0.3l-0.5,0.8L53,17.8l-0.5,1.1l-0.4,0.8l-0.6,0.6L50.7,21l-0.3,0.4l0.1,1.4l0.2,0.7
		l0.6,0.3l0.5-0.2l0.7-0.8l0.3,0.4l0.4,0.9l0.4,0.7l0.2,0.6l0.5-0.1l0.1-0.5h0.5l0.1-0.6l-0.1-1.1l0.4-0.2l0.2-0.7L55,21.9l-0.4-0.4
		v-0.9l0.5-0.6l0.3-0.5l-0.2-0.3l0.1-0.4l0.4-0.2l0.5,0.2l0.1,0.2l-0.1,0.2L56,19.8l-0.2,0.4v0.4l0.3,0.5l0.1,0.6l0.4,0.2l0.3,0.3
		l0.5-0.2l0.5-0.3l0.6-0.2l0.5,0.2l-0.2,0.4l-0.4,0.1H58l-0.4,0.2l-0.4,0.2l0.2,0.4l0.3,0.2l0.1-0.1l0.1,0.4L58,24h-0.3l-0.5-0.4
		L57,23.8l-0.1,0.4l0.1,0.5l0.2,0.5l-0.5,0.3v0.3h-0.4l-0.1-0.2l-0.4-0.1L55.3,26l-0.6,0.4l-0.3,0.2l-0.2-0.2l-0.5-0.2l-0.2,0.2
		L53,26.5v-0.2l-0.5-0.1v-0.3l-0.1-0.3l0.3-0.5l0.1,0.1l0.1-0.3l-0.2-0.1l-0.1-0.2l0.1-0.2v-0.3l-0.3,0.2l-0.1,0.2l-0.4,0.1
		l-0.1,0.2L51.7,25l0.1,0.7l0.2,0.4v0.4l0.1,0.3l-0.3,0.3L51.7,27h-0.4l-0.1,0.1h-0.4l-0.6,0.3l-0.4,1l-0.2,0.2l-0.4,0.1l-0.4,0.1
		l-0.2,0.6l-1.2,0.5L47,29.6l0.1,0.8L46.4,30l-0.6,0.1v0.5l0.7,0.3l0.3,0.4l0.5,0.8l-0.2,1.5L46.8,34h-1.3l-0.6-0.2h-0.7l-0.6-0.2
		l-0.8,0.5l0.2,0.3l-0.1,0.5v0.3l0.1,0.3v0.3l-0.2,0.4l-0.1,0.3l-0.3,0.3l-0.1,0.5l0.1,0.3l0.2,0.1v0.5l-0.2,0.6l0.3-0.1l0.3,0.1
		l0.3-0.2l0.5,0.2l0.1,0.5l0.2,0.3l0.3,0.1l0.3-0.3l0.4-0.2h1.4l0.5-0.6l0.5-0.1l0.2-0.5l0.4-0.3l-0.2-0.4l0.2-0.6l0.4-0.4l0.1-0.3
		l0.7-0.1l0.5-0.5V35l0.1-0.5l0.8-0.2l1.1,0.2l0.5-0.4l0.2-0.1l0.3-0.4l0.2-0.1l0.5,0.2l0.3,0.1l0.2,0.7l0.4,0.4l0.5,0.5l0.5,0.3
		h0.4l0.3,0.3H56l0.2,0.3l0.2,0.1l0.2,0.4l0.3,0.4l-0.1,0.2l-0.1,0.4V38l0.2-0.1l0.2-0.7l0.2-0.1v-0.4l-0.4-0.2l0.2-0.5l0.5,0.1
		l0.4,0.3l0.1-0.3V36l-0.5-0.3l-0.4-0.2l-0.5-0.2l0.1-0.2l-0.2-0.2h-0.4l-0.7-0.6l-0.3-0.6l-0.5-0.3L54.5,33v-0.2l-0.1-0.4l0.4-0.3
		l0.4,0.1l-0.1,0.1v0.3l0.2,0.2l0.1-0.3l0.3,0.1v0.2l0.3,0.3v0.2l0.5,0.5L57,34l0.4,0.2l0.5,0.2l0.3,0.1l0.2,0.2h0.1l0.1,0.1v0.7
		l0.1,0.4l0.3,0.2v0.2h0.1l0.1,0.2l0.4,0.4l0.3,0.3l0.2,0.5l0.3,0.6l0.5,0.3l0.4-0.1L61,38l0.3-0.1l-0.2-0.4l0.6,0.1l-0.1-0.4
		L61.2,37l-0.4-0.3l0.2-0.2l-0.3-0.3l-0.2-0.4l0.1-0.2l0.4,0.3h0.3l0.2-0.2L61,35.4l0.6-0.3h0.6v0.2l0.3,0.3l0.3-0.5l0.2-0.3
		l0.6-0.2v-0.2l-0.5-0.2L63,34l-0.3-0.4V33l0.2-0.3l-0.1-0.9H63l0.2-0.2L63,31.5l0.2-0.6v-0.4l0.4-0.2l0.1,0.3h0.8l0.2,0.1L64.4,31
		v0.2l0.6,0.1v0.4l0.3,0.1l0.5-0.6l0.4-0.2v-0.3l-0.4,0.2l-0.3-0.1l-0.2-0.4l0.3-0.4l0.4-0.1l0.2-0.3l0.3-0.1l0.3-0.2l0.1,0.1
		l-0.5,0.5l0.4,0.2l-0.1,0.7L66.4,31l0.6,0.3l0.6,0.1l0.8,0.4l0.3,0.2H69l0.4,0.2l0.3,0.4l0.1,0.3l-0.4,0.5L69,33.5l-0.5,0.3
		l-0.8-0.1l-1-0.3l-0.8,0.2l-0.5,0.3L65,34.5l-1,0.1l-0.1,0.6l-0.8,0.2l-0.4,0.8l0.4,0.3L62.8,37l0.5,0.3l0.5,0.7l0.6-0.1l0.6,0.3
		l0.4-0.2v-0.3l0.6-0.1l0.5,0.3l0.8-0.3l0.2-0.5l0.5,0.1l0.3-0.1l-0.1,0.3l0.3,0.3V38l0.2,0.6l-0.1,0.6v1.5l-0.1,0.4l-0.1,0.3
		l-0.2,0.3l-0.4,0.1l-0.5-0.1L67.2,42L67,41.6h-0.4l-0.5,0.2L65.9,42l-0.4,0.3l-0.3-0.1l-0.6-0.1H64l-0.8,0.1L63,42h-0.6l-0.2-0.1
		H62l-0.3-0.3h-0.8l-0.4,0.2l-0.4,0.4L60,42.6l0.2,0.6L60,43.6l-0.3,0.2L59,43.5l-1-0.3l-0.6-0.1L57,42.4l-0.9-0.3L55.7,42l-0.3,0.1
		l-0.7-0.2l-0.2-0.1l-0.2-0.4H54L53.8,41l0.4-0.4v-0.7L54,39.7v-0.4l0.3-0.4l-0.1-0.1l-0.5,0.3v-0.4l-0.4-0.1L52.6,39h-0.4L52,38.9
		h-0.6l-0.6,0.3l-0.3-0.1l-1,0.1l-1,0.1l-0.6,0.2l-0.4,0.3l-0.7,0.1l-0.6,0.4h-0.3l-0.6-0.2h-0.6l-0.3-0.4H44l-0.2,0.5L43.3,41
		l-0.5,0.3l-0.7,0.3L41.7,42l-0.1,0.4L41.3,43v1l-0.6,0.6l-0.3,0.2l-0.6,0.5h-0.6l-0.4,0.3l-0.5,0.7l-0.5,0.2L37.5,47l-0.1,0.4
		l-0.2,0.4L37,48l-0.4,0.4L36.3,49v0.3L36,49.6l-0.3,0.2l-0.1,0.4l-0.1,0.3l0.3,0.4l0.1,0.4l-0.1,0.4v1.2l-0.2,0.7L35.4,54v0.4
		l-0.2,0.4L35,55.2l-0.3,0.1l0.3,0.3l0.2,0.7l-0.1,0.3l0.1,0.6v0.2l0.2,0.2v0.1l0.1,0.2l0.3,0.1l0.4,0.4l0.2,0.2l0.1,0.2l0.1,0.4
		l0.2,0.2l0.2,0.1l0.3,0.3l0.3,0.5l0.1,0.6l0.1,0.3l0.4,0.5l0.5,0.4l0.2,0.1l0.5,0.5l0.6,0.5l0.6,0.6l0.7,0.4h0.3l0.7-0.2l0.5-0.2
		l0.9-0.1h0.5l0.5,0.2H45l0.7,0.2l0.7-0.2l0.4-0.2l1.2-0.4l0.6-0.1l0.6-0.1h1.3l0.5,0.5l0.2,0.5l0.4,0.5h0.6l0.3-0.2h0.3l0.8-0.3
		v0.2l0.2,0.1l0.2,0.3l0.3,0.1l0.3,0.5L54.2,66L54,66.9l0.1,0.1L54,67.5L53.8,68l-0.2,0.2v0.2l0.5,0.7l0.5,0.6l0.8,0.7l0.6,0.7
		l0.2,0.5l0.1,0.2l-0.1,0.1l0.4,0.4l0.1,0.4l0.2,0.6l-0.2,0.3v0.1l0.2,0.4l0.2,0.4l0.2,0.2v0.4L57,75.9l-0.2,0.3l-0.4,0.4l-0.2,0.3
		l-0.3,0.6l-0.1,0.3l-0.3,0.6l-0.1,0.5v0.9l0.5,0.5l0.1,0.4l0.3,0.7l0.3,0.4l0.2,0.2l0.1,0.3V83l0.1,0.8l0.1,0.4l0.1,0.5l0.2,0.3
		l0.4,0.3l0.4,0.6l0.2,0.4l0.3,0.4l0.2,0.3l-0.2,0.1l0.1,0.3l-0.1,0.3l0.1,0.1v-0.1l0.2,0.2h0.2l0.2,0.1h0.3l0.4-0.2l0.5-0.1
		l0.7-0.3h0.2l0.4-0.1h0.6l0.3-0.1h0.3l0.1-0.1l0.3-0.1l0.7-0.3l0.5-0.3l0.5-0.4l0.8-0.6l0.4-0.4l0.2-0.3l0.3-0.3l0.1-0.1l0.5-0.3
		l0.2-0.3l0.2-0.4l0.3-0.4l0.1-0.3h-0.1v-0.2l0.3-0.3l0.8-0.5l0.5-0.3l0.3-0.3l0.2-0.3l-0.1-0.1l0.2-0.3l0.2-0.6l-0.1,0.1V79
		l0.1-0.4l0.3-0.2l0.5-0.5l0.3-0.2l0.8-0.8l0.7-0.5l0.6-0.4l0.4-0.5l0.3-0.5l0.3-0.5v-0.3l0.1-1v-0.6l0.1-0.7v-0.3l-0.2-0.1
		l-0.2-0.6l-0.2-0.4l0.1-0.3V70l0.2-0.5v-0.2l-0.4-0.1v-0.4l0.3-1l0.3-0.3L75,67l0.2-0.3l0.1-0.5l0.2-0.1l0.2-0.3l0.4-0.4l0.1-0.2
		l0.1-0.4l0.6-1.1l0.5-0.7l0.8-1l0.8-1l0.6-1.3l0.4-1l0.4-1.3l0.2-1.1l0.2-1v-0.9l0.1-0.3l-0.1-0.4V53l-0.2,0.1l-0.2,0.4l-0.3,0.2
		L79.9,54l-0.2,0.1l-0.3,0.1l-0.2,0.2L79,54.6L78.5,55l-0.6,0.3l-0.5,0.4l-0.3,0.1l-0.3-0.2l-0.1-0.3l-0.2-0.1l-0.3-0.1l0.3-0.3
		v-0.3l-0.2-0.2L76,54.2L75.8,54l-0.4-0.3L75,53.4l-0.9-0.5l-0.4-0.3l-0.3-0.7L73,51l-0.4-0.2l-0.3-0.1L72,49.8L71.8,49l0.1-0.2
		l-0.3-0.7L71.4,48l-0.8-0.5L70.5,47l0.1-0.2l-0.7-0.7l-0.3-0.4l-0.3-0.4l-0.7-1.1l-0.5-0.7l-0.4-0.8v-0.1l0.7,1l0.3,0.3l0.2,0.2
		L69,44l0.1-0.4V43l0.1-0.3v1.1l0.3-0.1l0.4,0.5l0.5,0.5l0.4,0.5l0.2,0.1l0.2,0.4v0.2l0.3,0.4l0.3,0.1l0.3,0.2l0.5,0.8l0.1,0.5
		l0.2,0.5l0.5,0.6h0.3l0.5,0.4l0.3,0.6l0.4,0.6l0.3,0.2l0.1,0.3l0.2,0.2l0.1,0.3l0.1,0.3v0.2l0.1,0.3l-0.1,0.1l0.2,0.3l0.2,0.5
		l0.1,0.2v0.4l0.2,0.4l0.4-0.1L77,54l0.3-0.1l0.1-0.2l0.1-0.1l0.1-0.2l0.1-0.1l0.4-0.2l0.3-0.3l0.3-0.4h0.2l0.2-0.1l0.4-0.7l0.7-0.7
		l0.4-0.5v-0.7l0.3-0.4l0.2-0.1l0.3-0.4l0.3-0.1l0.2-0.3l-0.1-0.3l0.1-0.3l0.3-0.1l0.1-0.2v-0.4l0.2-0.4l0.2-0.1v-0.1L82.5,46v-0.6
		l0.2-0.1v-0.6l0.1-0.3v-0.7l-0.1-0.2h-0.2L82.4,43l-0.3-0.3h-0.3l-0.3,0.1l-0.3-0.1l-0.4-0.4l-0.3-0.6v-0.2l-0.1-0.3h-0.1V42
		l-0.2,0.6L80,43.3l-0.3,0.1l-0.4,0.2L79,43.9l-0.1-0.2l-0.1,0.1l-0.2-0.2v-0.5l-0.1-0.4l-0.2-0.2l-0.1,0.1V43l0.2,0.5l-0.1-0.2
		l-0.1-0.2L77.9,43l-0.1-0.2v-0.3l-0.1-0.3L77.2,42L77,41.8l-0.3-0.1l-0.4-0.6L76,40.6v-0.2l-0.2-0.3l0.3-0.1l0.1-0.4l0.4,0.1
		l0.2-0.2l0.7,0.8L78,41h0.5l0.6,0.4h0.6l0.3-0.6l0.3-0.3h0.2l0.5,0.8l0.5-0.2L82,41l0.8-0.2l0.5-0.4l0.5-0.4l0.5-0.6l0.5,0.4
		l0.3,0.4h0.3l0.6,0.3l0.2,0.2v0.4l0.7,0.5l0.2-0.1l0.2-0.8l0.3,0.6l0.3,0.9l0.4,0.9l0.5,1.3l0.5,0.8l0.2,0.4l0.3,0.8l0.3,0.6
		l0.1,0.2l0.2,0.6l0.3,0.9l0.3,0.4v0.8L90.5,54.5L90.5,54.5z M64.9,60.5l-0.5-0.3h0.1L64.9,60.5z"/>
</g>
</svg>
