<?xml version="1.0" encoding="utf-8"?>
<!-- Generator: Adobe Illustrator 23.0.3, SVG Export Plug-In . SVG Version: 6.00 Build 0)  -->
<svg version="1.1" id="Layer_1" xmlns="http://www.w3.org/2000/svg" xmlns:xlink="http://www.w3.org/1999/xlink" x="0px" y="0px"
	 viewBox="0 0 32 32" style="enable-background:new 0 0 32 32;" xml:space="preserve">
<style type="text/css">
	.st0{fill:#111111;}
</style>
<g>
	<g>
		<g transform="translate(0.000000,511.000000) scale(0.100000,-0.100000)">
			<path class="st0" d="M161.9,4945.8l0.1,15.8c0.1,14.1,0.4,16.2,2,18.6c3.7,5.6,10.3,8,17.3,6.3c5.1-1.2,7.8-3.3,9.6-7.4
				c1.2-2.7,1.5-7.6,1.6-26.2c0.1-22.1,0-24.9,0-24.9H208c0,0-0.2,1.4,0,17.4c0.1,15.5,0.7,18.6,4.3,22.2c5.3,5.3,17.1,5.3,22.4-0.1
				c3.3-3.3,3.8-6.7,3.8-29.3c0.1-14,0-24.1,0-24.1h15.8c0.1,10.8-0.1,11.4,0,9.4c0.4,9.1,1.6,12.2,6.3,15c5.4,3.2,12.9,3,16.1-0.4
				c3.7-3.9,4.1-10.1,1.6-24.6c-3.4-19.8-9.4-40.3-16-54.2c-1.7-3.6-4.5-9.6-6.2-13.2c-6.9-14.5-15.1-47.7-15.4-52.9l14.1-3.2
				c0,0,2,8.6,3,13.4c4.1,15.8,7.7,26.9,16.4,45c9.4,19.5,17.2,46.5,20.6,71.3c1.6,11.7-1.4,21.9-8.7,29.4c-5,5-8.8,6.6-16,6.9
				c-4.6,0.2-13.3-1.9-14.9-3.6c-0.5-0.5-0.8,1.1-1,3.8c-0.9,15.4-12.6,28.3-27.6,30.7c-4.7,0.7-12.8-0.9-17-3.5
				c-1.8-1.1-3.4-1.7-3.6-1.5c-0.2,0.2-1,1.7-1.7,3.4c-2.1,4.5-9.6,11.7-14.6,14.1c-7.9,3.8-15.1,4-23.1,0.9l-4.6-1.8l-0.2,42.8
				c-0.1,35.3-0.4,43.5-1.6,46.9c-2.6,7.1-7.1,12.9-13.3,17.1c-16.5,11.1-38.7,2.3-45.6-18.1c-0.7-2-1.1-32.9-1.1-87.4l0-84.3
				l-7.1,12.2c-20.2,34.5-23.8,40.2-27.2,43.1c-8.3,7.2-22.8,7.7-31.6,1c-7.4-5.5-11.3-17-9.1-26.7c1.9-7.8,16.8-43.3,26.6-63.4
				c14.4-29.4,28.3-51.3,42.3-66.8c6.5-7.1,10.7-13,13.8-19.4l14.9,4c-2.7,7.1-9.2,16.7-17.9,26.4c-9,10.1-14.7,18.1-23.3,32.5
				c-11.2,18.8-21.8,40.8-32.5,66.7c-9.8,23.8-11,28.1-9,31.4c2.1,3.5,8.1,6,12.4,5.1c2.1-0.4,2.4-0.7,5.6-5.5
				c1.8-2.7,12.1-20.1,22.9-38.5c10.8-18.4,20.1-34.2,20.8-35.2c3.1-4.5,10.6-3.9,12.9,1c0.4,1,0.9,46.6,0.9,101.2
				c0.1,81,0.3,99.9,1.4,102c5.5,10.6,22.2,10.9,27.7,0.5c1.1-2.1,1.4-15.9,1.4-71.9l0.1-69.3L161.9,4945.8z"/>
		</g>
	</g>
</g>
</svg>
